STARTFONT 2.1
COMMENT
COMMENT Converted from OpenType font "Montserrat-Regular.otf" by "otf2bdf 3.0".
COMMENT
FONT -FreeType-Montserrat-Medium-R-Normal--17-160-75-75-P-90-ISO10646-1
SIZE 16 75 75
FONTBOUNDINGBOX 40 23 -14 -5
STARTPROPERTIES 19
FOUNDRY "FreeType"
FAMILY_NAME "Montserrat"
WEIGHT_NAME "Medium"
SLANT "R"
SETWIDTH_NAME "Normal"
ADD_STYLE_NAME ""
PIXEL_SIZE 17
POINT_SIZE 160
RESOLUTION_X 75
RESOLUTION_Y 75
SPACING "P"
AVERAGE_WIDTH 90
CHARSET_REGISTRY "ISO10646"
CHARSET_ENCODING "1"
FONT_ASCENT 16
FONT_DESCENT 4
COPYRIGHT "Copyright 2011 The Montserrat Project Authors (https://github.com/JulietaUla/Montserrat)"
_OTF_FONTFILE "Montserrat-Regular.otf"
_OTF_PSNAME "Montserrat-Regular"
ENDPROPERTIES
CHARS 969
STARTCHAR 0000
ENCODING 0
SWIDTH 0 0
DWIDTH 0 0
BBX 0 0 0 0
BITMAP
ENDCHAR
STARTCHAR 000D
ENCODING 13
SWIDTH 240 0
DWIDTH 4 0
BBX 0 0 0 0
BITMAP
ENDCHAR
STARTCHAR 0020
ENCODING 32
SWIDTH 240 0
DWIDTH 4 0
BBX 0 0 0 0
BITMAP
ENDCHAR
STARTCHAR 0021
ENCODING 33
SWIDTH 240 0
DWIDTH 4 0
BBX 2 12 1 0
BITMAP
C0
C0
40
40
40
40
40
40
00
00
40
C0
ENDCHAR
STARTCHAR 0022
ENCODING 34
SWIDTH 360 0
DWIDTH 6 0
BBX 4 4 1 8
BITMAP
90
90
90
90
ENDCHAR
STARTCHAR 0023
ENCODING 35
SWIDTH 720 0
DWIDTH 12 0
BBX 11 12 0 0
BITMAP
0880
0880
1080
7FE0
1080
1100
1100
1100
FFE0
1100
1100
2100
ENDCHAR
STARTCHAR 0024
ENCODING 36
SWIDTH 600 0
DWIDTH 10 0
BBX 8 16 1 -2
BITMAP
08
08
3E
49
88
88
C8
78
0E
09
09
09
CB
7E
08
08
ENDCHAR
STARTCHAR 0025
ENCODING 37
SWIDTH 840 0
DWIDTH 14 0
BBX 12 12 1 0
BITMAP
7040
8880
8880
8900
8A00
92E0
6510
0910
0910
1110
2110
20E0
ENDCHAR
STARTCHAR 0026
ENCODING 38
SWIDTH 660 0
DWIDTH 11 0
BBX 10 12 1 0
BITMAP
3C00
6200
4200
6600
2C00
3000
6800
8480
8280
8100
C380
7C40
ENDCHAR
STARTCHAR 0027
ENCODING 39
SWIDTH 180 0
DWIDTH 3 0
BBX 1 4 1 8
BITMAP
80
80
80
80
ENDCHAR
STARTCHAR 0028
ENCODING 40
SWIDTH 300 0
DWIDTH 5 0
BBX 3 17 2 -4
BITMAP
60
40
40
80
80
80
80
80
80
80
80
80
80
80
40
40
60
ENDCHAR
STARTCHAR 0029
ENCODING 41
SWIDTH 300 0
DWIDTH 5 0
BBX 3 17 1 -4
BITMAP
80
C0
40
40
40
60
60
20
20
20
60
60
40
40
40
C0
80
ENDCHAR
STARTCHAR 002A
ENCODING 42
SWIDTH 360 0
DWIDTH 6 0
BBX 5 7 1 6
BITMAP
20
20
B8
60
F0
28
20
ENDCHAR
STARTCHAR 002B
ENCODING 43
SWIDTH 600 0
DWIDTH 10 0
BBX 7 7 1 2
BITMAP
10
10
10
FE
10
10
10
ENDCHAR
STARTCHAR 002C
ENCODING 44
SWIDTH 240 0
DWIDTH 4 0
BBX 2 4 1 -2
BITMAP
80
C0
80
80
ENDCHAR
STARTCHAR 002D
ENCODING 45
SWIDTH 360 0
DWIDTH 6 0
BBX 4 1 1 4
BITMAP
F0
ENDCHAR
STARTCHAR 002E
ENCODING 46
SWIDTH 240 0
DWIDTH 4 0
BBX 2 2 1 0
BITMAP
80
C0
ENDCHAR
STARTCHAR 002F
ENCODING 47
SWIDTH 360 0
DWIDTH 6 0
BBX 6 16 0 -2
BITMAP
04
04
08
08
08
10
10
10
20
20
20
40
40
C0
80
80
ENDCHAR
STARTCHAR 0030
ENCODING 48
SWIDTH 660 0
DWIDTH 11 0
BBX 9 12 1 0
BITMAP
3E00
6300
4100
8080
8080
8080
8080
8080
8080
4100
6300
3E00
ENDCHAR
STARTCHAR 0031
ENCODING 49
SWIDTH 360 0
DWIDTH 6 0
BBX 4 12 0 0
BITMAP
F0
10
10
10
10
10
10
10
10
10
10
10
ENDCHAR
STARTCHAR 0032
ENCODING 50
SWIDTH 540 0
DWIDTH 9 0
BBX 8 12 1 0
BITMAP
7C
C6
02
02
02
06
0C
18
30
60
C0
FF
ENDCHAR
STARTCHAR 0033
ENCODING 51
SWIDTH 540 0
DWIDTH 9 0
BBX 9 12 0 0
BITMAP
7F00
0300
0600
0400
0800
1E00
0300
0100
0180
0100
C300
3E00
ENDCHAR
STARTCHAR 0034
ENCODING 52
SWIDTH 660 0
DWIDTH 11 0
BBX 10 12 1 0
BITMAP
0600
0400
0800
1800
3000
2200
4200
C200
FFC0
0200
0200
0200
ENDCHAR
STARTCHAR 0035
ENCODING 53
SWIDTH 540 0
DWIDTH 9 0
BBX 9 12 0 0
BITMAP
3F00
2000
2000
6000
4000
7E00
0300
0180
0080
0180
C300
3E00
ENDCHAR
STARTCHAR 0036
ENCODING 54
SWIDTH 600 0
DWIDTH 10 0
BBX 9 12 1 0
BITMAP
1F00
6100
4000
C000
8000
9E00
E300
C180
C180
C100
6300
3E00
ENDCHAR
STARTCHAR 0037
ENCODING 55
SWIDTH 600 0
DWIDTH 10 0
BBX 8 12 1 0
BITMAP
FF
81
82
02
06
04
0C
08
18
10
10
20
ENDCHAR
STARTCHAR 0038
ENCODING 56
SWIDTH 660 0
DWIDTH 11 0
BBX 9 12 1 0
BITMAP
3E00
4300
8100
8100
4300
3E00
C300
8180
8080
8180
C300
3E00
ENDCHAR
STARTCHAR 0039
ENCODING 57
SWIDTH 600 0
DWIDTH 10 0
BBX 8 12 1 0
BITMAP
7C
C6
83
81
83
C7
7D
01
01
02
06
F8
ENDCHAR
STARTCHAR 003A
ENCODING 58
SWIDTH 240 0
DWIDTH 4 0
BBX 2 9 1 0
BITMAP
C0
80
00
00
00
00
00
80
C0
ENDCHAR
STARTCHAR 003B
ENCODING 59
SWIDTH 240 0
DWIDTH 4 0
BBX 2 11 1 -2
BITMAP
C0
80
00
00
00
00
00
80
C0
80
80
ENDCHAR
STARTCHAR 003C
ENCODING 60
SWIDTH 600 0
DWIDTH 10 0
BBX 7 7 1 2
BITMAP
02
0C
70
80
70
0C
02
ENDCHAR
STARTCHAR 003D
ENCODING 61
SWIDTH 600 0
DWIDTH 10 0
BBX 7 5 1 3
BITMAP
FE
00
00
00
FE
ENDCHAR
STARTCHAR 003E
ENCODING 62
SWIDTH 600 0
DWIDTH 10 0
BBX 7 7 1 2
BITMAP
80
70
0C
02
0C
70
80
ENDCHAR
STARTCHAR 003F
ENCODING 63
SWIDTH 540 0
DWIDTH 9 0
BBX 7 12 1 0
BITMAP
7C
86
02
02
02
04
08
10
00
00
10
10
ENDCHAR
STARTCHAR 0040
ENCODING 64
SWIDTH 1020 0
DWIDTH 17 0
BBX 15 16 1 -4
BITMAP
07E0
1818
2004
4794
8C52
8832
9012
9012
9012
8832
8C52
479C
4000
2000
1820
07C0
ENDCHAR
STARTCHAR 0041
ENCODING 65
SWIDTH 720 0
DWIDTH 12 0
BBX 12 12 0 0
BITMAP
0600
0600
0B00
0900
1980
1080
3080
2040
3FC0
4060
4020
C030
ENDCHAR
STARTCHAR 0042
ENCODING 66
SWIDTH 780 0
DWIDTH 13 0
BBX 10 12 2 0
BITMAP
FE00
8180
8080
8080
8180
FF00
8180
80C0
80C0
80C0
8180
FF00
ENDCHAR
STARTCHAR 0043
ENCODING 67
SWIDTH 720 0
DWIDTH 12 0
BBX 10 12 1 0
BITMAP
0F00
30C0
6040
C000
8000
8000
8000
8000
C000
4000
30C0
1F80
ENDCHAR
STARTCHAR 0044
ENCODING 68
SWIDTH 840 0
DWIDTH 14 0
BBX 11 12 2 0
BITMAP
FE00
8180
80C0
8040
8060
8020
8020
8060
8040
80C0
8180
FE00
ENDCHAR
STARTCHAR 0045
ENCODING 69
SWIDTH 660 0
DWIDTH 11 0
BBX 8 12 2 0
BITMAP
FF
80
80
80
80
FE
80
80
80
80
80
FF
ENDCHAR
STARTCHAR 0046
ENCODING 70
SWIDTH 660 0
DWIDTH 11 0
BBX 8 12 2 0
BITMAP
FF
80
80
80
80
80
FE
80
80
80
80
80
ENDCHAR
STARTCHAR 0047
ENCODING 71
SWIDTH 780 0
DWIDTH 13 0
BBX 10 12 1 0
BITMAP
0F80
30C0
6040
C000
8000
8000
8040
8040
C040
4040
30C0
1F80
ENDCHAR
STARTCHAR 0048
ENCODING 72
SWIDTH 840 0
DWIDTH 14 0
BBX 10 12 2 0
BITMAP
80C0
80C0
80C0
80C0
80C0
FFC0
80C0
80C0
80C0
80C0
80C0
80C0
ENDCHAR
STARTCHAR 0049
ENCODING 73
SWIDTH 300 0
DWIDTH 5 0
BBX 1 12 2 0
BITMAP
80
80
80
80
80
80
80
80
80
80
80
80
ENDCHAR
STARTCHAR 004A
ENCODING 74
SWIDTH 480 0
DWIDTH 8 0
BBX 7 12 0 0
BITMAP
7E
06
06
06
06
06
06
06
06
04
C4
78
ENDCHAR
STARTCHAR 004B
ENCODING 75
SWIDTH 720 0
DWIDTH 12 0
BBX 9 12 2 0
BITMAP
8080
8100
8200
8400
8800
9000
A800
CC00
8600
8300
8180
8080
ENDCHAR
STARTCHAR 004C
ENCODING 76
SWIDTH 600 0
DWIDTH 10 0
BBX 8 12 2 0
BITMAP
80
80
80
80
80
80
80
80
80
80
80
FF
ENDCHAR
STARTCHAR 004D
ENCODING 77
SWIDTH 960 0
DWIDTH 16 0
BBX 12 12 2 0
BITMAP
8010
C030
C030
A050
A0D0
9090
9990
8910
8610
8610
8010
8010
ENDCHAR
STARTCHAR 004E
ENCODING 78
SWIDTH 840 0
DWIDTH 14 0
BBX 10 12 2 0
BITMAP
80C0
C0C0
E0C0
B0C0
90C0
88C0
8CC0
86C0
82C0
81C0
81C0
80C0
ENDCHAR
STARTCHAR 004F
ENCODING 79
SWIDTH 840 0
DWIDTH 14 0
BBX 12 12 1 0
BITMAP
1F80
30C0
4060
C030
8010
8010
8010
8010
C030
4020
30C0
1F80
ENDCHAR
STARTCHAR 0050
ENCODING 80
SWIDTH 720 0
DWIDTH 12 0
BBX 9 12 2 0
BITMAP
FE00
8300
8180
8080
8080
8180
8300
FE00
8000
8000
8000
8000
ENDCHAR
STARTCHAR 0051
ENCODING 81
SWIDTH 840 0
DWIDTH 14 0
BBX 12 14 1 -2
BITMAP
1F80
30C0
4060
C030
8010
8010
8010
8010
C030
4020
30C0
1F80
0300
00F0
ENDCHAR
STARTCHAR 0052
ENCODING 82
SWIDTH 720 0
DWIDTH 12 0
BBX 9 12 2 0
BITMAP
FE00
8300
8180
8080
8080
8180
8300
FE00
8200
8300
8100
8080
ENDCHAR
STARTCHAR 0053
ENCODING 83
SWIDTH 600 0
DWIDTH 10 0
BBX 8 12 1 0
BITMAP
3E
41
80
80
C0
70
0E
01
01
01
C3
7E
ENDCHAR
STARTCHAR 0054
ENCODING 84
SWIDTH 600 0
DWIDTH 10 0
BBX 10 12 0 0
BITMAP
FFC0
0800
0800
0800
0800
0800
0800
0800
0800
0800
0800
0800
ENDCHAR
STARTCHAR 0055
ENCODING 85
SWIDTH 780 0
DWIDTH 13 0
BBX 9 12 2 0
BITMAP
8080
8080
8080
8080
8080
8080
8080
8080
8080
C080
6300
3E00
ENDCHAR
STARTCHAR 0056
ENCODING 86
SWIDTH 720 0
DWIDTH 12 0
BBX 11 12 0 0
BITMAP
C020
4020
4060
2040
20C0
3080
1080
1900
0900
0B00
0600
0600
ENDCHAR
STARTCHAR 0057
ENCODING 87
SWIDTH 1140 0
DWIDTH 19 0
BBX 17 12 1 0
BITMAP
808080
818100
C14100
414100
424200
622200
222200
242400
341400
141400
181800
180800
ENDCHAR
STARTCHAR 0058
ENCODING 88
SWIDTH 660 0
DWIDTH 11 0
BBX 9 12 1 0
BITMAP
8080
4100
6300
2200
1400
1800
1C00
1400
2200
4300
C180
8080
ENDCHAR
STARTCHAR 0059
ENCODING 89
SWIDTH 660 0
DWIDTH 11 0
BBX 10 12 0 0
BITMAP
C040
40C0
6080
2100
1100
1A00
0E00
0C00
0400
0400
0400
0400
ENDCHAR
STARTCHAR 005A
ENCODING 90
SWIDTH 660 0
DWIDTH 11 0
BBX 9 12 1 0
BITMAP
FF80
0180
0300
0200
0400
0C00
1800
1000
2000
4000
C000
FF80
ENDCHAR
STARTCHAR 005B
ENCODING 91
SWIDTH 300 0
DWIDTH 5 0
BBX 3 17 2 -4
BITMAP
E0
80
80
80
80
80
80
80
80
80
80
80
80
80
80
80
E0
ENDCHAR
STARTCHAR 005C
ENCODING 92
SWIDTH 360 0
DWIDTH 6 0
BBX 7 16 -1 -2
BITMAP
C0
40
40
20
20
20
10
10
10
08
08
08
04
04
04
02
ENDCHAR
STARTCHAR 005D
ENCODING 93
SWIDTH 300 0
DWIDTH 5 0
BBX 3 17 0 -4
BITMAP
E0
20
20
20
20
20
20
20
20
20
20
20
20
20
20
20
E0
ENDCHAR
STARTCHAR 005E
ENCODING 94
SWIDTH 600 0
DWIDTH 10 0
BBX 6 7 2 2
BITMAP
30
30
50
48
88
84
84
ENDCHAR
STARTCHAR 005F
ENCODING 95
SWIDTH 480 0
DWIDTH 8 0
BBX 8 1 0 -1
BITMAP
FF
ENDCHAR
STARTCHAR 0060
ENCODING 96
SWIDTH 600 0
DWIDTH 10 0
BBX 3 2 3 10
BITMAP
80
60
ENDCHAR
STARTCHAR 0061
ENCODING 97
SWIDTH 600 0
DWIDTH 10 0
BBX 7 9 1 0
BITMAP
7C
C6
02
02
7E
82
82
86
7A
ENDCHAR
STARTCHAR 0062
ENCODING 98
SWIDTH 660 0
DWIDTH 11 0
BBX 9 13 2 0
BITMAP
8000
8000
8000
8000
BC00
C300
8100
8100
8180
8100
8100
C300
BC00
ENDCHAR
STARTCHAR 0063
ENCODING 99
SWIDTH 540 0
DWIDTH 9 0
BBX 8 9 1 0
BITMAP
3C
63
80
80
80
80
80
63
3C
ENDCHAR
STARTCHAR 0064
ENCODING 100
SWIDTH 660 0
DWIDTH 11 0
BBX 9 13 1 0
BITMAP
0180
0180
0180
0180
3D80
6380
8180
8180
8180
8180
8180
6280
3C80
ENDCHAR
STARTCHAR 0065
ENCODING 101
SWIDTH 600 0
DWIDTH 10 0
BBX 8 9 1 0
BITMAP
3C
42
81
81
FF
80
80
63
3E
ENDCHAR
STARTCHAR 0066
ENCODING 102
SWIDTH 360 0
DWIDTH 6 0
BBX 6 13 0 0
BITMAP
1C
20
20
20
FC
20
20
20
20
20
20
20
20
ENDCHAR
STARTCHAR 0067
ENCODING 103
SWIDTH 660 0
DWIDTH 11 0
BBX 9 13 1 -4
BITMAP
3C80
6280
C180
8180
8080
8180
8180
4280
3C80
0080
0100
C300
3E00
ENDCHAR
STARTCHAR 0068
ENCODING 104
SWIDTH 660 0
DWIDTH 11 0
BBX 8 13 2 0
BITMAP
80
80
80
80
BC
C6
83
81
81
81
81
81
81
ENDCHAR
STARTCHAR 0069
ENCODING 105
SWIDTH 240 0
DWIDTH 4 0
BBX 2 13 1 0
BITMAP
C0
40
00
00
40
40
40
40
40
40
40
40
40
ENDCHAR
STARTCHAR 006A
ENCODING 106
SWIDTH 300 0
DWIDTH 5 0
BBX 4 17 -1 -4
BITMAP
10
10
00
00
10
10
10
10
10
10
10
10
10
10
10
30
E0
ENDCHAR
STARTCHAR 006B
ENCODING 107
SWIDTH 600 0
DWIDTH 10 0
BBX 7 13 2 0
BITMAP
80
80
80
80
82
8C
98
B0
F0
C8
8C
86
82
ENDCHAR
STARTCHAR 006C
ENCODING 108
SWIDTH 240 0
DWIDTH 4 0
BBX 1 13 2 0
BITMAP
80
80
80
80
80
80
80
80
80
80
80
80
80
ENDCHAR
STARTCHAR 006D
ENCODING 109
SWIDTH 1080 0
DWIDTH 18 0
BBX 14 9 2 0
BITMAP
BCF8
C78C
8304
8304
8204
8204
8204
8204
8204
ENDCHAR
STARTCHAR 006E
ENCODING 110
SWIDTH 660 0
DWIDTH 11 0
BBX 8 9 2 0
BITMAP
BC
C6
83
81
81
81
81
81
81
ENDCHAR
STARTCHAR 006F
ENCODING 111
SWIDTH 600 0
DWIDTH 10 0
BBX 9 9 1 0
BITMAP
3C00
6300
8100
8180
8180
8180
8100
6300
3C00
ENDCHAR
STARTCHAR 0070
ENCODING 112
SWIDTH 660 0
DWIDTH 11 0
BBX 9 13 2 -4
BITMAP
BC00
C300
8100
8100
8180
8100
8100
C300
BC00
8000
8000
8000
8000
ENDCHAR
STARTCHAR 0071
ENCODING 113
SWIDTH 660 0
DWIDTH 11 0
BBX 9 13 1 -4
BITMAP
3C80
6280
8180
8180
8180
8180
C180
6380
3D80
0180
0180
0180
0180
ENDCHAR
STARTCHAR 0072
ENCODING 114
SWIDTH 420 0
DWIDTH 7 0
BBX 4 9 2 0
BITMAP
B0
C0
80
80
80
80
80
80
80
ENDCHAR
STARTCHAR 0073
ENCODING 115
SWIDTH 480 0
DWIDTH 8 0
BBX 7 9 1 0
BITMAP
7C
84
80
C0
78
04
06
84
F8
ENDCHAR
STARTCHAR 0074
ENCODING 116
SWIDTH 420 0
DWIDTH 7 0
BBX 6 11 0 0
BITMAP
20
20
FC
20
20
20
20
20
20
20
1C
ENDCHAR
STARTCHAR 0075
ENCODING 117
SWIDTH 660 0
DWIDTH 11 0
BBX 8 9 2 0
BITMAP
83
83
83
83
83
83
83
C7
7B
ENDCHAR
STARTCHAR 0076
ENCODING 118
SWIDTH 540 0
DWIDTH 9 0
BBX 9 9 0 0
BITMAP
8080
4100
4100
2200
2200
3600
1400
1400
0800
ENDCHAR
STARTCHAR 0077
ENCODING 119
SWIDTH 900 0
DWIDTH 15 0
BBX 14 9 0 0
BITMAP
8104
4304
4284
6288
2488
2450
1850
1830
1820
ENDCHAR
STARTCHAR 0078
ENCODING 120
SWIDTH 540 0
DWIDTH 9 0
BBX 7 9 1 0
BITMAP
82
44
68
38
10
28
6C
C4
82
ENDCHAR
STARTCHAR 0079
ENCODING 121
SWIDTH 540 0
DWIDTH 9 0
BBX 9 13 0 -4
BITMAP
8080
4100
4100
6300
2200
2200
1400
1400
0C00
0800
0800
1000
E000
ENDCHAR
STARTCHAR 007A
ENCODING 122
SWIDTH 540 0
DWIDTH 9 0
BBX 7 9 1 0
BITMAP
FE
04
08
18
10
20
40
C0
FE
ENDCHAR
STARTCHAR 007B
ENCODING 123
SWIDTH 360 0
DWIDTH 6 0
BBX 4 17 1 -4
BITMAP
30
60
60
60
60
60
60
40
C0
40
60
60
60
60
60
60
30
ENDCHAR
STARTCHAR 007C
ENCODING 124
SWIDTH 300 0
DWIDTH 5 0
BBX 1 17 2 -4
BITMAP
80
80
80
80
80
80
80
80
80
80
80
80
80
80
80
80
80
ENDCHAR
STARTCHAR 007D
ENCODING 125
SWIDTH 360 0
DWIDTH 6 0
BBX 5 17 0 -4
BITMAP
E0
20
20
20
20
20
20
20
18
20
20
20
20
20
20
20
E0
ENDCHAR
STARTCHAR 007E
ENCODING 126
SWIDTH 600 0
DWIDTH 10 0
BBX 8 3 1 4
BITMAP
61
92
8E
ENDCHAR
STARTCHAR 00A0
ENCODING 160
SWIDTH 240 0
DWIDTH 4 0
BBX 0 0 0 0
BITMAP
ENDCHAR
STARTCHAR 00A1
ENCODING 161
SWIDTH 240 0
DWIDTH 4 0
BBX 2 11 1 -2
BITMAP
C0
40
00
00
40
40
40
40
40
40
C0
ENDCHAR
STARTCHAR 00A2
ENCODING 162
SWIDTH 540 0
DWIDTH 9 0
BBX 8 13 1 -2
BITMAP
08
08
3C
6A
C8
88
88
88
88
4B
3E
08
08
ENDCHAR
STARTCHAR 00A3
ENCODING 163
SWIDTH 660 0
DWIDTH 11 0
BBX 10 12 0 0
BITMAP
07C0
1840
1000
3000
3000
3000
FF00
3000
3000
3000
3000
FFC0
ENDCHAR
STARTCHAR 00A4
ENCODING 164
SWIDTH 720 0
DWIDTH 12 0
BBX 10 11 1 0
BITMAP
8040
DEC0
6180
4080
8080
8080
8080
4080
6100
DE80
8040
ENDCHAR
STARTCHAR 00A5
ENCODING 165
SWIDTH 720 0
DWIDTH 12 0
BBX 11 12 0 0
BITMAP
C020
4060
2040
3080
1180
0900
0E00
3FC0
0400
3FC0
0400
0400
ENDCHAR
STARTCHAR 00A6
ENCODING 166
SWIDTH 300 0
DWIDTH 5 0
BBX 1 17 2 -4
BITMAP
80
80
80
80
80
80
00
00
00
00
00
80
80
80
80
80
80
ENDCHAR
STARTCHAR 00A7
ENCODING 167
SWIDTH 480 0
DWIDTH 8 0
BBX 7 14 1 -2
BITMAP
7C
C0
80
80
70
8C
84
86
E4
38
04
04
84
F8
ENDCHAR
STARTCHAR 00A8
ENCODING 168
SWIDTH 600 0
DWIDTH 10 0
BBX 4 1 3 11
BITMAP
90
ENDCHAR
STARTCHAR 00A9
ENCODING 169
SWIDTH 780 0
DWIDTH 13 0
BBX 12 12 1 0
BITMAP
1F00
20C0
4E20
91A0
9020
A010
A010
9020
91A0
4E20
2040
1F80
ENDCHAR
STARTCHAR 00AA
ENCODING 170
SWIDTH 420 0
DWIDTH 7 0
BBX 5 6 1 7
BITMAP
F0
10
10
F8
88
F8
ENDCHAR
STARTCHAR 00AB
ENCODING 171
SWIDTH 480 0
DWIDTH 8 0
BBX 6 6 1 1
BITMAP
24
48
90
90
48
24
ENDCHAR
STARTCHAR 00AC
ENCODING 172
SWIDTH 600 0
DWIDTH 10 0
BBX 7 4 1 2
BITMAP
FE
02
02
02
ENDCHAR
STARTCHAR 00AD
ENCODING 173
SWIDTH 360 0
DWIDTH 6 0
BBX 4 1 1 4
BITMAP
F0
ENDCHAR
STARTCHAR 00AE
ENCODING 174
SWIDTH 780 0
DWIDTH 13 0
BBX 12 12 1 0
BITMAP
1F00
20C0
5E20
9120
9090
9090
9F10
9120
9120
4020
2040
1F80
ENDCHAR
STARTCHAR 00AF
ENCODING 175
SWIDTH 600 0
DWIDTH 10 0
BBX 6 1 2 11
BITMAP
FC
ENDCHAR
STARTCHAR 00B0
ENCODING 176
SWIDTH 420 0
DWIDTH 7 0
BBX 5 6 1 6
BITMAP
70
88
88
88
88
70
ENDCHAR
STARTCHAR 00B1
ENCODING 177
SWIDTH 600 0
DWIDTH 10 0
BBX 7 10 1 0
BITMAP
10
10
10
FE
10
10
10
00
00
FE
ENDCHAR
STARTCHAR 00B2
ENCODING 178
SWIDTH 420 0
DWIDTH 7 0
BBX 5 7 1 6
BITMAP
F0
08
08
10
20
40
F8
ENDCHAR
STARTCHAR 00B3
ENCODING 179
SWIDTH 420 0
DWIDTH 7 0
BBX 5 7 1 6
BITMAP
F8
10
20
30
08
08
F0
ENDCHAR
STARTCHAR 00B4
ENCODING 180
SWIDTH 600 0
DWIDTH 10 0
BBX 3 2 4 10
BITMAP
20
C0
ENDCHAR
STARTCHAR 00B5
ENCODING 181
SWIDTH 660 0
DWIDTH 11 0
BBX 8 13 2 -4
BITMAP
83
83
83
83
83
83
83
C5
B9
80
80
80
80
ENDCHAR
STARTCHAR 00B6
ENCODING 182
SWIDTH 660 0
DWIDTH 11 0
BBX 9 15 0 -2
BITMAP
3F80
7880
F880
F880
7880
3880
0880
0880
0880
0880
0880
0880
0880
0880
0880
ENDCHAR
STARTCHAR 00B7
ENCODING 183
SWIDTH 240 0
DWIDTH 4 0
BBX 2 2 1 4
BITMAP
C0
C0
ENDCHAR
STARTCHAR 00B8
ENCODING 184
SWIDTH 600 0
DWIDTH 10 0
BBX 3 4 4 -4
BITMAP
C0
20
40
C0
ENDCHAR
STARTCHAR 00B9
ENCODING 185
SWIDTH 420 0
DWIDTH 7 0
BBX 5 7 1 6
BITMAP
60
20
20
20
20
20
F8
ENDCHAR
STARTCHAR 00BA
ENCODING 186
SWIDTH 420 0
DWIDTH 7 0
BBX 5 6 1 7
BITMAP
70
88
88
88
88
70
ENDCHAR
STARTCHAR 00BB
ENCODING 187
SWIDTH 480 0
DWIDTH 8 0
BBX 6 6 1 1
BITMAP
90
48
24
2C
48
90
ENDCHAR
STARTCHAR 00BC
ENCODING 188
SWIDTH 1020 0
DWIDTH 17 0
BBX 16 12 1 0
BITMAP
6010
2020
2040
2040
2080
2108
F908
0210
0424
047F
0804
1004
ENDCHAR
STARTCHAR 00BD
ENCODING 189
SWIDTH 1020 0
DWIDTH 17 0
BBX 15 12 1 0
BITMAP
6010
2020
2040
2040
209C
2122
F902
0202
0404
0408
0810
103E
ENDCHAR
STARTCHAR 00BE
ENCODING 190
SWIDTH 1020 0
DWIDTH 17 0
BBX 16 12 1 0
BITMAP
F810
1020
2040
3040
0880
0908
F108
0210
0424
047F
0804
1004
ENDCHAR
STARTCHAR 00BF
ENCODING 191
SWIDTH 540 0
DWIDTH 9 0
BBX 8 12 1 -3
BITMAP
18
10
00
00
10
10
60
40
C0
C0
43
3E
ENDCHAR
STARTCHAR 00C0
ENCODING 192
SWIDTH 720 0
DWIDTH 12 0
BBX 12 15 0 0
BITMAP
0800
0400
0200
0600
0600
0B00
0900
1980
1080
3080
2040
3FC0
4060
4020
C030
ENDCHAR
STARTCHAR 00C1
ENCODING 193
SWIDTH 720 0
DWIDTH 12 0
BBX 12 15 0 0
BITMAP
0100
0200
0400
0600
0600
0B00
0900
1980
1080
3080
2040
3FC0
4060
4020
C030
ENDCHAR
STARTCHAR 00C2
ENCODING 194
SWIDTH 720 0
DWIDTH 12 0
BBX 12 15 0 0
BITMAP
0600
0900
0000
0600
0600
0B00
0900
1980
1080
3080
2040
3FC0
4060
4020
C030
ENDCHAR
STARTCHAR 00C3
ENCODING 195
SWIDTH 720 0
DWIDTH 12 0
BBX 12 15 0 0
BITMAP
0C80
1300
0000
0600
0600
0B00
0900
1980
1080
3080
2040
3FC0
4060
4020
C030
ENDCHAR
STARTCHAR 00C4
ENCODING 196
SWIDTH 720 0
DWIDTH 12 0
BBX 12 15 0 0
BITMAP
0900
0000
0000
0600
0600
0B00
0900
1980
1080
3080
2040
3FC0
4060
4020
C030
ENDCHAR
STARTCHAR 00C5
ENCODING 197
SWIDTH 720 0
DWIDTH 12 0
BBX 12 17 0 0
BITMAP
0400
0B00
0900
0600
0000
0600
0600
0B00
0900
1980
1080
3080
2040
3FC0
4060
4020
C030
ENDCHAR
STARTCHAR 00C6
ENCODING 198
SWIDTH 1020 0
DWIDTH 17 0
BBX 16 12 0 0
BITMAP
01FF
0280
0280
0480
0C80
08FE
1880
1080
3F80
2080
4080
C0FF
ENDCHAR
STARTCHAR 00C7
ENCODING 199
SWIDTH 720 0
DWIDTH 12 0
BBX 10 17 1 -5
BITMAP
0F00
30C0
6040
C000
8000
8000
8000
8000
C000
4000
30C0
1F80
0400
0600
0200
0200
0C00
ENDCHAR
STARTCHAR 00C8
ENCODING 200
SWIDTH 660 0
DWIDTH 11 0
BBX 8 15 2 0
BITMAP
20
10
00
FF
80
80
80
80
FE
80
80
80
80
80
FF
ENDCHAR
STARTCHAR 00C9
ENCODING 201
SWIDTH 660 0
DWIDTH 11 0
BBX 8 15 2 0
BITMAP
04
18
00
FF
80
80
80
80
FE
80
80
80
80
80
FF
ENDCHAR
STARTCHAR 00CA
ENCODING 202
SWIDTH 660 0
DWIDTH 11 0
BBX 8 15 2 0
BITMAP
18
24
00
FF
80
80
80
80
FE
80
80
80
80
80
FF
ENDCHAR
STARTCHAR 00CB
ENCODING 203
SWIDTH 660 0
DWIDTH 11 0
BBX 8 15 2 0
BITMAP
24
00
00
FF
80
80
80
80
FE
80
80
80
80
80
FF
ENDCHAR
STARTCHAR 00CC
ENCODING 204
SWIDTH 300 0
DWIDTH 5 0
BBX 3 15 0 0
BITMAP
C0
20
00
20
20
20
20
20
20
20
20
20
20
20
20
ENDCHAR
STARTCHAR 00CD
ENCODING 205
SWIDTH 300 0
DWIDTH 5 0
BBX 3 15 2 0
BITMAP
60
80
00
80
80
80
80
80
80
80
80
80
80
80
80
ENDCHAR
STARTCHAR 00CE
ENCODING 206
SWIDTH 300 0
DWIDTH 5 0
BBX 5 15 0 0
BITMAP
70
D8
00
20
20
20
20
20
20
20
20
20
20
20
20
ENDCHAR
STARTCHAR 00CF
ENCODING 207
SWIDTH 300 0
DWIDTH 5 0
BBX 5 15 0 0
BITMAP
D8
00
00
20
20
20
20
20
20
20
20
20
20
20
20
ENDCHAR
STARTCHAR 00D0
ENCODING 208
SWIDTH 840 0
DWIDTH 14 0
BBX 13 12 0 0
BITMAP
3FC0
2060
2010
2018
2008
FE08
2008
2018
2010
2030
2060
3F80
ENDCHAR
STARTCHAR 00D1
ENCODING 209
SWIDTH 840 0
DWIDTH 14 0
BBX 10 15 2 0
BITMAP
1800
2600
0000
80C0
C0C0
E0C0
B0C0
90C0
88C0
8CC0
86C0
82C0
81C0
81C0
80C0
ENDCHAR
STARTCHAR 00D2
ENCODING 210
SWIDTH 840 0
DWIDTH 14 0
BBX 12 15 1 0
BITMAP
0800
0400
0200
1F80
30C0
4060
C030
8010
8010
8010
8010
C030
4020
30C0
1F80
ENDCHAR
STARTCHAR 00D3
ENCODING 211
SWIDTH 840 0
DWIDTH 14 0
BBX 12 15 1 0
BITMAP
0100
0200
0400
1F80
30C0
4060
C030
8010
8010
8010
8010
C030
4020
30C0
1F80
ENDCHAR
STARTCHAR 00D4
ENCODING 212
SWIDTH 840 0
DWIDTH 14 0
BBX 12 15 1 0
BITMAP
0600
0900
0000
1F80
30C0
4060
C030
8010
8010
8010
8010
C030
4020
30C0
1F80
ENDCHAR
STARTCHAR 00D5
ENCODING 213
SWIDTH 840 0
DWIDTH 14 0
BBX 12 15 1 0
BITMAP
0C80
1300
0000
1F80
30C0
4060
C030
8010
8010
8010
8010
C030
4020
30C0
1F80
ENDCHAR
STARTCHAR 00D6
ENCODING 214
SWIDTH 840 0
DWIDTH 14 0
BBX 12 14 1 0
BITMAP
0900
0000
1F80
30C0
4060
C030
8010
8010
8010
8010
C030
4020
30C0
1F80
ENDCHAR
STARTCHAR 00D7
ENCODING 215
SWIDTH 600 0
DWIDTH 10 0
BBX 5 6 2 3
BITMAP
88
48
30
30
48
80
ENDCHAR
STARTCHAR 00D8
ENCODING 216
SWIDTH 840 0
DWIDTH 14 0
BBX 12 14 1 -1
BITMAP
0020
0FC0
30C0
60E0
C130
8110
8210
8410
8410
C830
5020
30C0
3F80
4000
ENDCHAR
STARTCHAR 00D9
ENCODING 217
SWIDTH 780 0
DWIDTH 13 0
BBX 9 15 2 0
BITMAP
3000
0800
0000
8080
8080
8080
8080
8080
8080
8080
8080
8080
C080
6300
3E00
ENDCHAR
STARTCHAR 00DA
ENCODING 218
SWIDTH 780 0
DWIDTH 13 0
BBX 9 15 2 0
BITMAP
0600
0800
0000
8080
8080
8080
8080
8080
8080
8080
8080
8080
C080
6300
3E00
ENDCHAR
STARTCHAR 00DB
ENCODING 219
SWIDTH 780 0
DWIDTH 13 0
BBX 9 15 2 0
BITMAP
1C00
3200
0000
8080
8080
8080
8080
8080
8080
8080
8080
8080
C080
6300
3E00
ENDCHAR
STARTCHAR 00DC
ENCODING 220
SWIDTH 780 0
DWIDTH 13 0
BBX 9 15 2 0
BITMAP
3600
0000
0000
8080
8080
8080
8080
8080
8080
8080
8080
8080
C080
6300
3E00
ENDCHAR
STARTCHAR 00DD
ENCODING 221
SWIDTH 660 0
DWIDTH 11 0
BBX 10 15 0 0
BITMAP
0200
0400
0000
C040
40C0
6080
2100
1100
1A00
0E00
0C00
0400
0400
0400
0400
ENDCHAR
STARTCHAR 00DE
ENCODING 222
SWIDTH 720 0
DWIDTH 12 0
BBX 9 12 2 0
BITMAP
8000
8000
FE00
8300
8180
8080
8080
8180
8300
FE00
8000
8000
ENDCHAR
STARTCHAR 00DF
ENCODING 223
SWIDTH 660 0
DWIDTH 11 0
BBX 8 13 2 0
BITMAP
3C
C6
82
82
82
86
9C
83
81
81
81
83
9E
ENDCHAR
STARTCHAR 00E0
ENCODING 224
SWIDTH 600 0
DWIDTH 10 0
BBX 7 12 1 0
BITMAP
20
10
00
7C
C6
02
02
7E
82
82
86
7A
ENDCHAR
STARTCHAR 00E1
ENCODING 225
SWIDTH 600 0
DWIDTH 10 0
BBX 7 12 1 0
BITMAP
0C
10
00
7C
C6
02
02
7E
82
82
86
7A
ENDCHAR
STARTCHAR 00E2
ENCODING 226
SWIDTH 600 0
DWIDTH 10 0
BBX 7 12 1 0
BITMAP
18
24
00
7C
C6
02
02
7E
82
82
86
7A
ENDCHAR
STARTCHAR 00E3
ENCODING 227
SWIDTH 600 0
DWIDTH 10 0
BBX 7 12 1 0
BITMAP
30
4C
00
7C
C6
02
02
7E
82
82
86
7A
ENDCHAR
STARTCHAR 00E4
ENCODING 228
SWIDTH 600 0
DWIDTH 10 0
BBX 7 12 1 0
BITMAP
24
00
00
7C
C6
02
02
7E
82
82
86
7A
ENDCHAR
STARTCHAR 00E5
ENCODING 229
SWIDTH 600 0
DWIDTH 10 0
BBX 7 14 1 0
BITMAP
10
28
28
38
00
7C
C6
02
02
7E
82
82
86
7A
ENDCHAR
STARTCHAR 00E6
ENCODING 230
SWIDTH 960 0
DWIDTH 16 0
BBX 15 9 1 0
BITMAP
7CF0
C78C
0304
0206
7FFE
8200
8300
C784
78F8
ENDCHAR
STARTCHAR 00E7
ENCODING 231
SWIDTH 540 0
DWIDTH 9 0
BBX 8 14 1 -5
BITMAP
3C
63
80
80
80
80
80
63
3C
10
18
08
08
18
ENDCHAR
STARTCHAR 00E8
ENCODING 232
SWIDTH 600 0
DWIDTH 10 0
BBX 8 12 1 0
BITMAP
20
18
00
3C
42
81
81
FF
80
80
63
3E
ENDCHAR
STARTCHAR 00E9
ENCODING 233
SWIDTH 600 0
DWIDTH 10 0
BBX 8 12 1 0
BITMAP
04
08
00
3C
42
81
81
FF
80
80
63
3E
ENDCHAR
STARTCHAR 00EA
ENCODING 234
SWIDTH 600 0
DWIDTH 10 0
BBX 8 12 1 0
BITMAP
18
24
00
3C
42
81
81
FF
80
80
63
3E
ENDCHAR
STARTCHAR 00EB
ENCODING 235
SWIDTH 600 0
DWIDTH 10 0
BBX 8 12 1 0
BITMAP
24
00
00
3C
42
81
81
FF
80
80
63
3E
ENDCHAR
STARTCHAR 00EC
ENCODING 236
SWIDTH 240 0
DWIDTH 4 0
BBX 3 12 0 0
BITMAP
C0
20
00
20
20
20
20
20
20
20
20
20
ENDCHAR
STARTCHAR 00ED
ENCODING 237
SWIDTH 240 0
DWIDTH 4 0
BBX 2 12 2 0
BITMAP
40
80
00
80
80
80
80
80
80
80
80
80
ENDCHAR
STARTCHAR 00EE
ENCODING 238
SWIDTH 240 0
DWIDTH 4 0
BBX 4 12 0 0
BITMAP
60
90
00
20
20
20
20
20
20
20
20
20
ENDCHAR
STARTCHAR 00EF
ENCODING 239
SWIDTH 240 0
DWIDTH 4 0
BBX 4 12 0 0
BITMAP
D0
00
00
20
20
20
20
20
20
20
20
20
ENDCHAR
STARTCHAR 00F0
ENCODING 240
SWIDTH 660 0
DWIDTH 11 0
BBX 9 12 1 0
BITMAP
7D00
0600
1900
6100
0180
3C80
C280
8180
8180
8100
C200
3C00
ENDCHAR
STARTCHAR 00F1
ENCODING 241
SWIDTH 660 0
DWIDTH 11 0
BBX 8 12 2 0
BITMAP
70
4C
00
BC
C6
83
81
81
81
81
81
81
ENDCHAR
STARTCHAR 00F2
ENCODING 242
SWIDTH 600 0
DWIDTH 10 0
BBX 9 12 1 0
BITMAP
3000
1800
0000
3C00
6300
8100
8180
8180
8180
8100
6300
3C00
ENDCHAR
STARTCHAR 00F3
ENCODING 243
SWIDTH 600 0
DWIDTH 10 0
BBX 9 12 1 0
BITMAP
0400
0800
0000
3C00
6300
8100
8180
8180
8180
8100
6300
3C00
ENDCHAR
STARTCHAR 00F4
ENCODING 244
SWIDTH 600 0
DWIDTH 10 0
BBX 9 12 1 0
BITMAP
1800
2400
0000
3C00
6300
8100
8180
8180
8180
8100
6300
3C00
ENDCHAR
STARTCHAR 00F5
ENCODING 245
SWIDTH 600 0
DWIDTH 10 0
BBX 9 13 1 0
BITMAP
3200
4A00
0400
0000
3C00
6300
8100
8180
8180
8180
8100
6300
3C00
ENDCHAR
STARTCHAR 00F6
ENCODING 246
SWIDTH 600 0
DWIDTH 10 0
BBX 9 12 1 0
BITMAP
2400
0000
0000
3C00
6300
8100
8180
8180
8180
8100
6300
3C00
ENDCHAR
STARTCHAR 00F7
ENCODING 247
SWIDTH 600 0
DWIDTH 10 0
BBX 7 8 1 2
BITMAP
18
10
00
00
FE
00
10
18
ENDCHAR
STARTCHAR 00F8
ENCODING 248
SWIDTH 600 0
DWIDTH 10 0
BBX 9 11 1 -1
BITMAP
0100
3E00
6300
8500
8980
8980
9180
A100
6300
7C00
8000
ENDCHAR
STARTCHAR 00F9
ENCODING 249
SWIDTH 660 0
DWIDTH 11 0
BBX 8 12 2 0
BITMAP
60
10
00
83
83
83
83
83
83
83
C7
7B
ENDCHAR
STARTCHAR 00FA
ENCODING 250
SWIDTH 660 0
DWIDTH 11 0
BBX 8 12 2 0
BITMAP
0C
10
00
83
83
83
83
83
83
83
C7
7B
ENDCHAR
STARTCHAR 00FB
ENCODING 251
SWIDTH 660 0
DWIDTH 11 0
BBX 8 12 2 0
BITMAP
38
64
00
83
83
83
83
83
83
83
C7
7B
ENDCHAR
STARTCHAR 00FC
ENCODING 252
SWIDTH 660 0
DWIDTH 11 0
BBX 8 12 2 0
BITMAP
6C
00
00
83
83
83
83
83
83
83
C7
7B
ENDCHAR
STARTCHAR 00FD
ENCODING 253
SWIDTH 540 0
DWIDTH 9 0
BBX 9 16 0 -4
BITMAP
0400
0800
0000
8080
4100
4100
6300
2200
2200
1400
1400
0C00
0800
0800
1000
E000
ENDCHAR
STARTCHAR 00FE
ENCODING 254
SWIDTH 660 0
DWIDTH 11 0
BBX 9 17 2 -4
BITMAP
8000
8000
8000
8000
BC00
C300
8100
8100
8180
8100
8100
C300
BC00
8000
8000
8000
8000
ENDCHAR
STARTCHAR 00FF
ENCODING 255
SWIDTH 540 0
DWIDTH 9 0
BBX 9 16 0 -4
BITMAP
2400
0000
0000
8080
4100
4100
6300
2200
2200
1400
1400
0C00
0800
0800
1000
E000
ENDCHAR
STARTCHAR 0100
ENCODING 256
SWIDTH 720 0
DWIDTH 12 0
BBX 12 14 0 0
BITMAP
1F80
0000
0600
0600
0B00
0900
1980
1080
3080
2040
3FC0
4060
4020
C030
ENDCHAR
STARTCHAR 0101
ENCODING 257
SWIDTH 600 0
DWIDTH 10 0
BBX 7 12 1 0
BITMAP
7C
00
00
7C
C6
02
02
7E
82
82
86
7A
ENDCHAR
STARTCHAR 0102
ENCODING 258
SWIDTH 720 0
DWIDTH 12 0
BBX 12 15 0 0
BITMAP
1100
0F00
0000
0600
0600
0B00
0900
1980
1080
3080
2040
3FC0
4060
4020
C030
ENDCHAR
STARTCHAR 0103
ENCODING 259
SWIDTH 600 0
DWIDTH 10 0
BBX 7 12 1 0
BITMAP
44
38
00
7C
C6
02
02
7E
82
82
86
7A
ENDCHAR
STARTCHAR 0104
ENCODING 260
SWIDTH 720 0
DWIDTH 12 0
BBX 12 17 0 -5
BITMAP
0600
0600
0B00
0900
1980
1080
3080
2040
3FC0
4060
4020
C030
0020
0040
0040
0040
0030
ENDCHAR
STARTCHAR 0105
ENCODING 261
SWIDTH 600 0
DWIDTH 10 0
BBX 7 14 1 -5
BITMAP
7C
C6
02
02
7E
82
82
86
7A
04
04
08
0C
06
ENDCHAR
STARTCHAR 0106
ENCODING 262
SWIDTH 720 0
DWIDTH 12 0
BBX 10 15 1 0
BITMAP
0300
0600
0000
0F00
30C0
6040
C000
8000
8000
8000
8000
C000
4000
30C0
1F80
ENDCHAR
STARTCHAR 0107
ENCODING 263
SWIDTH 540 0
DWIDTH 9 0
BBX 8 12 1 0
BITMAP
04
18
00
3C
63
80
80
80
80
80
63
3C
ENDCHAR
STARTCHAR 0108
ENCODING 264
SWIDTH 720 0
DWIDTH 12 0
BBX 10 15 1 0
BITMAP
0600
0900
0000
0F00
30C0
6040
C000
8000
8000
8000
8000
C000
4000
30C0
1F80
ENDCHAR
STARTCHAR 0109
ENCODING 265
SWIDTH 540 0
DWIDTH 9 0
BBX 8 12 1 0
BITMAP
18
24
00
3C
63
80
80
80
80
80
63
3C
ENDCHAR
STARTCHAR 010A
ENCODING 266
SWIDTH 720 0
DWIDTH 12 0
BBX 10 15 1 0
BITMAP
0600
0400
0000
0F00
30C0
6040
C000
8000
8000
8000
8000
C000
4000
30C0
1F80
ENDCHAR
STARTCHAR 010B
ENCODING 267
SWIDTH 540 0
DWIDTH 9 0
BBX 8 12 1 0
BITMAP
18
00
00
3C
63
80
80
80
80
80
63
3C
ENDCHAR
STARTCHAR 010C
ENCODING 268
SWIDTH 720 0
DWIDTH 12 0
BBX 10 15 1 0
BITMAP
0900
0600
0000
0F00
30C0
6040
C000
8000
8000
8000
8000
C000
4000
30C0
1F80
ENDCHAR
STARTCHAR 010D
ENCODING 269
SWIDTH 540 0
DWIDTH 9 0
BBX 8 12 1 0
BITMAP
24
18
00
3C
63
80
80
80
80
80
63
3C
ENDCHAR
STARTCHAR 010E
ENCODING 270
SWIDTH 840 0
DWIDTH 14 0
BBX 11 15 2 0
BITMAP
2600
1C00
0000
FE00
8180
80C0
8040
8060
8020
8020
8060
8040
80C0
8180
FE00
ENDCHAR
STARTCHAR 010F
ENCODING 271
SWIDTH 660 0
DWIDTH 11 0
BBX 11 13 1 0
BITMAP
01A0
01A0
01A0
0180
3D80
6380
8180
8180
8180
8180
8180
6280
3C80
ENDCHAR
STARTCHAR 0110
ENCODING 272
SWIDTH 840 0
DWIDTH 14 0
BBX 13 12 0 0
BITMAP
3FC0
2060
2010
2018
2008
FE08
2008
2018
2010
2030
2060
3F80
ENDCHAR
STARTCHAR 0111
ENCODING 273
SWIDTH 660 0
DWIDTH 11 0
BBX 10 13 1 0
BITMAP
0180
0FC0
0180
0180
3D80
6380
8180
8180
8180
8180
8180
6280
3C80
ENDCHAR
STARTCHAR 0112
ENCODING 274
SWIDTH 660 0
DWIDTH 11 0
BBX 8 14 2 0
BITMAP
7C
00
FF
80
80
80
80
FE
80
80
80
80
80
FF
ENDCHAR
STARTCHAR 0113
ENCODING 275
SWIDTH 600 0
DWIDTH 10 0
BBX 8 12 1 0
BITMAP
7E
00
00
3C
42
81
81
FF
80
80
63
3E
ENDCHAR
STARTCHAR 0114
ENCODING 276
SWIDTH 660 0
DWIDTH 11 0
BBX 8 15 2 0
BITMAP
44
3C
00
FF
80
80
80
80
FE
80
80
80
80
80
FF
ENDCHAR
STARTCHAR 0115
ENCODING 277
SWIDTH 600 0
DWIDTH 10 0
BBX 8 12 1 0
BITMAP
24
18
00
3C
42
81
81
FF
80
80
63
3E
ENDCHAR
STARTCHAR 0116
ENCODING 278
SWIDTH 660 0
DWIDTH 11 0
BBX 8 15 2 0
BITMAP
18
00
00
FF
80
80
80
80
FE
80
80
80
80
80
FF
ENDCHAR
STARTCHAR 0117
ENCODING 279
SWIDTH 600 0
DWIDTH 10 0
BBX 8 12 1 0
BITMAP
18
00
00
3C
42
81
81
FF
80
80
63
3E
ENDCHAR
STARTCHAR 0118
ENCODING 280
SWIDTH 660 0
DWIDTH 11 0
BBX 8 17 2 -5
BITMAP
FF
80
80
80
80
FE
80
80
80
80
80
FF
02
04
04
06
03
ENDCHAR
STARTCHAR 0119
ENCODING 281
SWIDTH 600 0
DWIDTH 10 0
BBX 8 14 1 -5
BITMAP
3C
42
81
81
FF
80
80
63
3E
04
08
08
0C
06
ENDCHAR
STARTCHAR 011A
ENCODING 282
SWIDTH 660 0
DWIDTH 11 0
BBX 8 15 2 0
BITMAP
24
18
00
FF
80
80
80
80
FE
80
80
80
80
80
FF
ENDCHAR
STARTCHAR 011B
ENCODING 283
SWIDTH 600 0
DWIDTH 10 0
BBX 8 12 1 0
BITMAP
24
18
00
3C
42
81
81
FF
80
80
63
3E
ENDCHAR
STARTCHAR 011C
ENCODING 284
SWIDTH 780 0
DWIDTH 13 0
BBX 10 15 1 0
BITMAP
0600
0900
0000
0F80
30C0
6040
C000
8000
8000
8040
8040
C040
4040
30C0
1F80
ENDCHAR
STARTCHAR 011D
ENCODING 285
SWIDTH 660 0
DWIDTH 11 0
BBX 9 16 1 -4
BITMAP
1C00
2600
0000
3C80
6280
C180
8180
8080
8180
8180
4280
3C80
0080
0100
C300
3E00
ENDCHAR
STARTCHAR 011E
ENCODING 286
SWIDTH 780 0
DWIDTH 13 0
BBX 10 15 1 0
BITMAP
1100
0E00
0000
0F80
30C0
6040
C000
8000
8000
8040
8040
C040
4040
30C0
1F80
ENDCHAR
STARTCHAR 011F
ENCODING 287
SWIDTH 660 0
DWIDTH 11 0
BBX 9 16 1 -4
BITMAP
2200
1C00
0000
3C80
6280
C180
8180
8080
8180
8180
4280
3C80
0080
0100
C300
3E00
ENDCHAR
STARTCHAR 0120
ENCODING 288
SWIDTH 780 0
DWIDTH 13 0
BBX 10 15 1 0
BITMAP
0600
0400
0000
0F80
30C0
6040
C000
8000
8000
8040
8040
C040
4040
30C0
1F80
ENDCHAR
STARTCHAR 0121
ENCODING 289
SWIDTH 660 0
DWIDTH 11 0
BBX 9 16 1 -4
BITMAP
0800
0800
0000
3C80
6280
C180
8180
8080
8180
8180
4280
3C80
0080
0100
C300
3E00
ENDCHAR
STARTCHAR 0122
ENCODING 290
SWIDTH 780 0
DWIDTH 13 0
BBX 10 16 1 -4
BITMAP
0F80
30C0
6040
C000
8000
8000
8040
8040
C040
4040
30C0
1F80
0000
0000
0400
0400
ENDCHAR
STARTCHAR 0123
ENCODING 291
SWIDTH 660 0
DWIDTH 11 0
BBX 9 17 1 -4
BITMAP
0800
0800
0800
0000
3C80
6280
C180
8180
8080
8180
8180
4280
3C80
0080
0100
C300
3E00
ENDCHAR
STARTCHAR 0124
ENCODING 292
SWIDTH 840 0
DWIDTH 14 0
BBX 10 15 2 0
BITMAP
0C00
1200
0000
80C0
80C0
80C0
80C0
80C0
FFC0
80C0
80C0
80C0
80C0
80C0
80C0
ENDCHAR
STARTCHAR 0125
ENCODING 293
SWIDTH 660 0
DWIDTH 11 0
BBX 10 16 0 0
BITMAP
6000
9000
0000
2000
2000
2000
2000
2F00
3180
20C0
2040
2040
2040
2040
2040
2040
ENDCHAR
STARTCHAR 0126
ENCODING 294
SWIDTH 840 0
DWIDTH 14 0
BBX 13 12 0 0
BITMAP
2010
2010
FFF8
2010
2010
3FF0
2010
2010
2010
2010
2010
2010
ENDCHAR
STARTCHAR 0127
ENCODING 295
SWIDTH 660 0
DWIDTH 11 0
BBX 10 13 0 0
BITMAP
2000
FE00
2000
2000
2F00
3180
20C0
2040
2040
2040
2040
2040
2040
ENDCHAR
STARTCHAR 0128
ENCODING 296
SWIDTH 300 0
DWIDTH 5 0
BBX 5 15 0 0
BITMAP
C8
B8
00
20
20
20
20
20
20
20
20
20
20
20
20
ENDCHAR
STARTCHAR 0129
ENCODING 297
SWIDTH 240 0
DWIDTH 4 0
BBX 4 13 0 0
BITMAP
40
B0
10
00
20
20
20
20
20
20
20
20
20
ENDCHAR
STARTCHAR 012A
ENCODING 298
SWIDTH 300 0
DWIDTH 5 0
BBX 5 14 0 0
BITMAP
F8
00
20
20
20
20
20
20
20
20
20
20
20
20
ENDCHAR
STARTCHAR 012B
ENCODING 299
SWIDTH 240 0
DWIDTH 4 0
BBX 4 12 0 0
BITMAP
F0
00
00
20
20
20
20
20
20
20
20
20
ENDCHAR
STARTCHAR 012C
ENCODING 300
SWIDTH 300 0
DWIDTH 5 0
BBX 5 15 0 0
BITMAP
88
70
00
20
20
20
20
20
20
20
20
20
20
20
20
ENDCHAR
STARTCHAR 012D
ENCODING 301
SWIDTH 240 0
DWIDTH 4 0
BBX 4 12 0 0
BITMAP
90
60
00
20
20
20
20
20
20
20
20
20
ENDCHAR
STARTCHAR 012E
ENCODING 302
SWIDTH 300 0
DWIDTH 5 0
BBX 3 16 1 -4
BITMAP
40
40
40
40
40
40
40
40
40
40
40
40
40
80
80
60
ENDCHAR
STARTCHAR 012F
ENCODING 303
SWIDTH 240 0
DWIDTH 4 0
BBX 2 17 1 -4
BITMAP
C0
40
00
00
40
40
40
40
40
40
40
40
40
80
80
80
C0
ENDCHAR
STARTCHAR 0130
ENCODING 304
SWIDTH 300 0
DWIDTH 5 0
BBX 1 15 2 0
BITMAP
80
80
00
80
80
80
80
80
80
80
80
80
80
80
80
ENDCHAR
STARTCHAR 0131
ENCODING 305
SWIDTH 240 0
DWIDTH 4 0
BBX 1 9 2 0
BITMAP
80
80
80
80
80
80
80
80
80
ENDCHAR
STARTCHAR 0132
ENCODING 306
SWIDTH 720 0
DWIDTH 12 0
BBX 8 12 2 0
BITMAP
81
81
81
81
81
81
81
01
01
03
86
7C
ENDCHAR
STARTCHAR 0133
ENCODING 307
SWIDTH 540 0
DWIDTH 9 0
BBX 7 17 1 -4
BITMAP
C6
44
00
00
44
44
44
44
44
44
44
44
44
04
04
04
38
ENDCHAR
STARTCHAR 0134
ENCODING 308
SWIDTH 480 0
DWIDTH 8 0
BBX 7 15 0 0
BITMAP
18
24
00
7E
06
06
06
06
06
06
06
06
04
C4
78
ENDCHAR
STARTCHAR 0135
ENCODING 309
SWIDTH 300 0
DWIDTH 5 0
BBX 5 16 -1 -4
BITMAP
30
68
00
10
10
10
10
10
10
10
10
10
10
10
30
E0
ENDCHAR
STARTCHAR 0136
ENCODING 310
SWIDTH 720 0
DWIDTH 12 0
BBX 9 16 2 -4
BITMAP
8080
8100
8200
8400
8800
9000
A800
CC00
8600
8300
8180
8080
0000
0000
0800
0800
ENDCHAR
STARTCHAR 0137
ENCODING 311
SWIDTH 600 0
DWIDTH 10 0
BBX 7 17 2 -4
BITMAP
80
80
80
80
82
8C
98
B0
F0
C8
8C
86
82
00
00
30
10
ENDCHAR
STARTCHAR 0138
ENCODING 312
SWIDTH 600 0
DWIDTH 10 0
BBX 7 9 2 0
BITMAP
82
8C
98
B0
F0
C8
8C
86
82
ENDCHAR
STARTCHAR 0139
ENCODING 313
SWIDTH 600 0
DWIDTH 10 0
BBX 8 15 2 0
BITMAP
60
80
00
80
80
80
80
80
80
80
80
80
80
80
FF
ENDCHAR
STARTCHAR 013A
ENCODING 314
SWIDTH 240 0
DWIDTH 4 0
BBX 2 16 2 0
BITMAP
40
80
00
80
80
80
80
80
80
80
80
80
80
80
80
80
ENDCHAR
STARTCHAR 013B
ENCODING 315
SWIDTH 600 0
DWIDTH 10 0
BBX 8 16 2 -4
BITMAP
80
80
80
80
80
80
80
80
80
80
80
FF
00
00
18
10
ENDCHAR
STARTCHAR 013C
ENCODING 316
SWIDTH 240 0
DWIDTH 4 0
BBX 1 17 2 -4
BITMAP
80
80
80
80
80
80
80
80
80
80
80
80
80
00
00
80
80
ENDCHAR
STARTCHAR 013D
ENCODING 317
SWIDTH 600 0
DWIDTH 10 0
BBX 8 12 2 0
BITMAP
84
84
84
80
80
80
80
80
80
80
80
FF
ENDCHAR
STARTCHAR 013E
ENCODING 318
SWIDTH 240 0
DWIDTH 4 0
BBX 3 13 2 0
BITMAP
A0
A0
A0
80
80
80
80
80
80
80
80
80
80
ENDCHAR
STARTCHAR 013F
ENCODING 319
SWIDTH 600 0
DWIDTH 10 0
BBX 8 12 2 0
BITMAP
80
80
80
80
84
84
80
80
80
80
80
FF
ENDCHAR
STARTCHAR 0140
ENCODING 320
SWIDTH 300 0
DWIDTH 5 0
BBX 4 13 2 0
BITMAP
80
80
80
80
80
80
B0
80
80
80
80
80
80
ENDCHAR
STARTCHAR 0141
ENCODING 321
SWIDTH 600 0
DWIDTH 10 0
BBX 9 12 1 0
BITMAP
4000
4000
4000
4000
7000
6000
C000
4000
4000
4000
4000
7F80
ENDCHAR
STARTCHAR 0142
ENCODING 322
SWIDTH 300 0
DWIDTH 5 0
BBX 5 13 0 0
BITMAP
20
20
20
20
20
38
20
60
A0
20
20
20
20
ENDCHAR
STARTCHAR 0143
ENCODING 323
SWIDTH 840 0
DWIDTH 14 0
BBX 10 15 2 0
BITMAP
0600
0C00
0000
80C0
C0C0
E0C0
B0C0
90C0
88C0
8CC0
86C0
82C0
81C0
81C0
80C0
ENDCHAR
STARTCHAR 0144
ENCODING 324
SWIDTH 660 0
DWIDTH 11 0
BBX 8 12 2 0
BITMAP
0C
10
00
BC
C6
83
81
81
81
81
81
81
ENDCHAR
STARTCHAR 0145
ENCODING 325
SWIDTH 840 0
DWIDTH 14 0
BBX 10 16 2 -4
BITMAP
80C0
C0C0
E0C0
B0C0
90C0
88C0
8CC0
86C0
82C0
81C0
81C0
80C0
0000
0000
0800
0800
ENDCHAR
STARTCHAR 0146
ENCODING 326
SWIDTH 660 0
DWIDTH 11 0
BBX 8 13 2 -4
BITMAP
BC
C6
83
81
81
81
81
81
81
00
00
10
10
ENDCHAR
STARTCHAR 0147
ENCODING 327
SWIDTH 840 0
DWIDTH 14 0
BBX 10 15 2 0
BITMAP
1200
0C00
0000
80C0
C0C0
E0C0
B0C0
90C0
88C0
8CC0
86C0
82C0
81C0
81C0
80C0
ENDCHAR
STARTCHAR 0148
ENCODING 328
SWIDTH 660 0
DWIDTH 11 0
BBX 8 12 2 0
BITMAP
64
18
00
BC
C6
83
81
81
81
81
81
81
ENDCHAR
STARTCHAR 0149
ENCODING 329
SWIDTH 780 0
DWIDTH 13 0
BBX 10 12 1 0
BITMAP
8000
8000
8000
AF00
3080
2040
2040
2040
2040
2040
2040
2040
ENDCHAR
STARTCHAR 014A
ENCODING 330
SWIDTH 840 0
DWIDTH 14 0
BBX 10 16 2 -4
BITMAP
80C0
C0C0
E0C0
B0C0
90C0
88C0
8CC0
86C0
82C0
81C0
81C0
80C0
00C0
0080
0880
0700
ENDCHAR
STARTCHAR 014B
ENCODING 331
SWIDTH 660 0
DWIDTH 11 0
BBX 8 13 2 -4
BITMAP
BC
C6
83
81
81
81
81
81
81
01
03
02
1E
ENDCHAR
STARTCHAR 014C
ENCODING 332
SWIDTH 840 0
DWIDTH 14 0
BBX 12 14 1 0
BITMAP
1F80
0000
1F80
30C0
4060
C030
8010
8010
8010
8010
C030
4020
30C0
1F80
ENDCHAR
STARTCHAR 014D
ENCODING 333
SWIDTH 600 0
DWIDTH 10 0
BBX 9 12 1 0
BITMAP
3E00
0000
0000
3C00
6300
8100
8180
8180
8180
8100
6300
3C00
ENDCHAR
STARTCHAR 014E
ENCODING 334
SWIDTH 840 0
DWIDTH 14 0
BBX 12 15 1 0
BITMAP
1100
0F00
0000
1F80
30C0
4060
C030
8010
8010
8010
8010
C030
4020
30C0
1F80
ENDCHAR
STARTCHAR 014F
ENCODING 335
SWIDTH 600 0
DWIDTH 10 0
BBX 9 12 1 0
BITMAP
2200
1C00
0000
3C00
6300
8100
8180
8180
8180
8100
6300
3C00
ENDCHAR
STARTCHAR 0150
ENCODING 336
SWIDTH 840 0
DWIDTH 14 0
BBX 12 15 1 0
BITMAP
0680
0500
0000
1F80
30C0
4060
C030
8010
8010
8010
8010
C030
4020
30C0
1F80
ENDCHAR
STARTCHAR 0151
ENCODING 337
SWIDTH 600 0
DWIDTH 10 0
BBX 9 12 1 0
BITMAP
0A00
1600
0000
3C00
6300
8100
8180
8180
8180
8100
6300
3C00
ENDCHAR
STARTCHAR 0152
ENCODING 338
SWIDTH 1140 0
DWIDTH 19 0
BBX 17 12 1 0
BITMAP
1FFF00
30C000
40C000
C0C000
80C000
80FF00
80C000
80C000
C0C000
60C000
30C000
1FFF80
ENDCHAR
STARTCHAR 0153
ENCODING 339
SWIDTH 1080 0
DWIDTH 18 0
BBX 16 9 1 0
BITMAP
3C3C
6346
C183
8181
81FF
8180
8180
6342
3C3C
ENDCHAR
STARTCHAR 0154
ENCODING 340
SWIDTH 720 0
DWIDTH 12 0
BBX 9 15 2 0
BITMAP
0400
0800
0000
FE00
8300
8180
8080
8080
8180
8300
FE00
8200
8300
8100
8080
ENDCHAR
STARTCHAR 0155
ENCODING 341
SWIDTH 420 0
DWIDTH 7 0
BBX 4 12 2 0
BITMAP
30
60
00
B0
C0
80
80
80
80
80
80
80
ENDCHAR
STARTCHAR 0156
ENCODING 342
SWIDTH 720 0
DWIDTH 12 0
BBX 9 16 2 -4
BITMAP
FE00
8300
8180
8080
8080
8180
8300
FE00
8200
8300
8100
8080
0000
0000
1800
0800
ENDCHAR
STARTCHAR 0157
ENCODING 343
SWIDTH 420 0
DWIDTH 7 0
BBX 4 13 2 -4
BITMAP
B0
C0
80
80
80
80
80
80
80
00
00
80
80
ENDCHAR
STARTCHAR 0158
ENCODING 344
SWIDTH 720 0
DWIDTH 12 0
BBX 9 15 2 0
BITMAP
2400
1800
0000
FE00
8300
8180
8080
8080
8180
8300
FE00
8200
8300
8100
8080
ENDCHAR
STARTCHAR 0159
ENCODING 345
SWIDTH 420 0
DWIDTH 7 0
BBX 4 12 2 0
BITMAP
90
60
00
B0
C0
80
80
80
80
80
80
80
ENDCHAR
STARTCHAR 015A
ENCODING 346
SWIDTH 600 0
DWIDTH 10 0
BBX 8 15 1 0
BITMAP
04
08
00
3E
41
80
80
C0
70
0E
01
01
01
C3
7E
ENDCHAR
STARTCHAR 015B
ENCODING 347
SWIDTH 480 0
DWIDTH 8 0
BBX 7 12 1 0
BITMAP
08
10
00
7C
84
80
C0
78
04
06
84
F8
ENDCHAR
STARTCHAR 015C
ENCODING 348
SWIDTH 600 0
DWIDTH 10 0
BBX 8 15 1 0
BITMAP
18
24
02
3E
41
80
80
C0
70
0E
01
01
01
C3
7E
ENDCHAR
STARTCHAR 015D
ENCODING 349
SWIDTH 480 0
DWIDTH 8 0
BBX 7 12 1 0
BITMAP
30
48
00
7C
84
80
C0
78
04
06
84
F8
ENDCHAR
STARTCHAR 015E
ENCODING 350
SWIDTH 600 0
DWIDTH 10 0
BBX 8 17 1 -5
BITMAP
3E
41
80
80
C0
70
0E
01
01
01
C3
7E
08
08
04
04
18
ENDCHAR
STARTCHAR 015F
ENCODING 351
SWIDTH 480 0
DWIDTH 8 0
BBX 7 14 1 -5
BITMAP
7C
84
80
C0
78
04
06
84
F8
20
30
08
10
30
ENDCHAR
STARTCHAR 0160
ENCODING 352
SWIDTH 600 0
DWIDTH 10 0
BBX 8 15 1 0
BITMAP
26
1C
00
3E
41
80
80
C0
70
0E
01
01
01
C3
7E
ENDCHAR
STARTCHAR 0161
ENCODING 353
SWIDTH 480 0
DWIDTH 8 0
BBX 7 12 1 0
BITMAP
48
30
00
7C
84
80
C0
78
04
06
84
F8
ENDCHAR
STARTCHAR 0162
ENCODING 354
SWIDTH 600 0
DWIDTH 10 0
BBX 10 17 0 -5
BITMAP
FFC0
0800
0800
0800
0800
0800
0800
0800
0800
0800
0800
0800
0800
0C00
0400
0400
0800
ENDCHAR
STARTCHAR 0163
ENCODING 355
SWIDTH 420 0
DWIDTH 7 0
BBX 6 16 0 -5
BITMAP
20
20
FC
20
20
20
20
20
20
20
1C
10
18
04
04
18
ENDCHAR
STARTCHAR 0164
ENCODING 356
SWIDTH 600 0
DWIDTH 10 0
BBX 10 15 0 0
BITMAP
1200
0C00
0000
FFC0
0800
0800
0800
0800
0800
0800
0800
0800
0800
0800
0800
ENDCHAR
STARTCHAR 0165
ENCODING 357
SWIDTH 420 0
DWIDTH 7 0
BBX 6 13 0 0
BITMAP
08
08
20
20
FC
20
20
20
20
20
20
20
1C
ENDCHAR
STARTCHAR 0166
ENCODING 358
SWIDTH 600 0
DWIDTH 10 0
BBX 10 12 0 0
BITMAP
FFC0
0800
0800
0800
0800
0800
3F00
0800
0800
0800
0800
0800
ENDCHAR
STARTCHAR 0167
ENCODING 359
SWIDTH 420 0
DWIDTH 7 0
BBX 6 11 0 0
BITMAP
20
20
FC
20
20
7C
20
20
20
20
1C
ENDCHAR
STARTCHAR 0168
ENCODING 360
SWIDTH 780 0
DWIDTH 13 0
BBX 9 15 2 0
BITMAP
3A00
2600
0000
8080
8080
8080
8080
8080
8080
8080
8080
8080
C080
6300
3E00
ENDCHAR
STARTCHAR 0169
ENCODING 361
SWIDTH 660 0
DWIDTH 11 0
BBX 8 12 2 0
BITMAP
74
4C
00
83
83
83
83
83
83
83
C7
7B
ENDCHAR
STARTCHAR 016A
ENCODING 362
SWIDTH 780 0
DWIDTH 13 0
BBX 9 14 2 0
BITMAP
3E00
0000
8080
8080
8080
8080
8080
8080
8080
8080
8080
C080
6300
3E00
ENDCHAR
STARTCHAR 016B
ENCODING 363
SWIDTH 660 0
DWIDTH 11 0
BBX 8 12 2 0
BITMAP
7C
00
00
83
83
83
83
83
83
83
C7
7B
ENDCHAR
STARTCHAR 016C
ENCODING 364
SWIDTH 780 0
DWIDTH 13 0
BBX 9 15 2 0
BITMAP
2200
1C00
0000
8080
8080
8080
8080
8080
8080
8080
8080
8080
C080
6300
3E00
ENDCHAR
STARTCHAR 016D
ENCODING 365
SWIDTH 660 0
DWIDTH 11 0
BBX 8 12 2 0
BITMAP
44
38
00
83
83
83
83
83
83
83
C7
7B
ENDCHAR
STARTCHAR 016E
ENCODING 366
SWIDTH 780 0
DWIDTH 13 0
BBX 9 17 2 0
BITMAP
0800
1400
2400
1C00
0000
8080
8080
8080
8080
8080
8080
8080
8080
8080
C080
6300
3E00
ENDCHAR
STARTCHAR 016F
ENCODING 367
SWIDTH 660 0
DWIDTH 11 0
BBX 8 14 2 0
BITMAP
10
28
48
38
00
83
83
83
83
83
83
83
C7
7B
ENDCHAR
STARTCHAR 0170
ENCODING 368
SWIDTH 780 0
DWIDTH 13 0
BBX 9 15 2 0
BITMAP
0900
1200
0000
8080
8080
8080
8080
8080
8080
8080
8080
8080
C080
6300
3E00
ENDCHAR
STARTCHAR 0171
ENCODING 369
SWIDTH 660 0
DWIDTH 11 0
BBX 8 12 2 0
BITMAP
12
24
00
83
83
83
83
83
83
83
C7
7B
ENDCHAR
STARTCHAR 0172
ENCODING 370
SWIDTH 780 0
DWIDTH 13 0
BBX 9 17 2 -5
BITMAP
8080
8080
8080
8080
8080
8080
8080
8080
8080
C080
6300
3E00
0800
1000
1000
1000
0C00
ENDCHAR
STARTCHAR 0173
ENCODING 371
SWIDTH 660 0
DWIDTH 11 0
BBX 8 14 2 -5
BITMAP
83
83
83
83
83
83
83
C7
7B
02
04
04
05
07
ENDCHAR
STARTCHAR 0174
ENCODING 372
SWIDTH 1140 0
DWIDTH 19 0
BBX 17 15 1 0
BITMAP
018000
024000
000000
808080
818100
C14100
414100
424200
622200
222200
242400
341400
141400
181800
180800
ENDCHAR
STARTCHAR 0175
ENCODING 373
SWIDTH 900 0
DWIDTH 15 0
BBX 14 12 0 0
BITMAP
0300
04C0
0000
8104
4304
4284
6288
2488
2450
1850
1830
1820
ENDCHAR
STARTCHAR 0176
ENCODING 374
SWIDTH 660 0
DWIDTH 11 0
BBX 10 15 0 0
BITMAP
0C00
1200
0100
C040
40C0
6080
2100
1100
1A00
0E00
0C00
0400
0400
0400
0400
ENDCHAR
STARTCHAR 0177
ENCODING 375
SWIDTH 540 0
DWIDTH 9 0
BBX 9 16 0 -4
BITMAP
1800
2600
0000
8080
4100
4100
6300
2200
2200
1400
1400
0C00
0800
0800
1000
E000
ENDCHAR
STARTCHAR 0178
ENCODING 376
SWIDTH 660 0
DWIDTH 11 0
BBX 10 15 0 0
BITMAP
1200
0000
0000
C040
40C0
6080
2100
1100
1A00
0E00
0C00
0400
0400
0400
0400
ENDCHAR
STARTCHAR 0179
ENCODING 377
SWIDTH 660 0
DWIDTH 11 0
BBX 9 15 1 0
BITMAP
0600
0800
0000
FF80
0180
0300
0200
0400
0C00
1800
1000
2000
4000
C000
FF80
ENDCHAR
STARTCHAR 017A
ENCODING 378
SWIDTH 540 0
DWIDTH 9 0
BBX 7 12 1 0
BITMAP
08
10
00
FE
04
08
18
10
20
40
C0
FE
ENDCHAR
STARTCHAR 017B
ENCODING 379
SWIDTH 660 0
DWIDTH 11 0
BBX 9 15 1 0
BITMAP
0800
0800
0000
FF80
0180
0300
0200
0400
0C00
1800
1000
2000
4000
C000
FF80
ENDCHAR
STARTCHAR 017C
ENCODING 380
SWIDTH 540 0
DWIDTH 9 0
BBX 7 13 1 0
BITMAP
10
10
00
00
FE
04
08
18
10
20
40
C0
FE
ENDCHAR
STARTCHAR 017D
ENCODING 381
SWIDTH 660 0
DWIDTH 11 0
BBX 9 15 1 0
BITMAP
2200
1C00
0000
FF80
0180
0300
0200
0400
0C00
1800
1000
2000
4000
C000
FF80
ENDCHAR
STARTCHAR 017E
ENCODING 382
SWIDTH 540 0
DWIDTH 9 0
BBX 7 12 1 0
BITMAP
48
30
00
FE
04
08
18
10
20
40
C0
FE
ENDCHAR
STARTCHAR 017F
ENCODING 383
SWIDTH 300 0
DWIDTH 5 0
BBX 6 13 0 0
BITMAP
1C
30
20
20
E0
20
20
20
20
20
20
20
20
ENDCHAR
STARTCHAR 018F
ENCODING 399
SWIDTH 840 0
DWIDTH 14 0
BBX 12 12 1 0
BITMAP
1F00
70C0
0060
0020
0030
0030
FFF0
8030
C020
4060
30C0
1F00
ENDCHAR
STARTCHAR 0192
ENCODING 402
SWIDTH 420 0
DWIDTH 7 0
BBX 9 17 -1 -4
BITMAP
0780
0400
0800
0800
3F00
0800
0800
0800
0800
1800
1800
1000
1000
1000
1000
3000
E000
ENDCHAR
STARTCHAR 01A0
ENCODING 416
SWIDTH 840 0
DWIDTH 14 0
BBX 12 14 1 0
BITMAP
0010
0010
1FE0
30C0
4060
C030
8010
8010
8010
8010
C030
4060
30C0
1F80
ENDCHAR
STARTCHAR 01A1
ENCODING 417
SWIDTH 600 0
DWIDTH 10 0
BBX 9 11 1 0
BITMAP
0100
0100
3F00
6300
8100
8180
8180
8180
8100
6300
3C00
ENDCHAR
STARTCHAR 01AF
ENCODING 431
SWIDTH 780 0
DWIDTH 13 0
BBX 11 14 2 0
BITMAP
0020
0020
80C0
8080
8080
8080
8080
8080
8080
8080
8080
C080
6300
3E00
ENDCHAR
STARTCHAR 01B0
ENCODING 432
SWIDTH 660 0
DWIDTH 11 0
BBX 9 11 2 0
BITMAP
0080
0080
8300
8300
8300
8300
8300
8300
8300
C700
7B00
ENDCHAR
STARTCHAR 01B7
ENCODING 439
SWIDTH 600 0
DWIDTH 10 0
BBX 8 12 1 0
BITMAP
FF
02
04
0C
18
1C
03
01
01
01
C3
7C
ENDCHAR
STARTCHAR 01C4
ENCODING 452
SWIDTH 1440 0
DWIDTH 24 0
BBX 22 15 2 0
BITMAP
000120
0000C0
000000
FE0FF8
818018
80C010
804020
806060
8020C0
802080
806100
804300
80C600
818400
FE0FFC
ENDCHAR
STARTCHAR 01C5
ENCODING 453
SWIDTH 1320 0
DWIDTH 22 0
BBX 20 12 2 0
BITMAP
FE0240
818180
80C000
8047F0
806020
802040
802080
806180
804100
80C200
818400
FE0FF0
ENDCHAR
STARTCHAR 01C6
ENCODING 454
SWIDTH 1200 0
DWIDTH 20 0
BBX 18 13 1 0
BITMAP
018C80
018700
018000
018000
3D9FC0
638080
818180
818100
818200
818400
818C00
628800
3C9FC0
ENDCHAR
STARTCHAR 01C7
ENCODING 455
SWIDTH 1080 0
DWIDTH 18 0
BBX 14 12 2 0
BITMAP
807C
8004
8004
8004
8004
8004
8004
8004
8004
8004
808C
FF78
ENDCHAR
STARTCHAR 01C8
ENCODING 456
SWIDTH 840 0
DWIDTH 14 0
BBX 11 17 2 -4
BITMAP
0060
8020
8000
8000
8020
8020
8020
8020
8020
8020
8020
8020
FF20
0020
0020
0040
03C0
ENDCHAR
STARTCHAR 01C9
ENCODING 457
SWIDTH 540 0
DWIDTH 9 0
BBX 6 17 2 -4
BITMAP
8C
88
80
80
88
88
88
88
88
88
88
88
88
08
08
08
70
ENDCHAR
STARTCHAR 01CA
ENCODING 458
SWIDTH 1320 0
DWIDTH 22 0
BBX 18 12 2 0
BITMAP
80C7C0
C0C040
E0C040
B0C040
90C040
88C040
8CC040
86C040
83C040
81C040
81C8C0
80C780
ENDCHAR
STARTCHAR 01CB
ENCODING 459
SWIDTH 1080 0
DWIDTH 18 0
BBX 15 17 2 -4
BITMAP
0006
80C4
C0C0
E0C0
B0C4
90C4
88C4
8CC4
86C4
82C4
81C4
81C4
80C4
0004
0004
0024
003C
ENDCHAR
STARTCHAR 01CC
ENCODING 460
SWIDTH 960 0
DWIDTH 16 0
BBX 12 17 2 -4
BITMAP
0010
0010
0000
0000
BC10
C610
8310
8110
8110
8110
8110
8110
8110
0010
0010
0010
00E0
ENDCHAR
STARTCHAR 01CD
ENCODING 461
SWIDTH 720 0
DWIDTH 12 0
BBX 12 15 0 0
BITMAP
0900
0600
0000
0600
0600
0B00
0900
1980
1080
3080
2040
3FC0
4060
4020
C030
ENDCHAR
STARTCHAR 01CE
ENCODING 462
SWIDTH 600 0
DWIDTH 10 0
BBX 7 12 1 0
BITMAP
24
18
00
7C
C6
02
02
7E
82
82
86
7A
ENDCHAR
STARTCHAR 01D3
ENCODING 467
SWIDTH 780 0
DWIDTH 13 0
BBX 9 15 2 0
BITMAP
3200
1C00
0000
8080
8080
8080
8080
8080
8080
8080
8080
8080
C080
6300
3E00
ENDCHAR
STARTCHAR 01D4
ENCODING 468
SWIDTH 660 0
DWIDTH 11 0
BBX 8 12 2 0
BITMAP
64
38
00
83
83
83
83
83
83
83
C7
7B
ENDCHAR
STARTCHAR 01E4
ENCODING 484
SWIDTH 780 0
DWIDTH 13 0
BBX 12 12 1 0
BITMAP
0F80
30C0
6040
4000
8000
8000
8000
8040
C3F0
4040
30C0
1F80
ENDCHAR
STARTCHAR 01E5
ENCODING 485
SWIDTH 720 0
DWIDTH 12 0
BBX 10 13 1 -4
BITMAP
3C80
4280
8180
8180
8080
8180
8180
4280
3C80
0080
0FC0
C300
3E00
ENDCHAR
STARTCHAR 01E6
ENCODING 486
SWIDTH 780 0
DWIDTH 13 0
BBX 10 15 1 0
BITMAP
0900
0600
0000
0F80
30C0
6040
C000
8000
8000
8040
8040
C040
4040
30C0
1F80
ENDCHAR
STARTCHAR 01E7
ENCODING 487
SWIDTH 660 0
DWIDTH 11 0
BBX 9 16 1 -4
BITMAP
2600
1C00
0000
3C80
6280
C180
8180
8080
8180
8180
4280
3C80
0080
0100
C300
3E00
ENDCHAR
STARTCHAR 01E8
ENCODING 488
SWIDTH 720 0
DWIDTH 12 0
BBX 9 15 2 0
BITMAP
2400
1800
0000
8080
8100
8200
8400
8800
9000
A800
CC00
8600
8300
8180
8080
ENDCHAR
STARTCHAR 01E9
ENCODING 489
SWIDTH 600 0
DWIDTH 10 0
BBX 9 16 0 0
BITMAP
9000
6000
0000
2000
2000
2000
2000
2080
2300
2600
2C00
3C00
3200
2300
2180
2080
ENDCHAR
STARTCHAR 01EA
ENCODING 490
SWIDTH 840 0
DWIDTH 14 0
BBX 12 17 1 -5
BITMAP
1F80
30C0
4060
C030
8010
8010
8010
8010
C030
4020
30C0
1F80
0400
0800
0800
0C00
0600
ENDCHAR
STARTCHAR 01EB
ENCODING 491
SWIDTH 600 0
DWIDTH 10 0
BBX 9 14 1 -5
BITMAP
3C00
6300
8100
8180
8180
8180
8100
6300
3C00
0800
1000
1000
1000
0C00
ENDCHAR
STARTCHAR 01EE
ENCODING 494
SWIDTH 600 0
DWIDTH 10 0
BBX 8 15 1 0
BITMAP
24
18
00
FF
02
04
0C
18
1C
03
01
01
01
C3
7C
ENDCHAR
STARTCHAR 01EF
ENCODING 495
SWIDTH 540 0
DWIDTH 9 0
BBX 8 16 0 -4
BITMAP
64
18
00
FE
02
04
08
18
1C
02
03
01
01
03
C6
7C
ENDCHAR
STARTCHAR 01FA
ENCODING 506
SWIDTH 720 0
DWIDTH 12 0
BBX 12 17 0 1
BITMAP
0500
0B00
0900
0600
0000
0600
0600
0B00
0900
1980
1080
3080
2040
3FC0
4060
4020
C030
ENDCHAR
STARTCHAR 01FB
ENCODING 507
SWIDTH 600 0
DWIDTH 10 0
BBX 7 14 1 1
BITMAP
14
28
28
38
00
7C
C6
02
02
7E
82
82
86
7A
ENDCHAR
STARTCHAR 01FC
ENCODING 508
SWIDTH 1020 0
DWIDTH 17 0
BBX 16 15 0 0
BITMAP
0060
0080
0000
01FF
0280
0280
0480
0C80
08FE
1880
1080
3F80
2080
4080
C0FF
ENDCHAR
STARTCHAR 01FD
ENCODING 509
SWIDTH 960 0
DWIDTH 16 0
BBX 15 12 1 0
BITMAP
0180
0200
0000
7CF0
C78C
0304
0206
7FFE
8200
8300
C784
78F8
ENDCHAR
STARTCHAR 01FE
ENCODING 510
SWIDTH 840 0
DWIDTH 14 0
BBX 12 16 1 -1
BITMAP
0100
0200
0420
0FC0
30C0
60E0
C130
8110
8210
8410
8410
C830
5020
30C0
3F80
4000
ENDCHAR
STARTCHAR 01FF
ENCODING 511
SWIDTH 600 0
DWIDTH 10 0
BBX 9 13 1 -1
BITMAP
0400
0800
0100
3E00
6300
8500
8980
8980
9180
A100
6300
7C00
8000
ENDCHAR
STARTCHAR 0200
ENCODING 512
SWIDTH 720 0
DWIDTH 12 0
BBX 12 15 0 0
BITMAP
1600
0A00
0000
0600
0600
0B00
0900
1980
1080
3080
2040
3FC0
4060
4020
C030
ENDCHAR
STARTCHAR 0201
ENCODING 513
SWIDTH 600 0
DWIDTH 10 0
BBX 7 12 1 0
BITMAP
D0
68
00
7C
C6
02
02
7E
82
82
86
7A
ENDCHAR
STARTCHAR 0202
ENCODING 514
SWIDTH 720 0
DWIDTH 12 0
BBX 12 15 0 0
BITMAP
0F00
1100
0000
0600
0600
0B00
0900
1980
1080
3080
2040
3FC0
4060
4020
C030
ENDCHAR
STARTCHAR 0203
ENCODING 515
SWIDTH 600 0
DWIDTH 10 0
BBX 7 13 1 0
BITMAP
18
64
44
00
7C
C6
02
02
7E
82
82
86
7A
ENDCHAR
STARTCHAR 0204
ENCODING 516
SWIDTH 660 0
DWIDTH 11 0
BBX 8 15 2 0
BITMAP
58
28
00
FF
80
80
80
80
FE
80
80
80
80
80
FF
ENDCHAR
STARTCHAR 0205
ENCODING 517
SWIDTH 600 0
DWIDTH 10 0
BBX 8 12 1 0
BITMAP
58
2C
00
3C
42
81
81
FF
80
80
63
3E
ENDCHAR
STARTCHAR 0206
ENCODING 518
SWIDTH 660 0
DWIDTH 11 0
BBX 8 15 2 0
BITMAP
3C
44
00
FF
80
80
80
80
FE
80
80
80
80
80
FF
ENDCHAR
STARTCHAR 0207
ENCODING 519
SWIDTH 600 0
DWIDTH 10 0
BBX 8 13 1 0
BITMAP
18
24
02
00
3C
42
81
81
FF
80
80
63
3E
ENDCHAR
STARTCHAR 0208
ENCODING 520
SWIDTH 300 0
DWIDTH 5 0
BBX 5 15 -1 0
BITMAP
90
48
00
10
10
10
10
10
10
10
10
10
10
10
10
ENDCHAR
STARTCHAR 0209
ENCODING 521
SWIDTH 240 0
DWIDTH 4 0
BBX 5 12 -1 0
BITMAP
90
48
00
10
10
10
10
10
10
10
10
10
ENDCHAR
STARTCHAR 020A
ENCODING 522
SWIDTH 300 0
DWIDTH 5 0
BBX 5 15 0 0
BITMAP
70
88
00
20
20
20
20
20
20
20
20
20
20
20
20
ENDCHAR
STARTCHAR 020B
ENCODING 523
SWIDTH 240 0
DWIDTH 4 0
BBX 4 13 0 0
BITMAP
60
90
80
00
20
20
20
20
20
20
20
20
20
ENDCHAR
STARTCHAR 020C
ENCODING 524
SWIDTH 840 0
DWIDTH 14 0
BBX 12 15 1 0
BITMAP
1600
0A00
0000
1F80
30C0
4060
C030
8010
8010
8010
8010
C030
4020
30C0
1F80
ENDCHAR
STARTCHAR 020D
ENCODING 525
SWIDTH 600 0
DWIDTH 10 0
BBX 9 12 1 0
BITMAP
4800
2400
0000
3C00
6300
8100
8180
8180
8180
8100
6300
3C00
ENDCHAR
STARTCHAR 020E
ENCODING 526
SWIDTH 840 0
DWIDTH 14 0
BBX 12 15 1 0
BITMAP
0F00
1100
0000
1F80
30C0
4060
C030
8010
8010
8010
8010
C030
4020
30C0
1F80
ENDCHAR
STARTCHAR 020F
ENCODING 527
SWIDTH 600 0
DWIDTH 10 0
BBX 9 13 1 0
BITMAP
1800
2400
2200
0000
3C00
6300
8100
8180
8180
8180
8100
6300
3C00
ENDCHAR
STARTCHAR 0210
ENCODING 528
SWIDTH 720 0
DWIDTH 12 0
BBX 9 15 2 0
BITMAP
4800
2C00
0000
FE00
8300
8180
8080
8080
8180
8300
FE00
8200
8300
8100
8080
ENDCHAR
STARTCHAR 0211
ENCODING 529
SWIDTH 420 0
DWIDTH 7 0
BBX 5 12 1 0
BITMAP
B0
50
00
58
60
40
40
40
40
40
40
40
ENDCHAR
STARTCHAR 0212
ENCODING 530
SWIDTH 720 0
DWIDTH 12 0
BBX 9 15 2 0
BITMAP
3C00
2200
0000
FE00
8300
8180
8080
8080
8180
8300
FE00
8200
8300
8100
8080
ENDCHAR
STARTCHAR 0213
ENCODING 531
SWIDTH 420 0
DWIDTH 7 0
BBX 5 13 1 0
BITMAP
30
48
80
00
58
60
40
40
40
40
40
40
40
ENDCHAR
STARTCHAR 0214
ENCODING 532
SWIDTH 780 0
DWIDTH 13 0
BBX 9 15 2 0
BITMAP
6800
2400
0000
8080
8080
8080
8080
8080
8080
8080
8080
8080
C080
6300
3E00
ENDCHAR
STARTCHAR 0215
ENCODING 533
SWIDTH 660 0
DWIDTH 11 0
BBX 8 12 2 0
BITMAP
D0
48
00
83
83
83
83
83
83
83
C7
7B
ENDCHAR
STARTCHAR 0216
ENCODING 534
SWIDTH 780 0
DWIDTH 13 0
BBX 9 15 2 0
BITMAP
1C00
2200
0000
8080
8080
8080
8080
8080
8080
8080
8080
8080
C080
6300
3E00
ENDCHAR
STARTCHAR 0217
ENCODING 535
SWIDTH 660 0
DWIDTH 11 0
BBX 8 13 2 0
BITMAP
38
44
44
00
83
83
83
83
83
83
83
C7
7B
ENDCHAR
STARTCHAR 0218
ENCODING 536
SWIDTH 600 0
DWIDTH 10 0
BBX 8 16 1 -4
BITMAP
3E
41
80
80
C0
70
0E
01
01
01
C3
7E
00
00
08
08
ENDCHAR
STARTCHAR 0219
ENCODING 537
SWIDTH 480 0
DWIDTH 8 0
BBX 7 13 1 -4
BITMAP
7C
84
80
C0
78
04
06
84
F8
00
00
30
20
ENDCHAR
STARTCHAR 021A
ENCODING 538
SWIDTH 600 0
DWIDTH 10 0
BBX 10 16 0 -4
BITMAP
FFC0
0800
0800
0800
0800
0800
0800
0800
0800
0800
0800
0800
0000
0000
0800
0800
ENDCHAR
STARTCHAR 021B
ENCODING 539
SWIDTH 420 0
DWIDTH 7 0
BBX 6 15 0 -4
BITMAP
20
20
FC
20
20
20
20
20
20
20
1C
00
00
18
08
ENDCHAR
STARTCHAR 021E
ENCODING 542
SWIDTH 840 0
DWIDTH 14 0
BBX 10 15 2 0
BITMAP
1200
0C00
0000
80C0
80C0
80C0
80C0
80C0
FFC0
80C0
80C0
80C0
80C0
80C0
80C0
ENDCHAR
STARTCHAR 021F
ENCODING 543
SWIDTH 660 0
DWIDTH 11 0
BBX 10 16 0 0
BITMAP
9000
6000
0000
2000
2000
2000
2000
2F00
3180
20C0
2040
2040
2040
2040
2040
2040
ENDCHAR
STARTCHAR 022A
ENCODING 554
SWIDTH 840 0
DWIDTH 14 0
BBX 12 16 1 0
BITMAP
1F80
0000
0900
0000
1F80
30C0
4060
C030
8010
8010
8010
8010
C030
4020
30C0
1F80
ENDCHAR
STARTCHAR 022B
ENCODING 555
SWIDTH 600 0
DWIDTH 10 0
BBX 9 14 1 0
BITMAP
3E00
0000
2400
0000
0000
3C00
6300
8100
8180
8180
8180
8100
6300
3C00
ENDCHAR
STARTCHAR 022C
ENCODING 556
SWIDTH 840 0
DWIDTH 14 0
BBX 12 16 1 0
BITMAP
1F80
0C00
1300
0000
1F80
30C0
4060
C030
8010
8010
8010
8010
C030
4020
30C0
1F80
ENDCHAR
STARTCHAR 022D
ENCODING 557
SWIDTH 600 0
DWIDTH 10 0
BBX 9 14 1 0
BITMAP
3E00
0000
3200
0C00
0000
3C00
6300
8100
8180
8180
8180
8100
6300
3C00
ENDCHAR
STARTCHAR 0230
ENCODING 560
SWIDTH 840 0
DWIDTH 14 0
BBX 12 16 1 0
BITMAP
1F80
0000
0600
0000
1F80
30C0
4060
C030
8010
8010
8010
8010
C030
4020
30C0
1F80
ENDCHAR
STARTCHAR 0231
ENCODING 561
SWIDTH 600 0
DWIDTH 10 0
BBX 9 14 1 0
BITMAP
3E00
0000
0800
0000
0000
3C00
6300
8100
8180
8180
8180
8100
6300
3C00
ENDCHAR
STARTCHAR 0232
ENCODING 562
SWIDTH 660 0
DWIDTH 11 0
BBX 10 14 0 0
BITMAP
1F00
0000
C040
40C0
6080
2100
1100
1A00
0E00
0C00
0400
0400
0400
0400
ENDCHAR
STARTCHAR 0233
ENCODING 563
SWIDTH 540 0
DWIDTH 9 0
BBX 9 16 0 -4
BITMAP
3E00
0000
0000
8080
4100
4100
6300
2200
2200
1400
1400
0C00
0800
0800
1000
E000
ENDCHAR
STARTCHAR 0237
ENCODING 567
SWIDTH 300 0
DWIDTH 5 0
BBX 4 13 -1 -4
BITMAP
10
10
10
10
10
10
10
10
10
10
10
30
E0
ENDCHAR
STARTCHAR 0259
ENCODING 601
SWIDTH 600 0
DWIDTH 10 0
BBX 8 9 1 0
BITMAP
3C
C6
01
01
FF
81
81
42
3C
ENDCHAR
STARTCHAR 0292
ENCODING 658
SWIDTH 540 0
DWIDTH 9 0
BBX 8 13 0 -4
BITMAP
FE
02
04
08
18
1C
02
03
01
01
03
C6
7C
ENDCHAR
STARTCHAR 02B9
ENCODING 697
SWIDTH 180 0
DWIDTH 3 0
BBX 1 4 1 8
BITMAP
80
80
80
80
ENDCHAR
STARTCHAR 02BA
ENCODING 698
SWIDTH 360 0
DWIDTH 6 0
BBX 4 4 1 8
BITMAP
90
90
90
90
ENDCHAR
STARTCHAR 02BB
ENCODING 699
SWIDTH 240 0
DWIDTH 4 0
BBX 2 4 1 10
BITMAP
40
40
C0
C0
ENDCHAR
STARTCHAR 02BC
ENCODING 700
SWIDTH 180 0
DWIDTH 3 0
BBX 1 4 1 8
BITMAP
80
80
80
80
ENDCHAR
STARTCHAR 02BE
ENCODING 702
SWIDTH 600 0
DWIDTH 10 0
BBX 2 4 5 10
BITMAP
80
40
40
80
ENDCHAR
STARTCHAR 02BF
ENCODING 703
SWIDTH 600 0
DWIDTH 10 0
BBX 2 4 3 10
BITMAP
40
80
80
40
ENDCHAR
STARTCHAR 02C6
ENCODING 710
SWIDTH 600 0
DWIDTH 10 0
BBX 4 2 3 10
BITMAP
60
90
ENDCHAR
STARTCHAR 02C7
ENCODING 711
SWIDTH 600 0
DWIDTH 10 0
BBX 4 2 3 10
BITMAP
90
60
ENDCHAR
STARTCHAR 02C8
ENCODING 712
SWIDTH 180 0
DWIDTH 3 0
BBX 1 3 1 9
BITMAP
80
80
80
ENDCHAR
STARTCHAR 02C9
ENCODING 713
SWIDTH 600 0
DWIDTH 10 0
BBX 6 1 2 11
BITMAP
FC
ENDCHAR
STARTCHAR 02CA
ENCODING 714
SWIDTH 600 0
DWIDTH 10 0
BBX 3 2 4 10
BITMAP
20
C0
ENDCHAR
STARTCHAR 02CB
ENCODING 715
SWIDTH 600 0
DWIDTH 10 0
BBX 3 2 3 10
BITMAP
80
60
ENDCHAR
STARTCHAR 02CC
ENCODING 716
SWIDTH 180 0
DWIDTH 3 0
BBX 1 3 1 -4
BITMAP
80
80
80
ENDCHAR
STARTCHAR 02D8
ENCODING 728
SWIDTH 600 0
DWIDTH 10 0
BBX 5 2 2 10
BITMAP
88
78
ENDCHAR
STARTCHAR 02D9
ENCODING 729
SWIDTH 600 0
DWIDTH 10 0
BBX 2 1 4 10
BITMAP
C0
ENDCHAR
STARTCHAR 02DA
ENCODING 730
SWIDTH 600 0
DWIDTH 10 0
BBX 4 4 3 10
BITMAP
60
90
90
60
ENDCHAR
STARTCHAR 02DB
ENCODING 731
SWIDTH 600 0
DWIDTH 10 0
BBX 3 5 2 -5
BITMAP
60
80
80
80
60
ENDCHAR
STARTCHAR 02DC
ENCODING 732
SWIDTH 600 0
DWIDTH 10 0
BBX 6 3 2 10
BITMAP
64
A8
18
ENDCHAR
STARTCHAR 02DD
ENCODING 733
SWIDTH 600 0
DWIDTH 10 0
BBX 4 2 4 10
BITMAP
D0
A0
ENDCHAR
STARTCHAR 0300
ENCODING 768
SWIDTH 0 0
DWIDTH 0 0
BBX 3 2 -7 10
BITMAP
80
60
ENDCHAR
STARTCHAR 0301
ENCODING 769
SWIDTH 0 0
DWIDTH 0 0
BBX 3 2 -6 10
BITMAP
20
C0
ENDCHAR
STARTCHAR 0302
ENCODING 770
SWIDTH 0 0
DWIDTH 0 0
BBX 4 2 -7 10
BITMAP
60
90
ENDCHAR
STARTCHAR 0303
ENCODING 771
SWIDTH 0 0
DWIDTH 0 0
BBX 6 3 -8 10
BITMAP
64
A8
18
ENDCHAR
STARTCHAR 0304
ENCODING 772
SWIDTH 0 0
DWIDTH 0 0
BBX 6 1 -8 11
BITMAP
FC
ENDCHAR
STARTCHAR 0306
ENCODING 774
SWIDTH 0 0
DWIDTH 0 0
BBX 5 2 -8 10
BITMAP
88
78
ENDCHAR
STARTCHAR 0307
ENCODING 775
SWIDTH 0 0
DWIDTH 0 0
BBX 2 1 -6 10
BITMAP
C0
ENDCHAR
STARTCHAR 0308
ENCODING 776
SWIDTH 0 0
DWIDTH 0 0
BBX 4 1 -7 11
BITMAP
90
ENDCHAR
STARTCHAR 0309
ENCODING 777
SWIDTH 0 0
DWIDTH 0 0
BBX 3 3 -6 10
BITMAP
C0
20
40
ENDCHAR
STARTCHAR 030A
ENCODING 778
SWIDTH 0 0
DWIDTH 0 0
BBX 4 4 -7 10
BITMAP
40
B0
90
60
ENDCHAR
STARTCHAR 030B
ENCODING 779
SWIDTH 0 0
DWIDTH 0 0
BBX 5 2 -7 10
BITMAP
68
D0
ENDCHAR
STARTCHAR 030C
ENCODING 780
SWIDTH 0 0
DWIDTH 0 0
BBX 4 2 -7 10
BITMAP
90
60
ENDCHAR
STARTCHAR 030F
ENCODING 783
SWIDTH 0 0
DWIDTH 0 0
BBX 4 2 -8 10
BITMAP
B0
50
ENDCHAR
STARTCHAR 0311
ENCODING 785
SWIDTH 0 0
DWIDTH 0 0
BBX 5 2 -8 10
BITMAP
78
88
ENDCHAR
STARTCHAR 0312
ENCODING 786
SWIDTH 0 0
DWIDTH 0 0
BBX 2 3 -6 10
BITMAP
40
80
C0
ENDCHAR
STARTCHAR 031B
ENCODING 795
SWIDTH 0 0
DWIDTH 0 0
BBX 2 3 -5 8
BITMAP
40
40
80
ENDCHAR
STARTCHAR 0323
ENCODING 803
SWIDTH 0 0
DWIDTH 0 0
BBX 2 1 -6 -3
BITMAP
C0
ENDCHAR
STARTCHAR 0324
ENCODING 804
SWIDTH 0 0
DWIDTH 0 0
BBX 4 1 -7 -3
BITMAP
90
ENDCHAR
STARTCHAR 0326
ENCODING 806
SWIDTH 0 0
DWIDTH 0 0
BBX 2 3 -6 -5
BITMAP
C0
80
80
ENDCHAR
STARTCHAR 0327
ENCODING 807
SWIDTH 0 0
DWIDTH 0 0
BBX 3 4 -7 -4
BITMAP
60
20
A0
60
ENDCHAR
STARTCHAR 0328
ENCODING 808
SWIDTH 0 0
DWIDTH 0 0
BBX 3 5 -8 -5
BITMAP
60
80
80
80
60
ENDCHAR
STARTCHAR 032E
ENCODING 814
SWIDTH 0 0
DWIDTH 0 0
BBX 5 2 -8 -4
BITMAP
88
78
ENDCHAR
STARTCHAR 0331
ENCODING 817
SWIDTH 0 0
DWIDTH 0 0
BBX 6 1 -8 -3
BITMAP
FC
ENDCHAR
STARTCHAR 0335
ENCODING 821
SWIDTH 0 0
DWIDTH 0 0
BBX 6 1 -8 7
BITMAP
FC
ENDCHAR
STARTCHAR 0336
ENCODING 822
SWIDTH 0 0
DWIDTH 0 0
BBX 14 1 -14 7
BITMAP
FFFC
ENDCHAR
STARTCHAR 0337
ENCODING 823
SWIDTH 0 0
DWIDTH 0 0
BBX 4 3 -5 4
BITMAP
10
60
C0
ENDCHAR
STARTCHAR 0338
ENCODING 824
SWIDTH 0 0
DWIDTH 0 0
BBX 8 11 -9 -1
BITMAP
01
02
04
04
08
10
10
20
40
40
80
ENDCHAR
STARTCHAR 0394
ENCODING 916
SWIDTH 720 0
DWIDTH 12 0
BBX 12 12 0 0
BITMAP
0600
0600
0B00
0900
1980
1080
3080
2040
2040
4020
4020
FFF0
ENDCHAR
STARTCHAR 03A9
ENCODING 937
SWIDTH 900 0
DWIDTH 15 0
BBX 15 12 0 0
BITMAP
07C0
1830
3018
2008
2008
600C
600C
2008
2008
3018
1830
FC7E
ENDCHAR
STARTCHAR 03BC
ENCODING 956
SWIDTH 660 0
DWIDTH 11 0
BBX 8 13 2 -4
BITMAP
83
83
83
83
83
83
83
C5
B9
80
80
80
80
ENDCHAR
STARTCHAR 03C0
ENCODING 960
SWIDTH 720 0
DWIDTH 12 0
BBX 12 9 0 0
BITMAP
7FF0
8880
8880
8880
1880
1880
1080
1080
1080
ENDCHAR
STARTCHAR 0400
ENCODING 1024
SWIDTH 660 0
DWIDTH 11 0
BBX 8 15 2 0
BITMAP
20
10
08
FF
80
80
80
80
FE
80
80
80
80
80
FF
ENDCHAR
STARTCHAR 0401
ENCODING 1025
SWIDTH 660 0
DWIDTH 11 0
BBX 8 15 2 0
BITMAP
24
00
00
FF
80
80
80
80
FE
80
80
80
80
80
FF
ENDCHAR
STARTCHAR 0402
ENCODING 1026
SWIDTH 840 0
DWIDTH 14 0
BBX 13 12 0 0
BITMAP
FFC0
0C00
0C00
0C00
0C00
0FE0
0C18
0C08
0C08
0C08
0C10
0CE0
ENDCHAR
STARTCHAR 0403
ENCODING 1027
SWIDTH 600 0
DWIDTH 10 0
BBX 7 15 2 0
BITMAP
0C
10
00
FE
80
80
80
80
80
80
80
80
80
80
80
ENDCHAR
STARTCHAR 0404
ENCODING 1028
SWIDTH 720 0
DWIDTH 12 0
BBX 10 12 1 0
BITMAP
1F00
30C0
6040
4000
C000
8000
FE00
8000
C000
4000
30C0
1F00
ENDCHAR
STARTCHAR 0405
ENCODING 1029
SWIDTH 600 0
DWIDTH 10 0
BBX 9 12 1 0
BITMAP
3E00
4100
C000
8000
C000
7800
0E00
0100
0180
0100
C300
3E00
ENDCHAR
STARTCHAR 0406
ENCODING 1030
SWIDTH 300 0
DWIDTH 5 0
BBX 1 12 2 0
BITMAP
80
80
80
80
80
80
80
80
80
80
80
80
ENDCHAR
STARTCHAR 0407
ENCODING 1031
SWIDTH 300 0
DWIDTH 5 0
BBX 5 15 0 0
BITMAP
D8
00
00
20
20
20
20
20
20
20
20
20
20
20
20
ENDCHAR
STARTCHAR 0408
ENCODING 1032
SWIDTH 540 0
DWIDTH 9 0
BBX 7 12 0 0
BITMAP
7E
02
02
02
02
02
02
02
02
02
C6
3C
ENDCHAR
STARTCHAR 0409
ENCODING 1033
SWIDTH 1200 0
DWIDTH 20 0
BBX 19 12 0 0
BITMAP
1FE000
102000
102000
102000
103F80
102040
102020
102020
102020
302060
202040
E03F80
ENDCHAR
STARTCHAR 040A
ENCODING 1034
SWIDTH 1200 0
DWIDTH 20 0
BBX 17 12 2 0
BITMAP
808000
808000
808000
808000
808000
FFFE00
808180
808080
808080
808080
808100
80FE00
ENDCHAR
STARTCHAR 040B
ENCODING 1035
SWIDTH 840 0
DWIDTH 14 0
BBX 13 12 0 0
BITMAP
FFC0
0C00
0C00
0C00
0C00
0FE0
0C10
0C08
0C08
0C08
0C08
0C08
ENDCHAR
STARTCHAR 040C
ENCODING 1036
SWIDTH 720 0
DWIDTH 12 0
BBX 9 15 2 0
BITMAP
0400
1800
0000
8180
8100
8200
8400
8C00
F800
8C00
8400
8200
8300
8100
8080
ENDCHAR
STARTCHAR 040D
ENCODING 1037
SWIDTH 840 0
DWIDTH 14 0
BBX 10 15 2 0
BITMAP
1000
0800
0000
80C0
80C0
8140
8240
8640
8440
8840
9040
B040
A040
C040
8040
ENDCHAR
STARTCHAR 040E
ENCODING 1038
SWIDTH 660 0
DWIDTH 11 0
BBX 10 15 1 0
BITMAP
2200
1C00
0000
8040
8080
4080
4100
2100
2200
1200
1400
0C00
0800
1000
E000
ENDCHAR
STARTCHAR 040F
ENCODING 1039
SWIDTH 780 0
DWIDTH 13 0
BBX 9 15 2 -3
BITMAP
8080
8080
8080
8080
8080
8080
8080
8080
8080
8080
8080
FF80
0800
0800
0800
ENDCHAR
STARTCHAR 0410
ENCODING 1040
SWIDTH 720 0
DWIDTH 12 0
BBX 12 12 0 0
BITMAP
0600
0600
0D00
0900
0880
1080
10C0
3040
3FE0
6020
4020
C010
ENDCHAR
STARTCHAR 0411
ENCODING 1041
SWIDTH 720 0
DWIDTH 12 0
BBX 9 12 2 0
BITMAP
FF80
8000
8000
8000
8000
FF00
8180
8080
8080
8080
8180
FE00
ENDCHAR
STARTCHAR 0412
ENCODING 1042
SWIDTH 720 0
DWIDTH 12 0
BBX 9 12 2 0
BITMAP
FE00
8100
8180
8180
8100
FE00
8180
8080
8080
8080
8180
FF00
ENDCHAR
STARTCHAR 0413
ENCODING 1043
SWIDTH 600 0
DWIDTH 10 0
BBX 7 12 2 0
BITMAP
FE
80
80
80
80
80
80
80
80
80
80
80
ENDCHAR
STARTCHAR 0414
ENCODING 1044
SWIDTH 780 0
DWIDTH 13 0
BBX 13 15 0 -3
BITMAP
1FE0
1020
1020
1020
1020
1020
1020
1020
1020
2020
2020
FFF8
8008
8008
8008
ENDCHAR
STARTCHAR 0415
ENCODING 1045
SWIDTH 660 0
DWIDTH 11 0
BBX 8 12 2 0
BITMAP
FF
80
80
80
80
FE
80
80
80
80
80
FF
ENDCHAR
STARTCHAR 0416
ENCODING 1046
SWIDTH 1020 0
DWIDTH 17 0
BBX 15 12 1 0
BITMAP
8106
4104
6108
2118
1110
1FF0
1110
3118
2108
4104
C106
8102
ENDCHAR
STARTCHAR 0417
ENCODING 1047
SWIDTH 660 0
DWIDTH 11 0
BBX 8 12 1 0
BITMAP
7C
82
01
01
03
3C
03
01
01
01
C3
7C
ENDCHAR
STARTCHAR 0418
ENCODING 1048
SWIDTH 840 0
DWIDTH 14 0
BBX 10 12 2 0
BITMAP
80C0
80C0
8140
8240
8640
8440
8840
9040
B040
A040
C040
8040
ENDCHAR
STARTCHAR 0419
ENCODING 1049
SWIDTH 840 0
DWIDTH 14 0
BBX 10 15 2 0
BITMAP
2200
1E00
0000
80C0
80C0
8140
8240
8640
8440
8840
9040
B040
A040
C040
8040
ENDCHAR
STARTCHAR 041A
ENCODING 1050
SWIDTH 720 0
DWIDTH 12 0
BBX 9 12 2 0
BITMAP
8180
8100
8200
8400
8C00
F800
8C00
8400
8200
8300
8100
8080
ENDCHAR
STARTCHAR 041B
ENCODING 1051
SWIDTH 780 0
DWIDTH 13 0
BBX 11 12 0 0
BITMAP
1FE0
1020
1020
1020
1020
1020
1020
1020
1020
3020
2020
E020
ENDCHAR
STARTCHAR 041C
ENCODING 1052
SWIDTH 960 0
DWIDTH 16 0
BBX 12 12 2 0
BITMAP
8010
C030
C030
A050
B050
9090
9990
8910
8610
8610
8010
8010
ENDCHAR
STARTCHAR 041D
ENCODING 1053
SWIDTH 840 0
DWIDTH 14 0
BBX 10 12 2 0
BITMAP
80C0
80C0
80C0
80C0
80C0
FFC0
80C0
80C0
80C0
80C0
80C0
80C0
ENDCHAR
STARTCHAR 041E
ENCODING 1054
SWIDTH 840 0
DWIDTH 14 0
BBX 12 12 1 0
BITMAP
0F80
30C0
6020
C030
8010
8010
8010
8010
C030
6020
30C0
0F80
ENDCHAR
STARTCHAR 041F
ENCODING 1055
SWIDTH 840 0
DWIDTH 14 0
BBX 10 12 2 0
BITMAP
FFC0
8040
8040
8040
8040
8040
8040
8040
8040
8040
8040
8040
ENDCHAR
STARTCHAR 0420
ENCODING 1056
SWIDTH 720 0
DWIDTH 12 0
BBX 9 12 2 0
BITMAP
FE00
8300
8180
8080
8080
8080
8100
FE00
8000
8000
8000
8000
ENDCHAR
STARTCHAR 0421
ENCODING 1057
SWIDTH 720 0
DWIDTH 12 0
BBX 10 12 1 0
BITMAP
0F80
30C0
6040
4000
8000
8000
8000
8000
C000
6000
30C0
1F80
ENDCHAR
STARTCHAR 0422
ENCODING 1058
SWIDTH 600 0
DWIDTH 10 0
BBX 10 12 0 0
BITMAP
FFC0
0C00
0C00
0C00
0C00
0C00
0C00
0C00
0C00
0C00
0C00
0C00
ENDCHAR
STARTCHAR 0423
ENCODING 1059
SWIDTH 660 0
DWIDTH 11 0
BBX 10 12 1 0
BITMAP
8040
8080
4080
4100
2100
2200
1200
1400
0C00
0800
1000
E000
ENDCHAR
STARTCHAR 0424
ENCODING 1060
SWIDTH 900 0
DWIDTH 15 0
BBX 13 12 1 0
BITMAP
0200
1FC0
6230
C218
8208
8208
8208
8208
C218
6230
1FC0
0200
ENDCHAR
STARTCHAR 0425
ENCODING 1061
SWIDTH 660 0
DWIDTH 11 0
BBX 9 12 1 0
BITMAP
8180
4100
6200
3600
1400
1800
1C00
3400
2200
6300
C100
8080
ENDCHAR
STARTCHAR 0426
ENCODING 1062
SWIDTH 840 0
DWIDTH 14 0
BBX 11 15 2 -3
BITMAP
8080
8080
8080
8080
8080
8080
8080
8080
8080
8080
8080
FFE0
0020
0020
0020
ENDCHAR
STARTCHAR 0427
ENCODING 1063
SWIDTH 720 0
DWIDTH 12 0
BBX 9 12 1 0
BITMAP
8080
8080
8080
8080
8080
C080
6180
3E80
0080
0080
0080
0080
ENDCHAR
STARTCHAR 0428
ENCODING 1064
SWIDTH 1080 0
DWIDTH 18 0
BBX 14 12 2 0
BITMAP
8104
8104
8104
8104
8104
8104
8104
8104
8104
8104
8104
FFFC
ENDCHAR
STARTCHAR 0429
ENCODING 1065
SWIDTH 1140 0
DWIDTH 19 0
BBX 16 15 2 -3
BITMAP
8104
8104
8104
8104
8104
8104
8104
8104
8104
8104
8104
FFFF
0001
0001
0001
ENDCHAR
STARTCHAR 042A
ENCODING 1066
SWIDTH 840 0
DWIDTH 14 0
BBX 13 12 0 0
BITMAP
F800
0800
0800
0800
0FE0
0810
0818
0808
0808
0818
0810
0FE0
ENDCHAR
STARTCHAR 042B
ENCODING 1067
SWIDTH 960 0
DWIDTH 16 0
BBX 12 12 2 0
BITMAP
8010
8010
8010
8010
FE10
8110
8090
8090
8090
8090
8110
FE10
ENDCHAR
STARTCHAR 042C
ENCODING 1068
SWIDTH 720 0
DWIDTH 12 0
BBX 9 12 2 0
BITMAP
8000
8000
8000
8000
FE00
8100
8080
8080
8080
8080
8100
FE00
ENDCHAR
STARTCHAR 042D
ENCODING 1069
SWIDTH 720 0
DWIDTH 12 0
BBX 10 12 1 0
BITMAP
7C00
C300
8180
0080
0080
00C0
1FC0
00C0
0080
0180
C300
7C00
ENDCHAR
STARTCHAR 042E
ENCODING 1070
SWIDTH 1080 0
DWIDTH 18 0
BBX 15 12 2 0
BITMAP
81F0
8618
8C04
8806
8802
F802
8802
8802
8806
8404
8318
81F0
ENDCHAR
STARTCHAR 042F
ENCODING 1071
SWIDTH 720 0
DWIDTH 12 0
BBX 9 12 1 0
BITMAP
3F80
6080
C080
8080
8080
C080
6080
3F80
3080
2080
4080
C080
ENDCHAR
STARTCHAR 0430
ENCODING 1072
SWIDTH 600 0
DWIDTH 10 0
BBX 7 9 1 0
BITMAP
7C
C6
02
02
7E
82
82
86
7A
ENDCHAR
STARTCHAR 0431
ENCODING 1073
SWIDTH 660 0
DWIDTH 11 0
BBX 9 13 1 0
BITMAP
0780
3800
6000
4000
DE00
A300
C180
C080
C080
C080
4180
6100
1E00
ENDCHAR
STARTCHAR 0432
ENCODING 1074
SWIDTH 600 0
DWIDTH 10 0
BBX 7 9 2 0
BITMAP
FC
86
82
84
FC
82
82
82
FC
ENDCHAR
STARTCHAR 0433
ENCODING 1075
SWIDTH 480 0
DWIDTH 8 0
BBX 6 9 2 0
BITMAP
FC
80
80
80
80
80
80
80
80
ENDCHAR
STARTCHAR 0434
ENCODING 1076
SWIDTH 660 0
DWIDTH 11 0
BBX 10 11 0 -2
BITMAP
3F80
2080
2080
2080
2080
2080
2080
6080
FFC0
8040
8040
ENDCHAR
STARTCHAR 0435
ENCODING 1077
SWIDTH 600 0
DWIDTH 10 0
BBX 8 9 1 0
BITMAP
3C
42
81
81
FF
80
C0
63
3E
ENDCHAR
STARTCHAR 0436
ENCODING 1078
SWIDTH 840 0
DWIDTH 14 0
BBX 12 9 1 0
BITMAP
8410
4420
4460
2440
3F80
2440
4460
C420
8410
ENDCHAR
STARTCHAR 0437
ENCODING 1079
SWIDTH 540 0
DWIDTH 9 0
BBX 7 9 1 0
BITMAP
78
84
06
04
38
06
02
86
F8
ENDCHAR
STARTCHAR 0438
ENCODING 1080
SWIDTH 660 0
DWIDTH 11 0
BBX 8 9 2 0
BITMAP
83
87
85
89
91
B1
E1
C1
81
ENDCHAR
STARTCHAR 0439
ENCODING 1081
SWIDTH 660 0
DWIDTH 11 0
BBX 8 12 2 0
BITMAP
44
38
00
83
87
85
89
91
B1
E1
C1
81
ENDCHAR
STARTCHAR 043A
ENCODING 1082
SWIDTH 600 0
DWIDTH 10 0
BBX 7 9 2 0
BITMAP
82
84
88
90
F0
98
88
84
82
ENDCHAR
STARTCHAR 043B
ENCODING 1083
SWIDTH 660 0
DWIDTH 11 0
BBX 9 9 0 0
BITMAP
3F80
2080
2080
2080
2080
2080
2080
6080
C080
ENDCHAR
STARTCHAR 043C
ENCODING 1084
SWIDTH 780 0
DWIDTH 13 0
BBX 9 9 2 0
BITMAP
8080
C080
C180
A280
A280
9480
9C80
8880
8080
ENDCHAR
STARTCHAR 043D
ENCODING 1085
SWIDTH 660 0
DWIDTH 11 0
BBX 8 9 2 0
BITMAP
83
83
83
83
FF
83
83
83
83
ENDCHAR
STARTCHAR 043E
ENCODING 1086
SWIDTH 660 0
DWIDTH 11 0
BBX 9 9 1 0
BITMAP
3C00
6300
C100
8180
8080
8180
C100
6300
3C00
ENDCHAR
STARTCHAR 043F
ENCODING 1087
SWIDTH 660 0
DWIDTH 11 0
BBX 8 9 2 0
BITMAP
FF
83
83
83
83
83
83
83
83
ENDCHAR
STARTCHAR 0440
ENCODING 1088
SWIDTH 660 0
DWIDTH 11 0
BBX 9 13 2 -4
BITMAP
BC00
C300
8100
8100
8180
8100
8100
C300
BC00
8000
8000
8000
8000
ENDCHAR
STARTCHAR 0441
ENCODING 1089
SWIDTH 540 0
DWIDTH 9 0
BBX 8 9 1 0
BITMAP
3C
63
C0
80
80
80
C0
63
3C
ENDCHAR
STARTCHAR 0442
ENCODING 1090
SWIDTH 480 0
DWIDTH 8 0
BBX 8 9 0 0
BITMAP
FF
18
18
18
18
18
18
18
18
ENDCHAR
STARTCHAR 0443
ENCODING 1091
SWIDTH 540 0
DWIDTH 9 0
BBX 9 13 0 -4
BITMAP
C080
4180
4100
2100
2200
3200
1400
1400
0C00
0800
0800
1000
E000
ENDCHAR
STARTCHAR 0444
ENCODING 1092
SWIDTH 780 0
DWIDTH 13 0
BBX 11 17 1 -4
BITMAP
0400
0400
0400
0400
3F80
64C0
C420
8420
8420
8420
C420
64C0
3F80
0400
0400
0400
0400
ENDCHAR
STARTCHAR 0445
ENCODING 1093
SWIDTH 540 0
DWIDTH 9 0
BBX 7 9 1 0
BITMAP
82
44
68
38
10
28
4C
C4
82
ENDCHAR
STARTCHAR 0446
ENCODING 1094
SWIDTH 660 0
DWIDTH 11 0
BBX 9 11 2 -2
BITMAP
8200
8200
8200
8200
8200
8200
8200
8200
FF80
0080
0080
ENDCHAR
STARTCHAR 0447
ENCODING 1095
SWIDTH 600 0
DWIDTH 10 0
BBX 7 9 1 0
BITMAP
82
82
82
82
C2
7E
02
02
02
ENDCHAR
STARTCHAR 0448
ENCODING 1096
SWIDTH 900 0
DWIDTH 15 0
BBX 12 9 2 0
BITMAP
8410
8410
8410
8410
8410
8410
8410
8410
FFF0
ENDCHAR
STARTCHAR 0449
ENCODING 1097
SWIDTH 900 0
DWIDTH 15 0
BBX 13 11 2 -2
BITMAP
8410
8410
8410
8410
8410
8410
8410
8410
FFF8
0008
0008
ENDCHAR
STARTCHAR 044A
ENCODING 1098
SWIDTH 600 0
DWIDTH 10 0
BBX 10 9 0 0
BITMAP
F000
1000
1000
1F00
1080
1040
1040
1080
1F00
ENDCHAR
STARTCHAR 044B
ENCODING 1099
SWIDTH 780 0
DWIDTH 13 0
BBX 9 9 2 0
BITMAP
8080
8080
8080
F880
8480
8680
8280
8480
F880
ENDCHAR
STARTCHAR 044C
ENCODING 1100
SWIDTH 540 0
DWIDTH 9 0
BBX 7 9 2 0
BITMAP
80
80
80
F8
84
82
82
84
FC
ENDCHAR
STARTCHAR 044D
ENCODING 1101
SWIDTH 600 0
DWIDTH 10 0
BBX 8 9 1 0
BITMAP
78
86
02
03
3F
03
02
86
78
ENDCHAR
STARTCHAR 044E
ENCODING 1102
SWIDTH 840 0
DWIDTH 14 0
BBX 12 9 2 0
BITMAP
8780
8C60
9820
9020
F030
9020
9820
8C60
8780
ENDCHAR
STARTCHAR 044F
ENCODING 1103
SWIDTH 600 0
DWIDTH 10 0
BBX 7 9 1 0
BITMAP
7E
C2
82
82
C2
7E
22
42
C2
ENDCHAR
STARTCHAR 0450
ENCODING 1104
SWIDTH 600 0
DWIDTH 10 0
BBX 8 12 1 0
BITMAP
30
18
00
3C
42
81
81
FF
80
C0
63
3E
ENDCHAR
STARTCHAR 0451
ENCODING 1105
SWIDTH 600 0
DWIDTH 10 0
BBX 8 12 1 0
BITMAP
24
00
00
3C
42
81
81
FF
80
C0
63
3E
ENDCHAR
STARTCHAR 0452
ENCODING 1106
SWIDTH 660 0
DWIDTH 11 0
BBX 10 17 0 -4
BITMAP
2000
FE00
2000
2000
2F00
3080
20C0
2040
2040
2040
2040
2040
2040
0040
0040
0080
0780
ENDCHAR
STARTCHAR 0453
ENCODING 1107
SWIDTH 480 0
DWIDTH 8 0
BBX 6 12 2 0
BITMAP
18
30
00
FC
80
80
80
80
80
80
80
80
ENDCHAR
STARTCHAR 0454
ENCODING 1108
SWIDTH 600 0
DWIDTH 10 0
BBX 8 9 1 0
BITMAP
3E
61
C0
80
FC
80
C0
61
3E
ENDCHAR
STARTCHAR 0455
ENCODING 1109
SWIDTH 540 0
DWIDTH 9 0
BBX 7 9 1 0
BITMAP
7C
C0
80
C0
7C
06
02
86
7C
ENDCHAR
STARTCHAR 0456
ENCODING 1110
SWIDTH 300 0
DWIDTH 5 0
BBX 2 13 1 0
BITMAP
C0
40
00
00
40
40
40
40
40
40
40
40
40
ENDCHAR
STARTCHAR 0457
ENCODING 1111
SWIDTH 240 0
DWIDTH 4 0
BBX 4 12 0 0
BITMAP
D0
00
00
20
20
20
20
20
20
20
20
20
ENDCHAR
STARTCHAR 0458
ENCODING 1112
SWIDTH 300 0
DWIDTH 5 0
BBX 4 17 -1 -4
BITMAP
10
10
00
00
10
10
10
10
10
10
10
10
10
10
10
30
E0
ENDCHAR
STARTCHAR 0459
ENCODING 1113
SWIDTH 900 0
DWIDTH 15 0
BBX 15 9 0 0
BITMAP
3F80
2080
2080
20F8
2084
2082
2082
6084
C0FC
ENDCHAR
STARTCHAR 045A
ENCODING 1114
SWIDTH 960 0
DWIDTH 16 0
BBX 13 9 2 0
BITMAP
8200
8200
8200
8200
FFF0
8208
8208
8208
83F0
ENDCHAR
STARTCHAR 045B
ENCODING 1115
SWIDTH 660 0
DWIDTH 11 0
BBX 11 13 -1 0
BITMAP
1000
FF00
1000
1000
1780
1840
1060
1020
1020
1020
1020
1020
1020
ENDCHAR
STARTCHAR 045C
ENCODING 1116
SWIDTH 600 0
DWIDTH 10 0
BBX 7 12 2 0
BITMAP
08
30
00
82
84
88
90
F0
98
88
84
82
ENDCHAR
STARTCHAR 045D
ENCODING 1117
SWIDTH 660 0
DWIDTH 11 0
BBX 8 12 2 0
BITMAP
20
10
00
83
87
85
89
91
B1
E1
C1
81
ENDCHAR
STARTCHAR 045E
ENCODING 1118
SWIDTH 540 0
DWIDTH 9 0
BBX 9 16 0 -4
BITMAP
2200
1C00
0000
C080
4180
4100
2100
2200
3200
1400
1400
0C00
0800
0800
1000
E000
ENDCHAR
STARTCHAR 045F
ENCODING 1119
SWIDTH 660 0
DWIDTH 11 0
BBX 7 11 2 -2
BITMAP
82
82
82
82
82
82
82
82
FE
10
10
ENDCHAR
STARTCHAR 0462
ENCODING 1122
SWIDTH 780 0
DWIDTH 13 0
BBX 13 13 0 0
BITMAP
1800
1800
FF00
1800
1800
1FE0
1830
1810
1818
1818
1810
1830
1FE0
ENDCHAR
STARTCHAR 0463
ENCODING 1123
SWIDTH 600 0
DWIDTH 10 0
BBX 9 13 0 0
BITMAP
2000
2000
2000
FE00
2000
2000
2000
3F00
2080
2080
2080
2080
3F00
ENDCHAR
STARTCHAR 046A
ENCODING 1130
SWIDTH 900 0
DWIDTH 15 0
BBX 13 12 1 0
BITMAP
7FF0
6020
2060
10C0
0880
0500
1FC0
2260
4230
4210
8218
8208
ENDCHAR
STARTCHAR 046B
ENCODING 1131
SWIDTH 660 0
DWIDTH 11 0
BBX 10 9 1 0
BITMAP
FF80
4100
2200
1400
3E00
4900
C880
8880
8840
ENDCHAR
STARTCHAR 0472
ENCODING 1138
SWIDTH 840 0
DWIDTH 14 0
BBX 12 12 1 0
BITMAP
1F80
30C0
4020
C030
8010
FFF0
8010
8010
4030
6060
30C0
0F80
ENDCHAR
STARTCHAR 0473
ENCODING 1139
SWIDTH 660 0
DWIDTH 11 0
BBX 9 9 1 0
BITMAP
3E00
4300
8180
8080
FF80
8080
C100
4300
3E00
ENDCHAR
STARTCHAR 0474
ENCODING 1140
SWIDTH 720 0
DWIDTH 12 0
BBX 11 12 1 0
BITMAP
8060
80C0
C180
4100
4100
2300
2200
3200
1600
1400
0C00
0C00
ENDCHAR
STARTCHAR 0475
ENCODING 1141
SWIDTH 600 0
DWIDTH 10 0
BBX 10 9 0 0
BITMAP
C1C0
4100
6300
2200
2200
1600
1400
1C00
0800
ENDCHAR
STARTCHAR 048A
ENCODING 1162
SWIDTH 840 0
DWIDTH 14 0
BBX 11 18 2 -3
BITMAP
2200
1E00
0000
80C0
80C0
8140
8240
8640
8440
8840
9040
B040
A040
C040
8060
0020
0020
0040
ENDCHAR
STARTCHAR 048B
ENCODING 1163
SWIDTH 720 0
DWIDTH 12 0
BBX 9 14 2 -2
BITMAP
4400
3800
0000
8300
8700
8500
8900
9100
B100
E100
C100
8180
0080
0100
ENDCHAR
STARTCHAR 048C
ENCODING 1164
SWIDTH 720 0
DWIDTH 12 0
BBX 11 13 1 0
BITMAP
6000
6000
FC00
6000
6000
7F80
60C0
6040
6060
6040
6040
60C0
7F80
ENDCHAR
STARTCHAR 048D
ENCODING 1165
SWIDTH 600 0
DWIDTH 10 0
BBX 9 9 0 0
BITMAP
2000
FE00
2000
3F00
2080
2080
2080
2080
3F00
ENDCHAR
STARTCHAR 048E
ENCODING 1166
SWIDTH 720 0
DWIDTH 12 0
BBX 9 12 2 0
BITMAP
FE00
8300
8180
8080
8880
8480
8700
FE00
8100
8080
8000
8000
ENDCHAR
STARTCHAR 048F
ENCODING 1167
SWIDTH 720 0
DWIDTH 12 0
BBX 9 13 2 -4
BITMAP
BC00
C300
8100
8180
8180
8180
8500
C300
BD00
8100
8000
8000
8000
ENDCHAR
STARTCHAR 0490
ENCODING 1168
SWIDTH 600 0
DWIDTH 10 0
BBX 7 14 2 0
BITMAP
02
02
FE
80
80
80
80
80
80
80
80
80
80
80
ENDCHAR
STARTCHAR 0491
ENCODING 1169
SWIDTH 420 0
DWIDTH 7 0
BBX 5 11 2 0
BITMAP
08
08
F8
80
80
80
80
80
80
80
80
ENDCHAR
STARTCHAR 0492
ENCODING 1170
SWIDTH 600 0
DWIDTH 10 0
BBX 9 12 1 0
BITMAP
7F80
6000
6000
6000
6000
6000
FF00
6000
6000
6000
6000
6000
ENDCHAR
STARTCHAR 0493
ENCODING 1171
SWIDTH 480 0
DWIDTH 8 0
BBX 7 9 1 0
BITMAP
7E
40
40
40
40
FC
40
40
40
ENDCHAR
STARTCHAR 0494
ENCODING 1172
SWIDTH 720 0
DWIDTH 12 0
BBX 9 14 2 -2
BITMAP
FF00
8000
8000
8000
8000
BE00
C300
8100
8180
8080
8080
8100
0300
1E00
ENDCHAR
STARTCHAR 0495
ENCODING 1173
SWIDTH 600 0
DWIDTH 10 0
BBX 7 13 2 -4
BITMAP
FC
80
80
80
FC
86
82
82
82
02
02
04
38
ENDCHAR
STARTCHAR 0496
ENCODING 1174
SWIDTH 1080 0
DWIDTH 18 0
BBX 16 15 1 -3
BITMAP
8106
4104
6108
2118
1110
1FE0
1110
3118
2108
4104
C104
8103
0001
0001
0001
ENDCHAR
STARTCHAR 0497
ENCODING 1175
SWIDTH 840 0
DWIDTH 14 0
BBX 13 11 1 -2
BITMAP
8410
4420
4460
2440
3F80
2440
4460
C420
8418
0008
0008
ENDCHAR
STARTCHAR 0498
ENCODING 1176
SWIDTH 660 0
DWIDTH 11 0
BBX 8 15 1 -3
BITMAP
7C
82
01
01
03
3C
03
01
01
01
C3
7C
18
18
18
ENDCHAR
STARTCHAR 0499
ENCODING 1177
SWIDTH 540 0
DWIDTH 9 0
BBX 7 11 1 -2
BITMAP
78
84
06
04
38
06
02
86
F8
10
10
ENDCHAR
STARTCHAR 049A
ENCODING 1178
SWIDTH 720 0
DWIDTH 12 0
BBX 10 15 2 -3
BITMAP
8180
8100
8200
8400
8C00
F800
8C00
8400
8200
8300
8100
80C0
0040
0040
0040
ENDCHAR
STARTCHAR 049B
ENCODING 1179
SWIDTH 600 0
DWIDTH 10 0
BBX 8 11 2 -2
BITMAP
82
84
88
90
F0
98
88
84
83
01
01
ENDCHAR
STARTCHAR 049C
ENCODING 1180
SWIDTH 720 0
DWIDTH 12 0
BBX 9 12 2 0
BITMAP
8080
8180
8100
9200
9600
9400
FC00
9400
9200
8300
8180
8080
ENDCHAR
STARTCHAR 049D
ENCODING 1181
SWIDTH 600 0
DWIDTH 10 0
BBX 7 9 2 0
BITMAP
82
84
AC
A8
F0
A8
A4
86
82
ENDCHAR
STARTCHAR 049E
ENCODING 1182
SWIDTH 720 0
DWIDTH 12 0
BBX 10 12 1 0
BITMAP
6040
6080
FD80
6100
6200
6600
7C00
6200
6300
6180
60C0
6040
ENDCHAR
STARTCHAR 049F
ENCODING 1183
SWIDTH 600 0
DWIDTH 10 0
BBX 9 13 0 0
BITMAP
2000
FC00
2000
2000
2080
2100
2200
2600
3C00
2600
2200
2100
2080
ENDCHAR
STARTCHAR 04A0
ENCODING 1184
SWIDTH 840 0
DWIDTH 14 0
BBX 13 12 0 0
BITMAP
F818
0830
0820
0840
0880
0F80
0880
0840
0860
0820
0810
0818
ENDCHAR
STARTCHAR 04A1
ENCODING 1185
SWIDTH 660 0
DWIDTH 11 0
BBX 10 9 0 0
BITMAP
F040
1080
1100
1300
1E00
1300
1180
1080
1040
ENDCHAR
STARTCHAR 04A2
ENCODING 1186
SWIDTH 840 0
DWIDTH 14 0
BBX 12 15 2 -3
BITMAP
80C0
80C0
80C0
80C0
80C0
FFC0
80C0
80C0
80C0
80C0
80C0
80F0
0030
0030
0030
ENDCHAR
STARTCHAR 04A3
ENCODING 1187
SWIDTH 720 0
DWIDTH 12 0
BBX 9 11 2 -2
BITMAP
8300
8300
8300
8300
FF00
8300
8300
8300
8380
0080
0080
ENDCHAR
STARTCHAR 04A4
ENCODING 1188
SWIDTH 1080 0
DWIDTH 18 0
BBX 16 12 2 0
BITMAP
80FF
80C0
80C0
80C0
80C0
FFC0
80C0
80C0
80C0
80C0
80C0
80C0
ENDCHAR
STARTCHAR 04A5
ENCODING 1189
SWIDTH 900 0
DWIDTH 15 0
BBX 13 9 2 0
BITMAP
83F8
8300
8300
8300
FF00
8300
8300
8300
8300
ENDCHAR
STARTCHAR 04A6
ENCODING 1190
SWIDTH 1200 0
DWIDTH 20 0
BBX 17 14 2 -2
BITMAP
FFC000
804000
804000
804000
804000
805E00
806100
804080
804080
804080
804080
804080
000100
000E00
ENDCHAR
STARTCHAR 04A7
ENCODING 1191
SWIDTH 960 0
DWIDTH 16 0
BBX 14 13 2 -4
BITMAP
FE00
8200
8200
8200
82F0
8318
820C
8204
8204
000C
0008
0018
0070
ENDCHAR
STARTCHAR 04A8
ENCODING 1192
SWIDTH 960 0
DWIDTH 16 0
BBX 14 12 1 0
BITMAP
31E0
6318
4608
C40C
8404
8404
840C
C408
4208
6310
31E0
0FFC
ENDCHAR
STARTCHAR 04A9
ENCODING 1193
SWIDTH 780 0
DWIDTH 13 0
BBX 11 9 1 0
BITMAP
2380
4C40
8820
8820
8820
8860
CC40
6680
1FE0
ENDCHAR
STARTCHAR 04AA
ENCODING 1194
SWIDTH 720 0
DWIDTH 12 0
BBX 10 15 1 -3
BITMAP
0F80
30C0
6040
4000
8000
8000
8000
8000
C000
6000
30C0
1F80
0400
0400
0400
ENDCHAR
STARTCHAR 04AB
ENCODING 1195
SWIDTH 540 0
DWIDTH 9 0
BBX 8 11 1 -2
BITMAP
3C
63
C0
80
80
80
C0
63
3E
08
08
ENDCHAR
STARTCHAR 04AC
ENCODING 1196
SWIDTH 600 0
DWIDTH 10 0
BBX 10 15 0 -3
BITMAP
FFC0
0C00
0C00
0C00
0C00
0C00
0C00
0C00
0C00
0C00
0C00
0E00
0200
0200
0200
ENDCHAR
STARTCHAR 04AD
ENCODING 1197
SWIDTH 480 0
DWIDTH 8 0
BBX 8 11 0 -2
BITMAP
FF
18
18
18
18
18
18
18
1C
04
04
ENDCHAR
STARTCHAR 04AE
ENCODING 1198
SWIDTH 660 0
DWIDTH 11 0
BBX 10 12 0 0
BITMAP
C040
4040
2080
3180
1100
1A00
0A00
0400
0400
0400
0400
0400
ENDCHAR
STARTCHAR 04AF
ENCODING 1199
SWIDTH 540 0
DWIDTH 9 0
BBX 9 13 0 -4
BITMAP
C080
4180
4100
2100
2200
3200
1600
1400
0C00
0800
0800
0800
0800
ENDCHAR
STARTCHAR 04B0
ENCODING 1200
SWIDTH 660 0
DWIDTH 11 0
BBX 10 12 0 0
BITMAP
C040
4040
2080
3180
1100
0A00
0A00
3F80
0400
0400
0400
0400
ENDCHAR
STARTCHAR 04B1
ENCODING 1201
SWIDTH 540 0
DWIDTH 9 0
BBX 9 13 0 -4
BITMAP
C080
4180
4100
2100
2200
3200
1600
1400
0C00
7F00
0800
0800
0800
ENDCHAR
STARTCHAR 04B2
ENCODING 1202
SWIDTH 720 0
DWIDTH 12 0
BBX 10 15 1 -3
BITMAP
8180
4100
6200
3600
1400
1800
1C00
3400
2200
6300
C100
80C0
0040
0040
0040
ENDCHAR
STARTCHAR 04B3
ENCODING 1203
SWIDTH 540 0
DWIDTH 9 0
BBX 8 11 1 -2
BITMAP
82
44
68
38
10
28
4C
C4
83
01
01
ENDCHAR
STARTCHAR 04B4
ENCODING 1204
SWIDTH 960 0
DWIDTH 16 0
BBX 16 15 0 -3
BITMAP
FF84
0C04
0C04
0C04
0C04
0C04
0C04
0C04
0C04
0C04
0C04
0FFF
0003
0003
0003
ENDCHAR
STARTCHAR 04B5
ENCODING 1205
SWIDTH 780 0
DWIDTH 13 0
BBX 12 11 0 -2
BITMAP
FE60
1860
1860
1860
1860
1860
1860
1860
1FF0
0010
0010
ENDCHAR
STARTCHAR 04B6
ENCODING 1206
SWIDTH 780 0
DWIDTH 13 0
BBX 11 15 1 -3
BITMAP
8080
8080
8080
8080
8080
C080
6180
3E80
0080
0080
0080
00E0
0020
0020
0020
ENDCHAR
STARTCHAR 04B7
ENCODING 1207
SWIDTH 600 0
DWIDTH 10 0
BBX 9 11 1 -2
BITMAP
8200
8200
8200
8200
C200
7E00
0200
0200
0380
0080
0080
ENDCHAR
STARTCHAR 04B8
ENCODING 1208
SWIDTH 720 0
DWIDTH 12 0
BBX 9 12 1 0
BITMAP
8080
8080
8080
8080
8880
C880
6980
3E80
0880
0880
0080
0080
ENDCHAR
STARTCHAR 04B9
ENCODING 1209
SWIDTH 600 0
DWIDTH 10 0
BBX 7 9 1 0
BITMAP
82
82
82
92
D2
7E
12
12
02
ENDCHAR
STARTCHAR 04BA
ENCODING 1210
SWIDTH 720 0
DWIDTH 12 0
BBX 9 12 2 0
BITMAP
8000
8000
8000
8000
BE00
C100
8080
8080
8080
8080
8080
8080
ENDCHAR
STARTCHAR 04BB
ENCODING 1211
SWIDTH 660 0
DWIDTH 11 0
BBX 8 13 2 0
BITMAP
80
80
80
80
BC
C2
83
81
81
81
81
81
81
ENDCHAR
STARTCHAR 04BC
ENCODING 1212
SWIDTH 960 0
DWIDTH 16 0
BBX 15 12 1 0
BITMAP
03E0
0E18
880C
9004
9004
FFFE
1000
1000
1800
0808
0618
03E0
ENDCHAR
STARTCHAR 04BD
ENCODING 1213
SWIDTH 780 0
DWIDTH 13 0
BBX 12 9 0 0
BITMAP
07C0
0C60
9820
D010
7FF0
1000
1800
0C20
07C0
ENDCHAR
STARTCHAR 04BE
ENCODING 1214
SWIDTH 960 0
DWIDTH 16 0
BBX 15 15 1 -3
BITMAP
03E0
0E18
880C
9004
9004
FFFE
1000
1000
1800
0808
0618
03E0
0080
0080
0080
ENDCHAR
STARTCHAR 04BF
ENCODING 1215
SWIDTH 780 0
DWIDTH 13 0
BBX 12 11 0 -2
BITMAP
07C0
0C60
9820
D010
7FF0
1000
1800
0C20
07C0
0100
0100
ENDCHAR
STARTCHAR 04C0
ENCODING 1216
SWIDTH 300 0
DWIDTH 5 0
BBX 1 12 2 0
BITMAP
80
80
80
80
80
80
80
80
80
80
80
80
ENDCHAR
STARTCHAR 04C1
ENCODING 1217
SWIDTH 1020 0
DWIDTH 17 0
BBX 15 15 1 0
BITMAP
0440
0380
0000
8106
4104
6108
2118
1110
1FF0
1110
3118
2108
4104
C106
8102
ENDCHAR
STARTCHAR 04C2
ENCODING 1218
SWIDTH 840 0
DWIDTH 14 0
BBX 12 12 1 0
BITMAP
0900
0600
0000
8410
4420
4460
2440
3F80
2440
4460
C420
8410
ENDCHAR
STARTCHAR 04C3
ENCODING 1219
SWIDTH 720 0
DWIDTH 12 0
BBX 9 16 2 -4
BITMAP
8180
8100
8200
8400
8C00
F800
8C00
8600
8200
8100
8180
8080
0080
0080
0180
0700
ENDCHAR
STARTCHAR 04C4
ENCODING 1220
SWIDTH 600 0
DWIDTH 10 0
BBX 7 13 2 -4
BITMAP
82
84
88
98
F0
88
84
86
82
02
02
02
1C
ENDCHAR
STARTCHAR 04C6
ENCODING 1222
SWIDTH 660 0
DWIDTH 11 0
BBX 10 10 0 -2
BITMAP
3F80
2080
2080
2080
2080
2080
2080
6080
C0C0
0040
ENDCHAR
STARTCHAR 04C7
ENCODING 1223
SWIDTH 840 0
DWIDTH 14 0
BBX 10 16 2 -4
BITMAP
80C0
80C0
80C0
80C0
80C0
FFC0
80C0
80C0
80C0
80C0
80C0
80C0
00C0
00C0
0080
0780
ENDCHAR
STARTCHAR 04C8
ENCODING 1224
SWIDTH 660 0
DWIDTH 11 0
BBX 8 13 2 -4
BITMAP
83
83
83
83
FF
83
83
83
83
03
03
02
1E
ENDCHAR
STARTCHAR 04C9
ENCODING 1225
SWIDTH 840 0
DWIDTH 14 0
BBX 11 15 2 -3
BITMAP
80C0
80C0
80C0
80C0
80C0
FFC0
80C0
80C0
80C0
80C0
80C0
80E0
0020
0020
0040
ENDCHAR
STARTCHAR 04CA
ENCODING 1226
SWIDTH 720 0
DWIDTH 12 0
BBX 9 11 2 -2
BITMAP
8300
8300
8300
8300
FF00
8300
8300
8300
8380
0080
0100
ENDCHAR
STARTCHAR 04CB
ENCODING 1227
SWIDTH 720 0
DWIDTH 12 0
BBX 9 15 1 -3
BITMAP
8080
8080
8080
8080
8080
C080
6180
3E80
0080
0080
0080
0380
0200
0200
0200
ENDCHAR
STARTCHAR 04CC
ENCODING 1228
SWIDTH 600 0
DWIDTH 10 0
BBX 7 11 1 -2
BITMAP
82
82
82
82
C2
7E
02
02
06
04
04
ENDCHAR
STARTCHAR 04CD
ENCODING 1229
SWIDTH 1020 0
DWIDTH 17 0
BBX 14 15 2 -3
BITMAP
8010
C030
C030
A050
B050
9090
9990
8910
8610
8610
8010
801C
0008
0008
0008
ENDCHAR
STARTCHAR 04CE
ENCODING 1230
SWIDTH 840 0
DWIDTH 14 0
BBX 11 11 2 -2
BITMAP
8080
C080
C180
A280
A280
9480
9C80
8880
80E0
0020
0040
ENDCHAR
STARTCHAR 04CF
ENCODING 1231
SWIDTH 300 0
DWIDTH 5 0
BBX 1 13 2 0
BITMAP
80
80
80
80
80
80
80
80
80
80
80
80
80
ENDCHAR
STARTCHAR 04D0
ENCODING 1232
SWIDTH 720 0
DWIDTH 12 0
BBX 12 15 0 0
BITMAP
0880
0F00
0000
0600
0600
0D00
0900
0880
1080
10C0
3040
3FE0
6020
4020
C010
ENDCHAR
STARTCHAR 04D1
ENCODING 1233
SWIDTH 600 0
DWIDTH 10 0
BBX 7 12 1 0
BITMAP
44
38
00
7C
C6
02
02
7E
82
82
86
7A
ENDCHAR
STARTCHAR 04D2
ENCODING 1234
SWIDTH 720 0
DWIDTH 12 0
BBX 12 15 0 0
BITMAP
0900
0000
0000
0600
0600
0D00
0900
0880
1080
10C0
3040
3FE0
6020
4020
C010
ENDCHAR
STARTCHAR 04D3
ENCODING 1235
SWIDTH 600 0
DWIDTH 10 0
BBX 7 12 1 0
BITMAP
24
00
00
7C
C6
02
02
7E
82
82
86
7A
ENDCHAR
STARTCHAR 04D4
ENCODING 1236
SWIDTH 1020 0
DWIDTH 17 0
BBX 16 12 0 0
BITMAP
01FF
0380
0280
0480
0480
08FE
1880
1080
3F80
2080
4080
C0FF
ENDCHAR
STARTCHAR 04D5
ENCODING 1237
SWIDTH 1020 0
DWIDTH 17 0
BBX 15 9 1 0
BITMAP
7CF0
C78C
0304
0206
7FFE
8200
8300
C584
78F8
ENDCHAR
STARTCHAR 04D6
ENCODING 1238
SWIDTH 660 0
DWIDTH 11 0
BBX 8 15 2 0
BITMAP
42
3C
00
FF
80
80
80
80
FE
80
80
80
80
80
FF
ENDCHAR
STARTCHAR 04D7
ENCODING 1239
SWIDTH 600 0
DWIDTH 10 0
BBX 8 12 1 0
BITMAP
24
18
00
3C
42
81
81
FF
80
C0
63
3E
ENDCHAR
STARTCHAR 04D8
ENCODING 1240
SWIDTH 840 0
DWIDTH 14 0
BBX 12 12 1 0
BITMAP
1F00
71C0
4060
0020
0020
0030
FFF0
8030
8020
4060
70C0
1F00
ENDCHAR
STARTCHAR 04D9
ENCODING 1241
SWIDTH 600 0
DWIDTH 10 0
BBX 8 9 1 0
BITMAP
3C
42
01
01
FF
81
81
42
3C
ENDCHAR
STARTCHAR 04DA
ENCODING 1242
SWIDTH 840 0
DWIDTH 14 0
BBX 12 14 1 0
BITMAP
0900
0000
1F00
71C0
4060
0020
0020
0030
FFF0
8030
8020
4060
70C0
1F00
ENDCHAR
STARTCHAR 04DB
ENCODING 1243
SWIDTH 600 0
DWIDTH 10 0
BBX 8 12 1 0
BITMAP
24
00
00
3C
42
01
01
FF
81
81
42
3C
ENDCHAR
STARTCHAR 04DC
ENCODING 1244
SWIDTH 1020 0
DWIDTH 17 0
BBX 15 15 1 0
BITMAP
06C0
0000
0000
8106
4104
6108
2118
1110
1FF0
1110
3118
2108
4104
C106
8102
ENDCHAR
STARTCHAR 04DD
ENCODING 1245
SWIDTH 840 0
DWIDTH 14 0
BBX 12 12 1 0
BITMAP
0900
0000
0000
8410
4420
4460
2440
3F80
2440
4460
C420
8410
ENDCHAR
STARTCHAR 04DE
ENCODING 1246
SWIDTH 660 0
DWIDTH 11 0
BBX 8 14 1 0
BITMAP
24
00
7C
82
01
01
03
3C
03
01
01
01
C3
7C
ENDCHAR
STARTCHAR 04DF
ENCODING 1247
SWIDTH 540 0
DWIDTH 9 0
BBX 7 12 1 0
BITMAP
48
00
00
78
84
06
04
38
06
02
86
F8
ENDCHAR
STARTCHAR 04E0
ENCODING 1248
SWIDTH 600 0
DWIDTH 10 0
BBX 8 12 1 0
BITMAP
FF
02
04
0C
18
1C
03
01
01
01
C3
7C
ENDCHAR
STARTCHAR 04E1
ENCODING 1249
SWIDTH 540 0
DWIDTH 9 0
BBX 8 13 0 -4
BITMAP
FE
02
04
08
18
1C
02
03
01
01
03
C6
7C
ENDCHAR
STARTCHAR 04E2
ENCODING 1250
SWIDTH 840 0
DWIDTH 14 0
BBX 10 14 2 0
BITMAP
3E00
0000
80C0
80C0
8140
8240
8640
8440
8840
9040
B040
A040
C040
8040
ENDCHAR
STARTCHAR 04E3
ENCODING 1251
SWIDTH 660 0
DWIDTH 11 0
BBX 8 12 2 0
BITMAP
7C
00
00
83
87
85
89
91
B1
E1
C1
81
ENDCHAR
STARTCHAR 04E4
ENCODING 1252
SWIDTH 840 0
DWIDTH 14 0
BBX 10 15 2 0
BITMAP
1200
0000
0000
80C0
80C0
8140
8240
8640
8440
8840
9040
B040
A040
C040
8040
ENDCHAR
STARTCHAR 04E5
ENCODING 1253
SWIDTH 660 0
DWIDTH 11 0
BBX 8 12 2 0
BITMAP
2C
00
00
83
87
85
89
91
B1
E1
C1
81
ENDCHAR
STARTCHAR 04E6
ENCODING 1254
SWIDTH 840 0
DWIDTH 14 0
BBX 12 14 1 0
BITMAP
0900
0000
0F80
30C0
6020
C030
8010
8010
8010
8010
C030
6020
30C0
0F80
ENDCHAR
STARTCHAR 04E7
ENCODING 1255
SWIDTH 660 0
DWIDTH 11 0
BBX 9 12 1 0
BITMAP
2400
0000
0000
3C00
6300
C100
8180
8080
8180
C100
6300
3C00
ENDCHAR
STARTCHAR 04E8
ENCODING 1256
SWIDTH 840 0
DWIDTH 14 0
BBX 12 12 1 0
BITMAP
1F80
30C0
4020
C030
8010
FFF0
8010
8010
4030
6060
30C0
0F80
ENDCHAR
STARTCHAR 04E9
ENCODING 1257
SWIDTH 660 0
DWIDTH 11 0
BBX 9 9 1 0
BITMAP
3E00
4300
8180
8080
FF80
8080
C100
4300
3E00
ENDCHAR
STARTCHAR 04EA
ENCODING 1258
SWIDTH 840 0
DWIDTH 14 0
BBX 12 14 1 0
BITMAP
0900
0000
1F80
30C0
4020
C030
8010
FFF0
8010
8010
4030
6060
30C0
0F80
ENDCHAR
STARTCHAR 04EB
ENCODING 1259
SWIDTH 660 0
DWIDTH 11 0
BBX 9 12 1 0
BITMAP
3600
0000
0000
3E00
4300
8180
8080
FF80
8080
C100
4300
3E00
ENDCHAR
STARTCHAR 04EC
ENCODING 1260
SWIDTH 720 0
DWIDTH 12 0
BBX 10 14 1 0
BITMAP
2400
0000
7C00
C300
8180
0080
0080
00C0
1FC0
00C0
0080
0180
C300
7C00
ENDCHAR
STARTCHAR 04ED
ENCODING 1261
SWIDTH 600 0
DWIDTH 10 0
BBX 8 12 1 0
BITMAP
68
00
00
78
86
02
03
3F
03
02
86
78
ENDCHAR
STARTCHAR 04EE
ENCODING 1262
SWIDTH 660 0
DWIDTH 11 0
BBX 10 14 1 0
BITMAP
3E00
0000
8040
8080
4080
4100
2100
2200
1200
1400
0C00
0800
1000
E000
ENDCHAR
STARTCHAR 04EF
ENCODING 1263
SWIDTH 540 0
DWIDTH 9 0
BBX 9 16 0 -4
BITMAP
3E00
0000
0000
C080
4180
4100
2100
2200
3200
1400
1400
0C00
0800
0800
1000
E000
ENDCHAR
STARTCHAR 04F0
ENCODING 1264
SWIDTH 660 0
DWIDTH 11 0
BBX 10 15 1 0
BITMAP
3600
0000
0000
8040
8080
4080
4100
2100
2200
1200
1400
0C00
0800
1000
E000
ENDCHAR
STARTCHAR 04F1
ENCODING 1265
SWIDTH 540 0
DWIDTH 9 0
BBX 9 16 0 -4
BITMAP
3600
0000
0000
C080
4180
4100
2100
2200
3200
1400
1400
0C00
0800
0800
1000
E000
ENDCHAR
STARTCHAR 04F2
ENCODING 1266
SWIDTH 660 0
DWIDTH 11 0
BBX 10 15 1 0
BITMAP
0900
1200
0000
8040
8080
4080
4100
2100
2200
1200
1400
0C00
0800
1000
E000
ENDCHAR
STARTCHAR 04F3
ENCODING 1267
SWIDTH 540 0
DWIDTH 9 0
BBX 9 16 0 -4
BITMAP
0B00
1200
0000
C080
4180
4100
2100
2200
3200
1400
1400
0C00
0800
0800
1000
E000
ENDCHAR
STARTCHAR 04F4
ENCODING 1268
SWIDTH 720 0
DWIDTH 12 0
BBX 9 15 1 0
BITMAP
3600
0000
0000
8080
8080
8080
8080
8080
C080
6180
3E80
0080
0080
0080
0080
ENDCHAR
STARTCHAR 04F5
ENCODING 1269
SWIDTH 600 0
DWIDTH 10 0
BBX 7 12 1 0
BITMAP
6C
00
00
82
82
82
82
C2
7E
02
02
02
ENDCHAR
STARTCHAR 04F6
ENCODING 1270
SWIDTH 600 0
DWIDTH 10 0
BBX 7 15 2 -3
BITMAP
FE
80
80
80
80
80
80
80
80
80
80
E0
20
20
20
ENDCHAR
STARTCHAR 04F7
ENCODING 1271
SWIDTH 480 0
DWIDTH 8 0
BBX 6 11 2 -2
BITMAP
FC
80
80
80
80
80
80
80
C0
40
40
ENDCHAR
STARTCHAR 04F8
ENCODING 1272
SWIDTH 960 0
DWIDTH 16 0
BBX 12 15 2 0
BITMAP
0900
0000
0000
8010
8010
8010
8010
FE10
8110
8090
8090
8090
8090
8110
FE10
ENDCHAR
STARTCHAR 04F9
ENCODING 1273
SWIDTH 780 0
DWIDTH 13 0
BBX 9 12 2 0
BITMAP
1200
0000
0000
8080
8080
8080
F880
8480
8680
8280
8480
F880
ENDCHAR
STARTCHAR 04FA
ENCODING 1274
SWIDTH 600 0
DWIDTH 10 0
BBX 9 16 1 -4
BITMAP
7F80
6000
6000
6000
6000
6000
FF00
6000
6000
6000
6000
7000
1000
1000
1000
E000
ENDCHAR
STARTCHAR 04FB
ENCODING 1275
SWIDTH 480 0
DWIDTH 8 0
BBX 8 13 0 -4
BITMAP
3F
20
20
20
7E
20
20
20
38
18
18
10
F0
ENDCHAR
STARTCHAR 04FC
ENCODING 1276
SWIDTH 660 0
DWIDTH 11 0
BBX 9 16 1 -4
BITMAP
8080
4100
6200
2600
1400
1800
1C00
1400
2200
6100
C180
8080
0080
0080
0080
0700
ENDCHAR
STARTCHAR 04FD
ENCODING 1277
SWIDTH 540 0
DWIDTH 9 0
BBX 7 13 1 -4
BITMAP
82
44
68
38
10
28
4C
C6
82
02
02
02
1E
ENDCHAR
STARTCHAR 04FE
ENCODING 1278
SWIDTH 660 0
DWIDTH 11 0
BBX 9 12 1 0
BITMAP
C080
4100
2200
3600
1C00
7F00
1C00
3600
2200
6100
4180
8080
ENDCHAR
STARTCHAR 04FF
ENCODING 1279
SWIDTH 540 0
DWIDTH 9 0
BBX 7 9 1 0
BITMAP
82
44
2C
38
7E
28
64
46
82
ENDCHAR
STARTCHAR 0510
ENCODING 1296
SWIDTH 660 0
DWIDTH 11 0
BBX 9 12 1 0
BITMAP
3F00
6100
4000
4000
4000
3E00
4000
8000
8000
C000
6180
3E00
ENDCHAR
STARTCHAR 0511
ENCODING 1297
SWIDTH 540 0
DWIDTH 9 0
BBX 7 9 1 0
BITMAP
3C
C2
80
40
38
C0
80
C2
3C
ENDCHAR
STARTCHAR 0512
ENCODING 1298
SWIDTH 780 0
DWIDTH 13 0
BBX 11 16 0 -4
BITMAP
1FE0
1020
1020
1020
1020
1020
1020
1020
1020
3020
2020
E020
0020
0020
0060
01C0
ENDCHAR
STARTCHAR 0513
ENCODING 1299
SWIDTH 660 0
DWIDTH 11 0
BBX 9 13 0 -4
BITMAP
3F80
2080
2080
2080
2080
2080
2080
6080
C080
0080
0080
0180
0700
ENDCHAR
STARTCHAR 051A
ENCODING 1306
SWIDTH 840 0
DWIDTH 14 0
BBX 12 14 1 -2
BITMAP
0F80
30C0
6020
C030
8010
8010
8010
8010
C030
4020
30C0
1F80
0300
00F0
ENDCHAR
STARTCHAR 051B
ENCODING 1307
SWIDTH 660 0
DWIDTH 11 0
BBX 9 13 1 -4
BITMAP
3C80
6280
C180
8180
8080
8180
C180
6280
3C80
0080
0080
0080
0080
ENDCHAR
STARTCHAR 051C
ENCODING 1308
SWIDTH 1080 0
DWIDTH 18 0
BBX 16 12 1 0
BITMAP
8181
8181
C183
4242
4242
4246
2464
2424
2424
1838
1818
1818
ENDCHAR
STARTCHAR 051D
ENCODING 1309
SWIDTH 900 0
DWIDTH 15 0
BBX 15 9 0 0
BITMAP
C182
4186
4284
22C4
264C
3448
1428
1830
1830
ENDCHAR
STARTCHAR 0524
ENCODING 1316
SWIDTH 840 0
DWIDTH 14 0
BBX 12 15 2 -3
BITMAP
FFC0
8040
8040
8040
8040
8040
8040
8040
8040
8040
8040
8070
0030
0030
0030
ENDCHAR
STARTCHAR 0525
ENCODING 1317
SWIDTH 660 0
DWIDTH 11 0
BBX 9 11 2 -2
BITMAP
FF00
8300
8300
8300
8300
8300
8300
8300
8380
0080
0080
ENDCHAR
STARTCHAR 0526
ENCODING 1318
SWIDTH 780 0
DWIDTH 13 0
BBX 11 15 2 -3
BITMAP
8000
8000
8000
8000
BE00
C100
8080
8080
8080
8080
8080
80E0
0020
0020
0020
ENDCHAR
STARTCHAR 0527
ENCODING 1319
SWIDTH 720 0
DWIDTH 12 0
BBX 9 15 2 -2
BITMAP
8000
8000
8000
8000
BC00
C600
8300
8100
8100
8100
8100
8100
8180
0080
0080
ENDCHAR
STARTCHAR 0528
ENCODING 1320
SWIDTH 840 0
DWIDTH 14 0
BBX 13 16 -1 -4
BITMAP
1018
1018
1018
1018
1018
1FF8
1018
1018
1018
1018
1018
1018
1000
1000
1000
E000
ENDCHAR
STARTCHAR 0529
ENCODING 1321
SWIDTH 660 0
DWIDTH 11 0
BBX 11 13 -1 -4
BITMAP
1060
1060
1060
1060
1FE0
1060
1060
1060
1060
1000
1000
3000
E000
ENDCHAR
STARTCHAR 052E
ENCODING 1326
SWIDTH 780 0
DWIDTH 13 0
BBX 13 15 0 -3
BITMAP
1FE0
1020
1020
1020
1020
1020
1020
1020
1020
3020
2020
E038
0008
0008
0008
ENDCHAR
STARTCHAR 052F
ENCODING 1327
SWIDTH 660 0
DWIDTH 11 0
BBX 10 11 0 -2
BITMAP
3F80
2080
2080
2080
2080
2080
2080
6080
C0C0
0040
0040
ENDCHAR
STARTCHAR 1E08
ENCODING 7688
SWIDTH 720 0
DWIDTH 12 0
BBX 10 20 1 -5
BITMAP
0300
0600
0000
0F00
30C0
6040
C000
8000
8000
8000
8000
C000
4000
30C0
1F80
0400
0600
0200
0200
0C00
ENDCHAR
STARTCHAR 1E09
ENCODING 7689
SWIDTH 540 0
DWIDTH 9 0
BBX 8 17 1 -5
BITMAP
04
18
00
3C
63
80
80
80
80
80
63
3C
10
18
08
08
18
ENDCHAR
STARTCHAR 1E0C
ENCODING 7692
SWIDTH 840 0
DWIDTH 14 0
BBX 11 15 2 -3
BITMAP
FE00
8180
80C0
8040
8060
8020
8020
8060
8040
80C0
8180
FE00
0000
0000
0800
ENDCHAR
STARTCHAR 1E0D
ENCODING 7693
SWIDTH 660 0
DWIDTH 11 0
BBX 9 16 1 -3
BITMAP
0180
0180
0180
0180
3D80
6380
8180
8180
8180
8180
8180
6280
3C80
0000
0000
0800
ENDCHAR
STARTCHAR 1E0E
ENCODING 7694
SWIDTH 840 0
DWIDTH 14 0
BBX 11 15 2 -3
BITMAP
FE00
8180
80C0
8040
8060
8020
8020
8060
8040
80C0
8180
FE00
0000
0000
3E00
ENDCHAR
STARTCHAR 1E0F
ENCODING 7695
SWIDTH 660 0
DWIDTH 11 0
BBX 9 16 1 -3
BITMAP
0180
0180
0180
0180
3D80
6380
8180
8180
8180
8180
8180
6280
3C80
0000
0000
3E00
ENDCHAR
STARTCHAR 1E14
ENCODING 7700
SWIDTH 660 0
DWIDTH 11 0
BBX 8 17 2 0
BITMAP
20
18
00
7C
00
FF
80
80
80
80
FE
80
80
80
80
80
FF
ENDCHAR
STARTCHAR 1E15
ENCODING 7701
SWIDTH 600 0
DWIDTH 10 0
BBX 8 15 1 0
BITMAP
20
18
00
7E
00
00
3C
42
81
81
FF
80
80
63
3E
ENDCHAR
STARTCHAR 1E16
ENCODING 7702
SWIDTH 660 0
DWIDTH 11 0
BBX 8 17 2 0
BITMAP
0C
10
00
7C
00
FF
80
80
80
80
FE
80
80
80
80
80
FF
ENDCHAR
STARTCHAR 1E17
ENCODING 7703
SWIDTH 600 0
DWIDTH 10 0
BBX 8 15 1 0
BITMAP
04
08
00
7E
00
00
3C
42
81
81
FF
80
80
63
3E
ENDCHAR
STARTCHAR 1E1C
ENCODING 7708
SWIDTH 660 0
DWIDTH 11 0
BBX 8 20 2 -5
BITMAP
44
3C
00
FF
80
80
80
80
FE
80
80
80
80
80
FF
10
18
04
04
18
ENDCHAR
STARTCHAR 1E1D
ENCODING 7709
SWIDTH 600 0
DWIDTH 10 0
BBX 8 17 1 -5
BITMAP
24
18
00
3C
42
81
81
FF
80
80
63
3E
10
18
04
08
18
ENDCHAR
STARTCHAR 1E20
ENCODING 7712
SWIDTH 780 0
DWIDTH 13 0
BBX 10 14 1 0
BITMAP
1F00
0000
0F80
30C0
6040
C000
8000
8000
8040
8040
C040
4040
30C0
1F80
ENDCHAR
STARTCHAR 1E21
ENCODING 7713
SWIDTH 660 0
DWIDTH 11 0
BBX 9 16 1 -4
BITMAP
3E00
0000
0000
3C80
6280
C180
8180
8080
8180
8180
4280
3C80
0080
0100
C300
3E00
ENDCHAR
STARTCHAR 1E24
ENCODING 7716
SWIDTH 840 0
DWIDTH 14 0
BBX 10 15 2 -3
BITMAP
80C0
80C0
80C0
80C0
80C0
FFC0
80C0
80C0
80C0
80C0
80C0
80C0
0000
0000
0800
ENDCHAR
STARTCHAR 1E25
ENCODING 7717
SWIDTH 660 0
DWIDTH 11 0
BBX 8 16 2 -3
BITMAP
80
80
80
80
BC
C6
83
81
81
81
81
81
81
00
00
10
ENDCHAR
STARTCHAR 1E2A
ENCODING 7722
SWIDTH 840 0
DWIDTH 14 0
BBX 10 16 2 -4
BITMAP
80C0
80C0
80C0
80C0
80C0
FFC0
80C0
80C0
80C0
80C0
80C0
80C0
0000
0000
2200
1C00
ENDCHAR
STARTCHAR 1E2B
ENCODING 7723
SWIDTH 660 0
DWIDTH 11 0
BBX 8 17 2 -4
BITMAP
80
80
80
80
BC
C6
83
81
81
81
81
81
81
00
00
44
38
ENDCHAR
STARTCHAR 1E2E
ENCODING 7726
SWIDTH 300 0
DWIDTH 5 0
BBX 5 17 0 0
BITMAP
10
20
00
D8
00
20
20
20
20
20
20
20
20
20
20
20
20
ENDCHAR
STARTCHAR 1E2F
ENCODING 7727
SWIDTH 240 0
DWIDTH 4 0
BBX 4 15 0 0
BITMAP
10
20
00
90
00
00
20
20
20
20
20
20
20
20
20
ENDCHAR
STARTCHAR 1E36
ENCODING 7734
SWIDTH 600 0
DWIDTH 10 0
BBX 8 15 2 -3
BITMAP
80
80
80
80
80
80
80
80
80
80
80
FF
00
00
18
ENDCHAR
STARTCHAR 1E37
ENCODING 7735
SWIDTH 240 0
DWIDTH 4 0
BBX 1 16 2 -3
BITMAP
80
80
80
80
80
80
80
80
80
80
80
80
80
00
00
80
ENDCHAR
STARTCHAR 1E3A
ENCODING 7738
SWIDTH 600 0
DWIDTH 10 0
BBX 8 15 2 -3
BITMAP
80
80
80
80
80
80
80
80
80
80
80
FF
00
00
7E
ENDCHAR
STARTCHAR 1E3B
ENCODING 7739
SWIDTH 240 0
DWIDTH 4 0
BBX 5 16 0 -3
BITMAP
20
20
20
20
20
20
20
20
20
20
20
20
20
00
00
F8
ENDCHAR
STARTCHAR 1E42
ENCODING 7746
SWIDTH 960 0
DWIDTH 16 0
BBX 12 15 2 -3
BITMAP
8010
C030
C030
A050
A0D0
9090
9990
8910
8610
8610
8010
8010
0000
0000
0600
ENDCHAR
STARTCHAR 1E43
ENCODING 7747
SWIDTH 1080 0
DWIDTH 18 0
BBX 14 12 2 -3
BITMAP
BCF8
C78C
8304
8304
8204
8204
8204
8204
8204
0000
0000
0300
ENDCHAR
STARTCHAR 1E44
ENCODING 7748
SWIDTH 840 0
DWIDTH 14 0
BBX 10 15 2 0
BITMAP
0C00
0800
0000
80C0
C0C0
E0C0
B0C0
90C0
88C0
8CC0
86C0
82C0
81C0
81C0
80C0
ENDCHAR
STARTCHAR 1E45
ENCODING 7749
SWIDTH 660 0
DWIDTH 11 0
BBX 8 12 2 0
BITMAP
10
10
00
BC
C6
83
81
81
81
81
81
81
ENDCHAR
STARTCHAR 1E46
ENCODING 7750
SWIDTH 840 0
DWIDTH 14 0
BBX 10 15 2 -3
BITMAP
80C0
C0C0
E0C0
B0C0
90C0
88C0
8CC0
86C0
82C0
81C0
81C0
80C0
0000
0000
0800
ENDCHAR
STARTCHAR 1E47
ENCODING 7751
SWIDTH 660 0
DWIDTH 11 0
BBX 8 12 2 -3
BITMAP
BC
C6
83
81
81
81
81
81
81
00
00
10
ENDCHAR
STARTCHAR 1E48
ENCODING 7752
SWIDTH 840 0
DWIDTH 14 0
BBX 10 15 2 -3
BITMAP
80C0
C0C0
E0C0
B0C0
90C0
88C0
8CC0
86C0
82C0
81C0
81C0
80C0
0000
0000
3E00
ENDCHAR
STARTCHAR 1E49
ENCODING 7753
SWIDTH 660 0
DWIDTH 11 0
BBX 8 12 2 -3
BITMAP
BC
C6
83
81
81
81
81
81
81
00
00
7C
ENDCHAR
STARTCHAR 1E4C
ENCODING 7756
SWIDTH 840 0
DWIDTH 14 0
BBX 12 17 1 0
BITMAP
0100
0200
0800
1700
0000
1F80
30C0
4060
C030
8010
8010
8010
8010
C030
4020
30C0
1F80
ENDCHAR
STARTCHAR 1E4D
ENCODING 7757
SWIDTH 600 0
DWIDTH 10 0
BBX 9 15 1 0
BITMAP
0400
0800
0000
3200
0C00
0000
3C00
6300
8100
8180
8180
8180
8100
6300
3C00
ENDCHAR
STARTCHAR 1E4E
ENCODING 7758
SWIDTH 840 0
DWIDTH 14 0
BBX 12 17 1 0
BITMAP
0900
0000
0C80
1300
0000
1F80
30C0
4060
C030
8010
8010
8010
8010
C030
4020
30C0
1F80
ENDCHAR
STARTCHAR 1E4F
ENCODING 7759
SWIDTH 600 0
DWIDTH 10 0
BBX 9 14 1 0
BITMAP
2400
0000
3200
0C00
0000
3C00
6300
8100
8180
8180
8180
8100
6300
3C00
ENDCHAR
STARTCHAR 1E50
ENCODING 7760
SWIDTH 840 0
DWIDTH 14 0
BBX 12 17 1 0
BITMAP
0800
0400
0000
1F80
0000
1F80
30C0
4060
C030
8010
8010
8010
8010
C030
4020
30C0
1F80
ENDCHAR
STARTCHAR 1E51
ENCODING 7761
SWIDTH 600 0
DWIDTH 10 0
BBX 9 15 1 0
BITMAP
3000
0800
0000
3E00
0000
0000
3C00
6300
8100
8180
8180
8180
8100
6300
3C00
ENDCHAR
STARTCHAR 1E52
ENCODING 7762
SWIDTH 840 0
DWIDTH 14 0
BBX 12 17 1 0
BITMAP
0100
0200
0000
1F80
0000
1F80
30C0
4060
C030
8010
8010
8010
8010
C030
4020
30C0
1F80
ENDCHAR
STARTCHAR 1E53
ENCODING 7763
SWIDTH 600 0
DWIDTH 10 0
BBX 9 15 1 0
BITMAP
0400
0800
0000
3E00
0000
0000
3C00
6300
8100
8180
8180
8180
8100
6300
3C00
ENDCHAR
STARTCHAR 1E5A
ENCODING 7770
SWIDTH 720 0
DWIDTH 12 0
BBX 9 15 2 -3
BITMAP
FE00
8300
8180
8080
8080
8180
8300
FE00
8200
8300
8100
8080
0000
0000
1800
ENDCHAR
STARTCHAR 1E5B
ENCODING 7771
SWIDTH 420 0
DWIDTH 7 0
BBX 4 12 2 -3
BITMAP
B0
C0
80
80
80
80
80
80
80
00
00
80
ENDCHAR
STARTCHAR 1E5E
ENCODING 7774
SWIDTH 720 0
DWIDTH 12 0
BBX 9 15 2 -3
BITMAP
FE00
8300
8180
8080
8080
8180
8300
FE00
8200
8300
8100
8080
0000
0000
3E00
ENDCHAR
STARTCHAR 1E5F
ENCODING 7775
SWIDTH 420 0
DWIDTH 7 0
BBX 6 12 0 -3
BITMAP
2C
30
20
20
20
20
20
20
20
00
00
F8
ENDCHAR
STARTCHAR 1E60
ENCODING 7776
SWIDTH 600 0
DWIDTH 10 0
BBX 8 15 1 0
BITMAP
08
08
00
3E
41
80
80
C0
70
0E
01
01
01
C3
7E
ENDCHAR
STARTCHAR 1E61
ENCODING 7777
SWIDTH 480 0
DWIDTH 8 0
BBX 7 12 1 0
BITMAP
30
00
00
7C
84
80
C0
78
04
06
84
F8
ENDCHAR
STARTCHAR 1E62
ENCODING 7778
SWIDTH 600 0
DWIDTH 10 0
BBX 8 15 1 -3
BITMAP
3E
41
80
80
C0
70
0E
01
01
01
C3
7E
00
00
08
ENDCHAR
STARTCHAR 1E63
ENCODING 7779
SWIDTH 480 0
DWIDTH 8 0
BBX 7 12 1 -3
BITMAP
7C
84
80
C0
78
04
06
84
F8
00
00
30
ENDCHAR
STARTCHAR 1E64
ENCODING 7780
SWIDTH 600 0
DWIDTH 10 0
BBX 8 17 1 0
BITMAP
08
00
04
08
00
3E
41
80
80
C0
70
0E
01
01
01
C3
7E
ENDCHAR
STARTCHAR 1E65
ENCODING 7781
SWIDTH 480 0
DWIDTH 8 0
BBX 7 14 1 0
BITMAP
30
00
18
30
00
7C
84
80
C0
78
04
06
84
F8
ENDCHAR
STARTCHAR 1E66
ENCODING 7782
SWIDTH 600 0
DWIDTH 10 0
BBX 8 16 1 0
BITMAP
08
00
3C
00
3E
41
80
80
C0
70
0E
01
01
01
C3
7E
ENDCHAR
STARTCHAR 1E67
ENCODING 7783
SWIDTH 480 0
DWIDTH 8 0
BBX 7 14 1 0
BITMAP
30
00
48
30
00
7C
84
80
C0
78
04
06
84
F8
ENDCHAR
STARTCHAR 1E68
ENCODING 7784
SWIDTH 600 0
DWIDTH 10 0
BBX 8 18 1 -3
BITMAP
08
08
00
3E
41
80
80
C0
70
0E
01
01
01
C3
7E
00
00
08
ENDCHAR
STARTCHAR 1E69
ENCODING 7785
SWIDTH 480 0
DWIDTH 8 0
BBX 7 15 1 -3
BITMAP
30
00
00
7C
84
80
C0
78
04
06
84
F8
00
00
30
ENDCHAR
STARTCHAR 1E6C
ENCODING 7788
SWIDTH 600 0
DWIDTH 10 0
BBX 10 15 0 -3
BITMAP
FFC0
0800
0800
0800
0800
0800
0800
0800
0800
0800
0800
0800
0000
0000
0800
ENDCHAR
STARTCHAR 1E6D
ENCODING 7789
SWIDTH 420 0
DWIDTH 7 0
BBX 6 14 0 -3
BITMAP
20
20
FC
20
20
20
20
20
20
20
1C
00
00
18
ENDCHAR
STARTCHAR 1E6E
ENCODING 7790
SWIDTH 600 0
DWIDTH 10 0
BBX 10 15 0 -3
BITMAP
FFC0
0800
0800
0800
0800
0800
0800
0800
0800
0800
0800
0800
0000
0000
3E00
ENDCHAR
STARTCHAR 1E6F
ENCODING 7791
SWIDTH 420 0
DWIDTH 7 0
BBX 7 14 0 -3
BITMAP
20
20
FC
20
20
20
20
20
20
20
1C
00
00
3E
ENDCHAR
STARTCHAR 1E78
ENCODING 7800
SWIDTH 780 0
DWIDTH 13 0
BBX 9 17 2 0
BITMAP
0400
0800
1200
2E00
0000
8080
8080
8080
8080
8080
8080
8080
8080
8080
C080
6300
3E00
ENDCHAR
STARTCHAR 1E79
ENCODING 7801
SWIDTH 660 0
DWIDTH 11 0
BBX 8 15 2 0
BITMAP
0C
10
00
74
48
00
83
83
83
83
83
83
83
C7
7B
ENDCHAR
STARTCHAR 1E7A
ENCODING 7802
SWIDTH 780 0
DWIDTH 13 0
BBX 9 17 2 0
BITMAP
3600
0000
0000
3E00
0000
8080
8080
8080
8080
8080
8080
8080
8080
8080
C080
6300
3E00
ENDCHAR
STARTCHAR 1E7B
ENCODING 7803
SWIDTH 660 0
DWIDTH 11 0
BBX 8 14 2 0
BITMAP
6C
00
7C
00
00
83
83
83
83
83
83
83
C7
7B
ENDCHAR
STARTCHAR 1E80
ENCODING 7808
SWIDTH 1140 0
DWIDTH 19 0
BBX 17 15 1 0
BITMAP
030000
018000
000000
808080
818100
C14100
414100
424200
622200
222200
242400
341400
141400
181800
180800
ENDCHAR
STARTCHAR 1E81
ENCODING 7809
SWIDTH 900 0
DWIDTH 15 0
BBX 14 12 0 0
BITMAP
0600
0100
0000
8104
4304
4284
6288
2488
2450
1850
1830
1820
ENDCHAR
STARTCHAR 1E82
ENCODING 7810
SWIDTH 1140 0
DWIDTH 19 0
BBX 17 15 1 0
BITMAP
004000
008000
000000
808080
818100
C14100
414100
424200
622200
222200
242400
341400
141400
181800
180800
ENDCHAR
STARTCHAR 1E83
ENCODING 7811
SWIDTH 900 0
DWIDTH 15 0
BBX 14 12 0 0
BITMAP
0080
0100
0000
8104
4304
4284
6288
2488
2450
1850
1830
1820
ENDCHAR
STARTCHAR 1E84
ENCODING 7812
SWIDTH 1140 0
DWIDTH 19 0
BBX 17 15 1 0
BITMAP
024000
000000
000000
808080
818100
C14100
414100
424200
622200
222200
242400
341400
141400
181800
180800
ENDCHAR
STARTCHAR 1E85
ENCODING 7813
SWIDTH 900 0
DWIDTH 15 0
BBX 14 12 0 0
BITMAP
0480
0000
0000
8104
4304
4284
6288
2488
2450
1850
1830
1820
ENDCHAR
STARTCHAR 1E8E
ENCODING 7822
SWIDTH 660 0
DWIDTH 11 0
BBX 10 15 0 0
BITMAP
0400
0400
0000
C040
40C0
6080
2100
1100
1A00
0E00
0C00
0400
0400
0400
0400
ENDCHAR
STARTCHAR 1E8F
ENCODING 7823
SWIDTH 540 0
DWIDTH 9 0
BBX 9 17 0 -4
BITMAP
0800
0800
0000
0000
8080
4100
4100
6300
2200
2200
1400
1400
0C00
0800
0800
1000
E000
ENDCHAR
STARTCHAR 1E92
ENCODING 7826
SWIDTH 660 0
DWIDTH 11 0
BBX 9 15 1 -3
BITMAP
FF80
0180
0300
0200
0400
0C00
1800
1000
2000
4000
C000
FF80
0000
0000
0800
ENDCHAR
STARTCHAR 1E93
ENCODING 7827
SWIDTH 540 0
DWIDTH 9 0
BBX 7 12 1 -3
BITMAP
FE
04
08
18
10
20
40
C0
FE
00
00
10
ENDCHAR
STARTCHAR 1E97
ENCODING 7831
SWIDTH 420 0
DWIDTH 7 0
BBX 6 14 0 0
BITMAP
D8
00
00
20
20
FC
20
20
20
20
20
20
20
1C
ENDCHAR
STARTCHAR 1E9E
ENCODING 7838
SWIDTH 780 0
DWIDTH 13 0
BBX 10 12 2 0
BITMAP
3E00
6180
C100
8200
8400
8F00
8180
80C0
80C0
80C0
8180
9F00
ENDCHAR
STARTCHAR 1EA0
ENCODING 7840
SWIDTH 720 0
DWIDTH 12 0
BBX 12 15 0 -3
BITMAP
0600
0600
0B00
0900
1980
1080
3080
2040
3FC0
4060
4020
C030
0000
0000
0600
ENDCHAR
STARTCHAR 1EA1
ENCODING 7841
SWIDTH 600 0
DWIDTH 10 0
BBX 7 12 1 -3
BITMAP
7C
C6
02
02
7E
82
82
86
7A
00
00
10
ENDCHAR
STARTCHAR 1EA2
ENCODING 7842
SWIDTH 720 0
DWIDTH 12 0
BBX 12 16 0 0
BITMAP
0600
0100
0200
0000
0600
0600
0B00
0900
1980
1080
3080
2040
3FC0
4060
4020
C030
ENDCHAR
STARTCHAR 1EA3
ENCODING 7843
SWIDTH 600 0
DWIDTH 10 0
BBX 7 14 1 0
BITMAP
18
08
08
00
00
7C
C6
02
02
7E
82
82
86
7A
ENDCHAR
STARTCHAR 1EA4
ENCODING 7844
SWIDTH 720 0
DWIDTH 12 0
BBX 12 16 0 0
BITMAP
0040
0680
0900
0000
0600
0600
0B00
0900
1980
1080
3080
2040
3FC0
4060
4020
C030
ENDCHAR
STARTCHAR 1EA5
ENCODING 7845
SWIDTH 600 0
DWIDTH 10 0
BBX 8 14 1 0
BITMAP
01
02
38
44
00
7C
C6
02
02
7E
82
82
86
7A
ENDCHAR
STARTCHAR 1EA6
ENCODING 7846
SWIDTH 720 0
DWIDTH 12 0
BBX 12 16 0 0
BITMAP
0100
0680
0900
0000
0600
0600
0B00
0900
1980
1080
3080
2040
3FC0
4060
4020
C030
ENDCHAR
STARTCHAR 1EA7
ENCODING 7847
SWIDTH 600 0
DWIDTH 10 0
BBX 7 14 1 0
BITMAP
0C
02
38
44
00
7C
C6
02
02
7E
82
82
86
7A
ENDCHAR
STARTCHAR 1EA8
ENCODING 7848
SWIDTH 720 0
DWIDTH 12 0
BBX 12 17 0 0
BITMAP
0180
0080
0680
0900
0000
0600
0600
0B00
0900
1980
1080
3080
2040
3FC0
4060
4020
C030
ENDCHAR
STARTCHAR 1EA9
ENCODING 7849
SWIDTH 600 0
DWIDTH 10 0
BBX 7 14 1 0
BITMAP
06
02
38
44
00
7C
C6
02
02
7E
82
82
86
7A
ENDCHAR
STARTCHAR 1EAA
ENCODING 7850
SWIDTH 720 0
DWIDTH 12 0
BBX 12 17 0 0
BITMAP
0C80
1300
0600
0900
0000
0600
0600
0B00
0900
1980
1080
3080
2040
3FC0
4060
4020
C030
ENDCHAR
STARTCHAR 1EAB
ENCODING 7851
SWIDTH 600 0
DWIDTH 10 0
BBX 7 15 1 0
BITMAP
20
54
08
38
44
00
7C
C6
02
02
7E
82
82
86
7A
ENDCHAR
STARTCHAR 1EAC
ENCODING 7852
SWIDTH 720 0
DWIDTH 12 0
BBX 12 18 0 -3
BITMAP
0600
0900
0000
0600
0600
0B00
0900
1980
1080
3080
2040
3FC0
4060
4020
C030
0000
0000
0600
ENDCHAR
STARTCHAR 1EAD
ENCODING 7853
SWIDTH 600 0
DWIDTH 10 0
BBX 7 15 1 -3
BITMAP
18
24
00
7C
C6
02
02
7E
82
82
86
7A
00
00
10
ENDCHAR
STARTCHAR 1EAE
ENCODING 7854
SWIDTH 720 0
DWIDTH 12 0
BBX 12 17 0 0
BITMAP
0100
0200
1000
0F00
0000
0600
0600
0B00
0900
1980
1080
3080
2040
3FC0
4060
4020
C030
ENDCHAR
STARTCHAR 1EAF
ENCODING 7855
SWIDTH 600 0
DWIDTH 10 0
BBX 7 15 1 0
BITMAP
0C
10
00
44
38
00
7C
C6
02
02
7E
82
82
86
7A
ENDCHAR
STARTCHAR 1EB0
ENCODING 7856
SWIDTH 720 0
DWIDTH 12 0
BBX 12 17 0 0
BITMAP
0800
0400
1000
0F00
0000
0600
0600
0B00
0900
1980
1080
3080
2040
3FC0
4060
4020
C030
ENDCHAR
STARTCHAR 1EB1
ENCODING 7857
SWIDTH 600 0
DWIDTH 10 0
BBX 7 15 1 0
BITMAP
20
10
00
44
38
00
7C
C6
02
02
7E
82
82
86
7A
ENDCHAR
STARTCHAR 1EB2
ENCODING 7858
SWIDTH 720 0
DWIDTH 12 0
BBX 12 17 0 0
BITMAP
0600
0200
1000
0F00
0000
0600
0600
0B00
0900
1980
1080
3080
2040
3FC0
4060
4020
C030
ENDCHAR
STARTCHAR 1EB3
ENCODING 7859
SWIDTH 600 0
DWIDTH 10 0
BBX 7 14 1 0
BITMAP
18
08
44
38
00
7C
C6
02
02
7E
82
82
86
7A
ENDCHAR
STARTCHAR 1EB4
ENCODING 7860
SWIDTH 720 0
DWIDTH 12 0
BBX 12 17 0 0
BITMAP
0800
1480
1300
0F00
0000
0600
0600
0B00
0900
1980
1080
3080
2040
3FC0
4060
4020
C030
ENDCHAR
STARTCHAR 1EB5
ENCODING 7861
SWIDTH 600 0
DWIDTH 10 0
BBX 7 14 1 0
BITMAP
70
4C
44
38
00
7C
C6
02
02
7E
82
82
86
7A
ENDCHAR
STARTCHAR 1EB6
ENCODING 7862
SWIDTH 720 0
DWIDTH 12 0
BBX 12 18 0 -3
BITMAP
1100
0F00
0000
0600
0600
0B00
0900
1980
1080
3080
2040
3FC0
4060
4020
C030
0000
0000
0600
ENDCHAR
STARTCHAR 1EB7
ENCODING 7863
SWIDTH 600 0
DWIDTH 10 0
BBX 7 15 1 -3
BITMAP
44
38
00
7C
C6
02
02
7E
82
82
86
7A
00
00
10
ENDCHAR
STARTCHAR 1EB8
ENCODING 7864
SWIDTH 660 0
DWIDTH 11 0
BBX 8 15 2 -3
BITMAP
FF
80
80
80
80
FE
80
80
80
80
80
FF
00
00
18
ENDCHAR
STARTCHAR 1EB9
ENCODING 7865
SWIDTH 600 0
DWIDTH 10 0
BBX 8 12 1 -3
BITMAP
3C
42
81
81
FF
80
80
63
3E
00
00
18
ENDCHAR
STARTCHAR 1EBA
ENCODING 7866
SWIDTH 660 0
DWIDTH 11 0
BBX 8 16 2 0
BITMAP
18
08
08
00
FF
80
80
80
80
FE
80
80
80
80
80
FF
ENDCHAR
STARTCHAR 1EBB
ENCODING 7867
SWIDTH 600 0
DWIDTH 10 0
BBX 8 14 1 0
BITMAP
18
04
08
08
00
3C
42
81
81
FF
80
80
63
3E
ENDCHAR
STARTCHAR 1EBC
ENCODING 7868
SWIDTH 660 0
DWIDTH 11 0
BBX 8 15 2 0
BITMAP
32
4C
00
FF
80
80
80
80
FE
80
80
80
80
80
FF
ENDCHAR
STARTCHAR 1EBD
ENCODING 7869
SWIDTH 600 0
DWIDTH 10 0
BBX 8 12 1 0
BITMAP
32
4C
00
3C
42
81
81
FF
80
80
63
3E
ENDCHAR
STARTCHAR 1EBE
ENCODING 7870
SWIDTH 660 0
DWIDTH 11 0
BBX 8 16 2 0
BITMAP
01
1A
24
00
FF
80
80
80
80
FE
80
80
80
80
80
FF
ENDCHAR
STARTCHAR 1EBF
ENCODING 7871
SWIDTH 600 0
DWIDTH 10 0
BBX 9 14 1 0
BITMAP
0180
0200
1800
6600
0000
3C00
4200
8100
8100
FF00
8000
8000
6300
3E00
ENDCHAR
STARTCHAR 1EC0
ENCODING 7872
SWIDTH 660 0
DWIDTH 11 0
BBX 8 16 2 0
BITMAP
04
1A
24
00
FF
80
80
80
80
FE
80
80
80
80
80
FF
ENDCHAR
STARTCHAR 1EC1
ENCODING 7873
SWIDTH 600 0
DWIDTH 10 0
BBX 8 14 1 0
BITMAP
04
02
18
66
00
3C
42
81
81
FF
80
80
63
3E
ENDCHAR
STARTCHAR 1EC2
ENCODING 7874
SWIDTH 660 0
DWIDTH 11 0
BBX 8 17 2 0
BITMAP
04
02
1A
24
00
FF
80
80
80
80
FE
80
80
80
80
80
FF
ENDCHAR
STARTCHAR 1EC3
ENCODING 7875
SWIDTH 600 0
DWIDTH 10 0
BBX 8 14 1 0
BITMAP
06
02
18
66
00
3C
42
81
81
FF
80
80
63
3E
ENDCHAR
STARTCHAR 1EC4
ENCODING 7876
SWIDTH 660 0
DWIDTH 11 0
BBX 8 17 2 0
BITMAP
30
4C
18
24
00
FF
80
80
80
80
FE
80
80
80
80
80
FF
ENDCHAR
STARTCHAR 1EC5
ENCODING 7877
SWIDTH 600 0
DWIDTH 10 0
BBX 8 15 1 0
BITMAP
30
5A
04
18
66
00
3C
42
81
81
FF
80
80
63
3E
ENDCHAR
STARTCHAR 1EC6
ENCODING 7878
SWIDTH 660 0
DWIDTH 11 0
BBX 8 18 2 -3
BITMAP
18
24
00
FF
80
80
80
80
FE
80
80
80
80
80
FF
00
00
18
ENDCHAR
STARTCHAR 1EC7
ENCODING 7879
SWIDTH 600 0
DWIDTH 10 0
BBX 8 15 1 -3
BITMAP
18
24
00
3C
42
81
81
FF
80
80
63
3E
00
00
18
ENDCHAR
STARTCHAR 1EC8
ENCODING 7880
SWIDTH 300 0
DWIDTH 5 0
BBX 3 16 1 0
BITMAP
E0
20
20
00
40
40
40
40
40
40
40
40
40
40
40
40
ENDCHAR
STARTCHAR 1EC9
ENCODING 7881
SWIDTH 240 0
DWIDTH 4 0
BBX 3 14 1 0
BITMAP
C0
20
20
40
00
40
40
40
40
40
40
40
40
40
ENDCHAR
STARTCHAR 1ECA
ENCODING 7882
SWIDTH 300 0
DWIDTH 5 0
BBX 1 15 2 -3
BITMAP
80
80
80
80
80
80
80
80
80
80
80
80
00
00
80
ENDCHAR
STARTCHAR 1ECB
ENCODING 7883
SWIDTH 240 0
DWIDTH 4 0
BBX 2 16 1 -3
BITMAP
C0
40
00
00
40
40
40
40
40
40
40
40
40
00
00
40
ENDCHAR
STARTCHAR 1ECC
ENCODING 7884
SWIDTH 840 0
DWIDTH 14 0
BBX 12 15 1 -3
BITMAP
1F80
30C0
4060
C030
8010
8010
8010
8010
C030
4020
30C0
1F80
0000
0000
0600
ENDCHAR
STARTCHAR 1ECD
ENCODING 7885
SWIDTH 600 0
DWIDTH 10 0
BBX 9 12 1 -3
BITMAP
3C00
6300
8100
8180
8180
8180
8100
6300
3C00
0000
0000
0800
ENDCHAR
STARTCHAR 1ECE
ENCODING 7886
SWIDTH 840 0
DWIDTH 14 0
BBX 12 16 1 0
BITMAP
0600
0100
0200
0000
1F80
30C0
4060
C030
8010
8010
8010
8010
C030
4020
30C0
1F80
ENDCHAR
STARTCHAR 1ECF
ENCODING 7887
SWIDTH 600 0
DWIDTH 10 0
BBX 9 14 1 0
BITMAP
1800
0400
0400
0800
0000
3C00
6300
8100
8180
8180
8180
8100
6300
3C00
ENDCHAR
STARTCHAR 1ED0
ENCODING 7888
SWIDTH 840 0
DWIDTH 14 0
BBX 12 16 1 0
BITMAP
0040
0680
0900
0000
1F80
30C0
4060
C030
8010
8010
8010
8010
C030
4020
30C0
1F80
ENDCHAR
STARTCHAR 1ED1
ENCODING 7889
SWIDTH 600 0
DWIDTH 10 0
BBX 9 14 1 0
BITMAP
0180
0300
1800
2600
0000
3C00
6300
8100
8180
8180
8180
8100
6300
3C00
ENDCHAR
STARTCHAR 1ED2
ENCODING 7890
SWIDTH 840 0
DWIDTH 14 0
BBX 12 16 1 0
BITMAP
0100
0680
0900
0000
1F80
30C0
4060
C030
8010
8010
8010
8010
C030
4020
30C0
1F80
ENDCHAR
STARTCHAR 1ED3
ENCODING 7891
SWIDTH 600 0
DWIDTH 10 0
BBX 9 14 1 0
BITMAP
0400
0200
1800
2600
0000
3C00
6300
8100
8180
8180
8180
8100
6300
3C00
ENDCHAR
STARTCHAR 1ED4
ENCODING 7892
SWIDTH 840 0
DWIDTH 14 0
BBX 12 17 1 0
BITMAP
0180
0080
0680
0900
0000
1F80
30C0
4060
C030
8010
8010
8010
8010
C030
4020
30C0
1F80
ENDCHAR
STARTCHAR 1ED5
ENCODING 7893
SWIDTH 600 0
DWIDTH 10 0
BBX 9 14 1 0
BITMAP
0600
0200
1800
2600
0000
3C00
6300
8100
8180
8180
8180
8100
6300
3C00
ENDCHAR
STARTCHAR 1ED6
ENCODING 7894
SWIDTH 840 0
DWIDTH 14 0
BBX 12 17 1 0
BITMAP
0C00
1300
0000
0F00
0000
1F80
30C0
4060
C030
8010
8010
8010
8010
C030
4020
30C0
1F80
ENDCHAR
STARTCHAR 1ED7
ENCODING 7895
SWIDTH 600 0
DWIDTH 10 0
BBX 9 15 1 0
BITMAP
3000
2A00
0400
1800
2600
0000
3C00
6300
8100
8180
8180
8180
8100
6300
3C00
ENDCHAR
STARTCHAR 1ED8
ENCODING 7896
SWIDTH 840 0
DWIDTH 14 0
BBX 12 18 1 -3
BITMAP
0600
0900
0000
1F80
30C0
4060
C030
8010
8010
8010
8010
C030
4020
30C0
1F80
0000
0000
0600
ENDCHAR
STARTCHAR 1ED9
ENCODING 7897
SWIDTH 600 0
DWIDTH 10 0
BBX 9 15 1 -3
BITMAP
1800
2400
0000
3C00
6300
8100
8180
8180
8180
8100
6300
3C00
0000
0000
0800
ENDCHAR
STARTCHAR 1EDA
ENCODING 7898
SWIDTH 840 0
DWIDTH 14 0
BBX 12 15 1 0
BITMAP
0100
0210
0410
1FE0
30C0
4060
C030
8010
8010
8010
8010
C030
4060
30C0
1F80
ENDCHAR
STARTCHAR 1EDB
ENCODING 7899
SWIDTH 600 0
DWIDTH 10 0
BBX 9 12 1 0
BITMAP
0400
0900
0100
3F00
6300
8100
8180
8180
8180
8100
6300
3C00
ENDCHAR
STARTCHAR 1EDC
ENCODING 7900
SWIDTH 840 0
DWIDTH 14 0
BBX 12 15 1 0
BITMAP
0800
0410
0210
1FE0
30C0
4060
C030
8010
8010
8010
8010
C030
4060
30C0
1F80
ENDCHAR
STARTCHAR 1EDD
ENCODING 7901
SWIDTH 600 0
DWIDTH 10 0
BBX 9 12 1 0
BITMAP
3000
1900
0100
3F00
6300
8100
8180
8180
8180
8100
6300
3C00
ENDCHAR
STARTCHAR 1EDE
ENCODING 7902
SWIDTH 840 0
DWIDTH 14 0
BBX 12 16 1 0
BITMAP
0600
0100
0210
0010
1FE0
30C0
4060
C030
8010
8010
8010
8010
C030
4060
30C0
1F80
ENDCHAR
STARTCHAR 1EDF
ENCODING 7903
SWIDTH 600 0
DWIDTH 10 0
BBX 9 14 1 0
BITMAP
1800
0400
0400
0900
0100
3F00
6300
8100
8180
8180
8180
8100
6300
3C00
ENDCHAR
STARTCHAR 1EE0
ENCODING 7904
SWIDTH 840 0
DWIDTH 14 0
BBX 12 15 1 0
BITMAP
0C80
1310
0010
1FE0
30C0
4060
C030
8010
8010
8010
8010
C030
4060
30C0
1F80
ENDCHAR
STARTCHAR 1EE1
ENCODING 7905
SWIDTH 660 0
DWIDTH 11 0
BBX 9 12 1 0
BITMAP
3200
0D00
0100
3F00
6300
8100
8180
8180
8180
8100
6300
3C00
ENDCHAR
STARTCHAR 1EE2
ENCODING 7906
SWIDTH 840 0
DWIDTH 14 0
BBX 12 17 1 -3
BITMAP
0010
0010
1FE0
30C0
4060
C030
8010
8010
8010
8010
C030
4060
30C0
1F80
0000
0000
0600
ENDCHAR
STARTCHAR 1EE3
ENCODING 7907
SWIDTH 600 0
DWIDTH 10 0
BBX 9 14 1 -3
BITMAP
0100
0100
3F00
6300
8100
8180
8180
8180
8100
6300
3C00
0000
0000
0800
ENDCHAR
STARTCHAR 1EE4
ENCODING 7908
SWIDTH 780 0
DWIDTH 13 0
BBX 9 15 2 -3
BITMAP
8080
8080
8080
8080
8080
8080
8080
8080
8080
C080
6300
3E00
0000
0000
0800
ENDCHAR
STARTCHAR 1EE5
ENCODING 7909
SWIDTH 660 0
DWIDTH 11 0
BBX 8 12 2 -3
BITMAP
83
83
83
83
83
83
83
C7
7B
00
00
10
ENDCHAR
STARTCHAR 1EE6
ENCODING 7910
SWIDTH 780 0
DWIDTH 13 0
BBX 9 16 2 0
BITMAP
1C00
0400
0400
0000
8080
8080
8080
8080
8080
8080
8080
8080
8080
C080
6300
3E00
ENDCHAR
STARTCHAR 1EE7
ENCODING 7911
SWIDTH 660 0
DWIDTH 11 0
BBX 8 14 2 0
BITMAP
10
08
08
00
00
83
83
83
83
83
83
83
C7
7B
ENDCHAR
STARTCHAR 1EE8
ENCODING 7912
SWIDTH 780 0
DWIDTH 13 0
BBX 11 15 2 0
BITMAP
0600
0820
0020
80C0
8080
8080
8080
8080
8080
8080
8080
8080
C080
6300
3E00
ENDCHAR
STARTCHAR 1EE9
ENCODING 7913
SWIDTH 660 0
DWIDTH 11 0
BBX 9 12 2 0
BITMAP
0C00
1080
0080
8300
8300
8300
8300
8300
8300
8300
C700
7B00
ENDCHAR
STARTCHAR 1EEA
ENCODING 7914
SWIDTH 780 0
DWIDTH 13 0
BBX 11 15 2 0
BITMAP
3000
0820
0020
80C0
8080
8080
8080
8080
8080
8080
8080
8080
C080
6300
3E00
ENDCHAR
STARTCHAR 1EEB
ENCODING 7915
SWIDTH 660 0
DWIDTH 11 0
BBX 9 12 2 0
BITMAP
6000
1080
0080
8300
8300
8300
8300
8300
8300
8300
C700
7B00
ENDCHAR
STARTCHAR 1EEC
ENCODING 7916
SWIDTH 780 0
DWIDTH 13 0
BBX 11 16 2 0
BITMAP
1C00
0400
0420
0020
80C0
8080
8080
8080
8080
8080
8080
8080
8080
C080
6300
3E00
ENDCHAR
STARTCHAR 1EED
ENCODING 7917
SWIDTH 660 0
DWIDTH 11 0
BBX 9 14 2 0
BITMAP
1000
0800
0880
0080
0080
8300
8300
8300
8300
8300
8300
8300
C700
7B00
ENDCHAR
STARTCHAR 1EEE
ENCODING 7918
SWIDTH 780 0
DWIDTH 13 0
BBX 11 15 2 0
BITMAP
3A00
2620
0020
80C0
8080
8080
8080
8080
8080
8080
8080
8080
C080
6300
3E00
ENDCHAR
STARTCHAR 1EEF
ENCODING 7919
SWIDTH 660 0
DWIDTH 11 0
BBX 9 12 2 0
BITMAP
7400
4C80
0080
8300
8300
8300
8300
8300
8300
8300
C700
7B00
ENDCHAR
STARTCHAR 1EF0
ENCODING 7920
SWIDTH 780 0
DWIDTH 13 0
BBX 11 17 2 -3
BITMAP
0020
0020
80C0
8080
8080
8080
8080
8080
8080
8080
8080
C080
6300
3E00
0000
0000
0800
ENDCHAR
STARTCHAR 1EF1
ENCODING 7921
SWIDTH 660 0
DWIDTH 11 0
BBX 9 14 2 -3
BITMAP
0080
0080
8300
8300
8300
8300
8300
8300
8300
C700
7B00
0000
0000
1000
ENDCHAR
STARTCHAR 1EF2
ENCODING 7922
SWIDTH 660 0
DWIDTH 11 0
BBX 10 15 0 0
BITMAP
1800
0C00
0000
C040
40C0
6080
2100
1100
1A00
0E00
0C00
0400
0400
0400
0400
ENDCHAR
STARTCHAR 1EF3
ENCODING 7923
SWIDTH 540 0
DWIDTH 9 0
BBX 9 16 0 -4
BITMAP
3000
0800
0000
8080
4100
4100
6300
2200
2200
1400
1400
0C00
0800
0800
1000
E000
ENDCHAR
STARTCHAR 1EF4
ENCODING 7924
SWIDTH 660 0
DWIDTH 11 0
BBX 10 15 0 -3
BITMAP
C040
40C0
6080
2100
1100
1A00
0E00
0C00
0400
0400
0400
0400
0000
0000
0400
ENDCHAR
STARTCHAR 1EF5
ENCODING 7925
SWIDTH 540 0
DWIDTH 9 0
BBX 9 13 0 -4
BITMAP
8080
4100
4100
6300
2200
2200
1400
1400
0C00
0800
0800
1000
E200
ENDCHAR
STARTCHAR 1EF6
ENCODING 7926
SWIDTH 660 0
DWIDTH 11 0
BBX 10 16 0 0
BITMAP
0C00
0200
0400
0000
C040
40C0
6080
2100
1100
1A00
0E00
0C00
0400
0400
0400
0400
ENDCHAR
STARTCHAR 1EF7
ENCODING 7927
SWIDTH 540 0
DWIDTH 9 0
BBX 9 18 0 -4
BITMAP
1800
0400
0400
0800
0000
8080
4100
4100
6300
2200
2200
1400
1400
0C00
0800
0800
1000
E000
ENDCHAR
STARTCHAR 1EF8
ENCODING 7928
SWIDTH 660 0
DWIDTH 11 0
BBX 10 15 0 0
BITMAP
1900
0600
0000
C040
40C0
6080
2100
1100
1A00
0E00
0C00
0400
0400
0400
0400
ENDCHAR
STARTCHAR 1EF9
ENCODING 7929
SWIDTH 540 0
DWIDTH 9 0
BBX 9 16 0 -4
BITMAP
3200
0C00
0000
8080
4100
4100
6300
2200
2200
1400
1400
0C00
0800
0800
1000
E000
ENDCHAR
STARTCHAR 2007
ENCODING 8199
SWIDTH 720 0
DWIDTH 12 0
BBX 0 0 0 0
BITMAP
ENDCHAR
STARTCHAR 2008
ENCODING 8200
SWIDTH 240 0
DWIDTH 4 0
BBX 0 0 0 0
BITMAP
ENDCHAR
STARTCHAR 2009
ENCODING 8201
SWIDTH 120 0
DWIDTH 2 0
BBX 0 0 0 0
BITMAP
ENDCHAR
STARTCHAR 200A
ENCODING 8202
SWIDTH 120 0
DWIDTH 2 0
BBX 0 0 0 0
BITMAP
ENDCHAR
STARTCHAR 200B
ENCODING 8203
SWIDTH 0 0
DWIDTH 0 0
BBX 0 0 0 0
BITMAP
ENDCHAR
STARTCHAR 2010
ENCODING 8208
SWIDTH 360 0
DWIDTH 6 0
BBX 4 1 1 4
BITMAP
F0
ENDCHAR
STARTCHAR 2012
ENCODING 8210
SWIDTH 720 0
DWIDTH 12 0
BBX 10 1 1 5
BITMAP
FFC0
ENDCHAR
STARTCHAR 2013
ENCODING 8211
SWIDTH 480 0
DWIDTH 8 0
BBX 8 1 0 4
BITMAP
FF
ENDCHAR
STARTCHAR 2014
ENCODING 8212
SWIDTH 1020 0
DWIDTH 17 0
BBX 17 1 0 4
BITMAP
FFFF80
ENDCHAR
STARTCHAR 2015
ENCODING 8213
SWIDTH 1020 0
DWIDTH 17 0
BBX 17 1 0 4
BITMAP
FFFF80
ENDCHAR
STARTCHAR 2018
ENCODING 8216
SWIDTH 240 0
DWIDTH 4 0
BBX 2 4 1 9
BITMAP
80
80
80
C0
ENDCHAR
STARTCHAR 2019
ENCODING 8217
SWIDTH 240 0
DWIDTH 4 0
BBX 2 4 1 9
BITMAP
C0
C0
80
80
ENDCHAR
STARTCHAR 201A
ENCODING 8218
SWIDTH 240 0
DWIDTH 4 0
BBX 2 4 1 -2
BITMAP
80
C0
80
80
ENDCHAR
STARTCHAR 201C
ENCODING 8220
SWIDTH 360 0
DWIDTH 6 0
BBX 4 4 1 9
BITMAP
90
90
90
D0
ENDCHAR
STARTCHAR 201D
ENCODING 8221
SWIDTH 360 0
DWIDTH 6 0
BBX 4 4 1 9
BITMAP
D0
D0
90
90
ENDCHAR
STARTCHAR 201E
ENCODING 8222
SWIDTH 360 0
DWIDTH 6 0
BBX 4 4 1 -2
BITMAP
90
D0
90
90
ENDCHAR
STARTCHAR 2020
ENCODING 8224
SWIDTH 540 0
DWIDTH 9 0
BBX 9 16 0 -4
BITMAP
0800
0800
0800
0800
0800
FF80
0800
0800
0800
0800
0800
0800
0800
0800
0800
0800
ENDCHAR
STARTCHAR 2021
ENCODING 8225
SWIDTH 540 0
DWIDTH 9 0
BBX 9 16 0 -4
BITMAP
0800
0800
0800
0800
0800
FF80
0800
0800
0800
0800
FF80
0800
0800
0800
0800
0800
ENDCHAR
STARTCHAR 2022
ENCODING 8226
SWIDTH 300 0
DWIDTH 5 0
BBX 3 3 1 3
BITMAP
C0
E0
40
ENDCHAR
STARTCHAR 2026
ENCODING 8230
SWIDTH 660 0
DWIDTH 11 0
BBX 9 2 1 0
BITMAP
8980
C980
ENDCHAR
STARTCHAR 2030
ENCODING 8240
SWIDTH 1200 0
DWIDTH 20 0
BBX 18 12 1 0
BITMAP
704000
888000
888000
890000
8A0000
92E380
651440
091440
091440
111440
211440
20E380
ENDCHAR
STARTCHAR 2032
ENCODING 8242
SWIDTH 180 0
DWIDTH 3 0
BBX 1 4 1 8
BITMAP
80
80
80
80
ENDCHAR
STARTCHAR 2033
ENCODING 8243
SWIDTH 360 0
DWIDTH 6 0
BBX 4 4 1 8
BITMAP
90
90
90
90
ENDCHAR
STARTCHAR 2039
ENCODING 8249
SWIDTH 300 0
DWIDTH 5 0
BBX 3 6 1 1
BITMAP
20
40
80
80
40
20
ENDCHAR
STARTCHAR 203A
ENCODING 8250
SWIDTH 300 0
DWIDTH 5 0
BBX 3 6 1 1
BITMAP
80
40
20
20
40
80
ENDCHAR
STARTCHAR 2044
ENCODING 8260
SWIDTH 180 0
DWIDTH 3 0
BBX 9 12 -3 0
BITMAP
0080
0100
0200
0200
0400
0800
0800
1000
2000
2000
4000
8000
ENDCHAR
STARTCHAR 2052
ENCODING 8274
SWIDTH 540 0
DWIDTH 9 0
BBX 6 12 1 0
BITMAP
C4
48
08
08
10
10
10
20
20
20
44
44
ENDCHAR
STARTCHAR 2070
ENCODING 8304
SWIDTH 420 0
DWIDTH 7 0
BBX 6 7 1 6
BITMAP
70
88
84
84
84
88
70
ENDCHAR
STARTCHAR 2074
ENCODING 8308
SWIDTH 420 0
DWIDTH 7 0
BBX 7 7 0 6
BITMAP
10
10
20
48
FE
08
08
ENDCHAR
STARTCHAR 2075
ENCODING 8309
SWIDTH 420 0
DWIDTH 7 0
BBX 5 7 1 6
BITMAP
F8
80
80
F8
08
08
F0
ENDCHAR
STARTCHAR 2076
ENCODING 8310
SWIDTH 420 0
DWIDTH 7 0
BBX 6 8 1 5
BITMAP
78
80
80
F8
88
84
88
70
ENDCHAR
STARTCHAR 2077
ENCODING 8311
SWIDTH 420 0
DWIDTH 7 0
BBX 6 7 1 6
BITMAP
FC
88
08
10
10
20
40
ENDCHAR
STARTCHAR 2078
ENCODING 8312
SWIDTH 420 0
DWIDTH 7 0
BBX 6 7 1 6
BITMAP
78
88
88
78
88
84
F8
ENDCHAR
STARTCHAR 2079
ENCODING 8313
SWIDTH 420 0
DWIDTH 7 0
BBX 5 8 1 5
BITMAP
70
88
88
88
78
08
18
E0
ENDCHAR
STARTCHAR 2080
ENCODING 8320
SWIDTH 420 0
DWIDTH 7 0
BBX 6 7 1 -2
BITMAP
70
88
84
84
84
88
70
ENDCHAR
STARTCHAR 2081
ENCODING 8321
SWIDTH 420 0
DWIDTH 7 0
BBX 5 7 1 -2
BITMAP
60
20
20
20
20
20
F8
ENDCHAR
STARTCHAR 2082
ENCODING 8322
SWIDTH 420 0
DWIDTH 7 0
BBX 5 7 1 -2
BITMAP
F0
08
08
10
20
40
F8
ENDCHAR
STARTCHAR 2083
ENCODING 8323
SWIDTH 420 0
DWIDTH 7 0
BBX 5 7 1 -2
BITMAP
F8
10
20
30
08
08
F0
ENDCHAR
STARTCHAR 2084
ENCODING 8324
SWIDTH 420 0
DWIDTH 7 0
BBX 7 7 0 -2
BITMAP
10
10
20
48
FE
08
08
ENDCHAR
STARTCHAR 2085
ENCODING 8325
SWIDTH 420 0
DWIDTH 7 0
BBX 5 7 1 -2
BITMAP
F8
80
80
F8
08
08
F0
ENDCHAR
STARTCHAR 2086
ENCODING 8326
SWIDTH 420 0
DWIDTH 7 0
BBX 6 7 1 -2
BITMAP
78
80
B0
C8
84
88
78
ENDCHAR
STARTCHAR 2087
ENCODING 8327
SWIDTH 420 0
DWIDTH 7 0
BBX 6 7 1 -2
BITMAP
FC
88
08
10
10
20
20
ENDCHAR
STARTCHAR 2088
ENCODING 8328
SWIDTH 420 0
DWIDTH 7 0
BBX 6 7 1 -2
BITMAP
78
88
88
78
84
84
F8
ENDCHAR
STARTCHAR 2089
ENCODING 8329
SWIDTH 420 0
DWIDTH 7 0
BBX 5 7 1 -2
BITMAP
F0
88
88
F8
08
08
F0
ENDCHAR
STARTCHAR 20A1
ENCODING 8353
SWIDTH 720 0
DWIDTH 12 0
BBX 10 16 1 -2
BITMAP
0280
0480
1F80
34C0
6540
C900
8900
8A00
8A00
9200
D200
5400
34C0
1F80
2400
2000
ENDCHAR
STARTCHAR 20A3
ENCODING 8355
SWIDTH 660 0
DWIDTH 11 0
BBX 10 12 0 0
BITMAP
3FC0
2000
2000
2000
2000
2000
3FC0
2000
2000
FE00
2000
2000
ENDCHAR
STARTCHAR 20A4
ENCODING 8356
SWIDTH 660 0
DWIDTH 11 0
BBX 10 12 0 0
BITMAP
0FC0
1840
1000
3000
FF00
3000
3000
FF00
3000
3000
3000
FFC0
ENDCHAR
STARTCHAR 20A6
ENCODING 8358
SWIDTH 900 0
DWIDTH 15 0
BBX 14 12 0 0
BITMAP
3010
3810
3810
3410
FFFC
3310
3110
FFFC
30D0
3070
3030
3010
ENDCHAR
STARTCHAR 20A7
ENCODING 8359
SWIDTH 1620 0
DWIDTH 27 0
BBX 24 12 2 0
BITMAP
FE0000
830800
818800
80BF1F
808821
818820
810820
FE081E
800801
800801
800861
80073E
ENDCHAR
STARTCHAR 20A9
ENCODING 8361
SWIDTH 1200 0
DWIDTH 20 0
BBX 19 12 0 0
BITMAP
406060
606040
20A040
20B0C0
FFFFE0
111080
111980
FFFFE0
0A0900
0A0F00
0E0600
040600
ENDCHAR
STARTCHAR 20AB
ENCODING 8363
SWIDTH 660 0
DWIDTH 11 0
BBX 10 15 1 -2
BITMAP
0180
0FC0
0180
0180
3D80
6380
8180
8180
8180
8180
8180
6280
3C80
0000
FF80
ENDCHAR
STARTCHAR 20AC
ENCODING 8364
SWIDTH 780 0
DWIDTH 13 0
BBX 12 12 0 0
BITMAP
03E0
0E30
0800
1000
1000
FF80
2000
FF80
1000
1800
0C10
03E0
ENDCHAR
STARTCHAR 20AD
ENCODING 8365
SWIDTH 600 0
DWIDTH 10 0
BBX 10 12 0 0
BITMAP
20C0
2080
2100
2200
2600
2C00
FF80
2400
2600
2300
2180
20C0
ENDCHAR
STARTCHAR 20AE
ENCODING 8366
SWIDTH 660 0
DWIDTH 11 0
BBX 9 12 1 0
BITMAP
FF80
0800
0800
0900
0E00
1800
2B00
0C00
3800
4800
0800
0800
ENDCHAR
STARTCHAR 20B1
ENCODING 8369
SWIDTH 840 0
DWIDTH 14 0
BBX 13 12 0 0
BITMAP
3F80
3060
FFF8
3020
3020
FFF8
3060
3FC0
3000
3000
3000
3000
ENDCHAR
STARTCHAR 20B2
ENCODING 8370
SWIDTH 780 0
DWIDTH 13 0
BBX 10 16 1 -2
BITMAP
0400
0400
0F80
34C0
6440
C400
8400
8400
8440
8440
C440
4440
34C0
1F80
0400
0400
ENDCHAR
STARTCHAR 20B4
ENCODING 8372
SWIDTH 840 0
DWIDTH 14 0
BBX 10 12 2 0
BITMAP
3E00
4100
0080
0080
FFC0
0000
0000
FFC0
4000
4000
6180
3F00
ENDCHAR
STARTCHAR 20B5
ENCODING 8373
SWIDTH 720 0
DWIDTH 12 0
BBX 10 16 1 -2
BITMAP
0400
0400
1F00
34C0
6440
C400
8400
8400
8400
8400
C400
4400
34C0
1F80
0400
0400
ENDCHAR
STARTCHAR 20B8
ENCODING 8376
SWIDTH 720 0
DWIDTH 12 0
BBX 10 12 1 0
BITMAP
FFC0
0000
FFC0
0C00
0C00
0C00
0C00
0C00
0C00
0C00
0C00
0C00
ENDCHAR
STARTCHAR 20B9
ENCODING 8377
SWIDTH 720 0
DWIDTH 12 0
BBX 11 12 0 0
BITMAP
FFE0
0180
FFE0
0080
0080
0080
0100
3E00
0200
0100
0180
0080
ENDCHAR
STARTCHAR 20BA
ENCODING 8378
SWIDTH 720 0
DWIDTH 12 0
BBX 11 12 0 0
BITMAP
3000
3100
3600
3800
3300
FC00
3020
F060
3040
30C0
3180
3E00
ENDCHAR
STARTCHAR 20BC
ENCODING 8380
SWIDTH 900 0
DWIDTH 15 0
BBX 11 14 2 0
BITMAP
0400
0400
1F00
34C0
4440
C420
8420
8420
8420
8420
8420
8420
8020
8020
ENDCHAR
STARTCHAR 20BD
ENCODING 8381
SWIDTH 720 0
DWIDTH 12 0
BBX 11 12 0 0
BITMAP
3F80
2060
2020
2020
2020
2020
2060
3F80
2000
FE00
2000
2000
ENDCHAR
STARTCHAR 2113
ENCODING 8467
SWIDTH 480 0
DWIDTH 8 0
BBX 6 12 1 0
BITMAP
1C
24
24
24
48
48
50
60
C0
40
44
78
ENDCHAR
STARTCHAR 2116
ENCODING 8470
SWIDTH 1200 0
DWIDTH 20 0
BBX 17 12 2 0
BITMAP
80CF00
C0C880
E0D080
B0D080
90C880
88C700
8CC000
86CF80
82C000
81C000
81C000
80C000
ENDCHAR
STARTCHAR 2122
ENCODING 8482
SWIDTH 1020 0
DWIDTH 17 0
BBX 15 7 0 5
BITMAP
FD02
1186
1146
114A
1132
1112
1102
ENDCHAR
STARTCHAR 2126
ENCODING 8486
SWIDTH 900 0
DWIDTH 15 0
BBX 15 12 0 0
BITMAP
07C0
1830
3018
2008
2008
600C
600C
2008
2008
3018
1830
FC7E
ENDCHAR
STARTCHAR 212A
ENCODING 8490
SWIDTH 720 0
DWIDTH 12 0
BBX 9 12 2 0
BITMAP
8080
8100
8200
8400
8800
9000
A800
CC00
8600
8300
8180
8080
ENDCHAR
STARTCHAR 212B
ENCODING 8491
SWIDTH 720 0
DWIDTH 12 0
BBX 12 17 0 0
BITMAP
0400
0B00
0900
0600
0000
0600
0600
0B00
0900
1980
1080
3080
2040
3FC0
4060
4020
C030
ENDCHAR
STARTCHAR 212E
ENCODING 8494
SWIDTH 900 0
DWIDTH 15 0
BBX 13 12 1 0
BITMAP
0F80
3060
4010
C010
C018
C018
FFE0
C000
C000
4000
2020
1FC0
ENDCHAR
STARTCHAR 2153
ENCODING 8531
SWIDTH 1020 0
DWIDTH 17 0
BBX 15 12 1 0
BITMAP
6010
2020
2040
2040
20BE
2104
F904
0208
040C
0402
0802
103C
ENDCHAR
STARTCHAR 2154
ENCODING 8532
SWIDTH 1020 0
DWIDTH 17 0
BBX 15 12 1 0
BITMAP
F010
0820
0840
1040
20BE
4104
F904
0208
040C
0402
0802
103C
ENDCHAR
STARTCHAR 215B
ENCODING 8539
SWIDTH 1020 0
DWIDTH 17 0
BBX 16 12 1 0
BITMAP
6010
2020
2040
2040
2080
213E
F922
0222
041E
0421
0821
103E
ENDCHAR
STARTCHAR 215C
ENCODING 8540
SWIDTH 1020 0
DWIDTH 17 0
BBX 16 12 1 0
BITMAP
F810
1020
2040
3040
0880
093E
F122
0222
041E
0421
0821
103E
ENDCHAR
STARTCHAR 215D
ENCODING 8541
SWIDTH 1020 0
DWIDTH 17 0
BBX 16 12 1 0
BITMAP
F810
8020
8040
F040
0880
093E
F122
0222
041E
0421
0821
103E
ENDCHAR
STARTCHAR 215E
ENCODING 8542
SWIDTH 1020 0
DWIDTH 17 0
BBX 16 12 1 0
BITMAP
FC10
8820
0840
1040
1080
211E
2122
0222
041E
0421
0821
103E
ENDCHAR
STARTCHAR 2190
ENCODING 8592
SWIDTH 600 0
DWIDTH 10 0
BBX 7 7 2 1
BITMAP
20
40
C0
FE
C0
40
20
ENDCHAR
STARTCHAR 2191
ENCODING 8593
SWIDTH 600 0
DWIDTH 10 0
BBX 6 7 2 1
BITMAP
30
68
A4
20
20
20
20
ENDCHAR
STARTCHAR 2192
ENCODING 8594
SWIDTH 600 0
DWIDTH 10 0
BBX 7 7 1 1
BITMAP
08
04
06
FE
06
04
08
ENDCHAR
STARTCHAR 2193
ENCODING 8595
SWIDTH 600 0
DWIDTH 10 0
BBX 6 7 2 1
BITMAP
10
10
10
10
94
78
30
ENDCHAR
STARTCHAR 2194
ENCODING 8596
SWIDTH 660 0
DWIDTH 11 0
BBX 10 7 1 1
BITMAP
2300
4100
C080
FFC0
4080
4100
2300
ENDCHAR
STARTCHAR 2195
ENCODING 8597
SWIDTH 600 0
DWIDTH 10 0
BBX 6 9 2 2
BITMAP
78
A4
20
20
20
20
A4
68
30
ENDCHAR
STARTCHAR 2196
ENCODING 8598
SWIDTH 600 0
DWIDTH 10 0
BBX 6 6 2 2
BITMAP
38
40
A0
90
88
04
ENDCHAR
STARTCHAR 2197
ENCODING 8599
SWIDTH 600 0
DWIDTH 10 0
BBX 6 6 2 2
BITMAP
70
0C
1C
34
64
C0
ENDCHAR
STARTCHAR 2198
ENCODING 8600
SWIDTH 600 0
DWIDTH 10 0
BBX 6 6 2 2
BITMAP
80
44
24
14
0C
78
ENDCHAR
STARTCHAR 2199
ENCODING 8601
SWIDTH 600 0
DWIDTH 10 0
BBX 6 6 2 2
BITMAP
04
88
90
A0
40
78
ENDCHAR
STARTCHAR 2202
ENCODING 8706
SWIDTH 720 0
DWIDTH 12 0
BBX 9 12 1 0
BITMAP
7C00
0300
0100
0080
0080
3E80
6380
C180
C080
C180
6300
3E00
ENDCHAR
STARTCHAR 2205
ENCODING 8709
SWIDTH 600 0
DWIDTH 10 0
BBX 7 7 1 2
BITMAP
3E
42
8E
92
A2
42
BC
ENDCHAR
STARTCHAR 2206
ENCODING 8710
SWIDTH 720 0
DWIDTH 12 0
BBX 12 12 0 0
BITMAP
0600
0600
0B00
0900
1980
1080
3080
2040
2040
4020
4020
FFF0
ENDCHAR
STARTCHAR 220F
ENCODING 8719
SWIDTH 840 0
DWIDTH 14 0
BBX 10 16 2 -4
BITMAP
FFC0
80C0
80C0
80C0
80C0
80C0
80C0
80C0
80C0
80C0
80C0
80C0
80C0
80C0
80C0
80C0
ENDCHAR
STARTCHAR 2211
ENCODING 8721
SWIDTH 660 0
DWIDTH 11 0
BBX 9 16 1 -4
BITMAP
FF80
C000
6000
2000
1000
1800
0C00
0600
0600
0C00
1800
1000
2000
6000
C000
FF80
ENDCHAR
STARTCHAR 2212
ENCODING 8722
SWIDTH 600 0
DWIDTH 10 0
BBX 7 1 1 5
BITMAP
FE
ENDCHAR
STARTCHAR 2215
ENCODING 8725
SWIDTH 360 0
DWIDTH 6 0
BBX 6 16 0 -2
BITMAP
04
04
08
08
08
10
10
10
20
20
20
40
40
C0
80
80
ENDCHAR
STARTCHAR 2219
ENCODING 8729
SWIDTH 300 0
DWIDTH 5 0
BBX 2 2 1 5
BITMAP
40
C0
ENDCHAR
STARTCHAR 221A
ENCODING 8730
SWIDTH 780 0
DWIDTH 13 0
BBX 12 17 1 -4
BITMAP
0010
0010
0020
0020
0020
0040
0040
E040
10C0
1080
1080
0980
0900
0900
0700
0600
0600
ENDCHAR
STARTCHAR 221E
ENCODING 8734
SWIDTH 900 0
DWIDTH 15 0
BBX 14 6 1 3
BITMAP
78F0
8508
8304
8304
8508
78F0
ENDCHAR
STARTCHAR 222B
ENCODING 8747
SWIDTH 360 0
DWIDTH 6 0
BBX 8 17 -1 -4
BITMAP
07
08
08
08
08
08
08
08
08
08
08
08
08
08
08
18
F0
ENDCHAR
STARTCHAR 2248
ENCODING 8776
SWIDTH 600 0
DWIDTH 10 0
BBX 8 7 1 2
BITMAP
61
92
8E
00
61
92
8E
ENDCHAR
STARTCHAR 2260
ENCODING 8800
SWIDTH 600 0
DWIDTH 10 0
BBX 7 9 1 1
BITMAP
04
04
FE
08
10
10
FE
20
40
ENDCHAR
STARTCHAR 2264
ENCODING 8804
SWIDTH 600 0
DWIDTH 10 0
BBX 7 9 1 1
BITMAP
0E
38
C0
60
1C
02
00
00
FE
ENDCHAR
STARTCHAR 2265
ENCODING 8805
SWIDTH 600 0
DWIDTH 10 0
BBX 7 10 1 0
BITMAP
80
E0
1C
02
0E
30
C0
00
00
FE
ENDCHAR
STARTCHAR 25A0
ENCODING 9632
SWIDTH 600 0
DWIDTH 10 0
BBX 6 6 2 1
BITMAP
FC
FC
FC
FC
FC
FC
ENDCHAR
STARTCHAR 25A1
ENCODING 9633
SWIDTH 600 0
DWIDTH 10 0
BBX 6 7 2 1
BITMAP
FC
84
84
84
84
84
FC
ENDCHAR
STARTCHAR 25B2
ENCODING 9650
SWIDTH 600 0
DWIDTH 10 0
BBX 6 7 2 1
BITMAP
20
30
30
78
78
FC
FC
ENDCHAR
STARTCHAR 25B3
ENCODING 9651
SWIDTH 600 0
DWIDTH 10 0
BBX 6 7 2 1
BITMAP
20
30
50
48
88
84
FC
ENDCHAR
STARTCHAR 25B6
ENCODING 9654
SWIDTH 600 0
DWIDTH 10 0
BBX 7 7 2 1
BITMAP
80
E0
F8
FE
F8
E0
80
ENDCHAR
STARTCHAR 25B7
ENCODING 9655
SWIDTH 600 0
DWIDTH 10 0
BBX 7 7 2 1
BITMAP
80
E0
98
86
8C
B0
C0
ENDCHAR
STARTCHAR 25BC
ENCODING 9660
SWIDTH 600 0
DWIDTH 10 0
BBX 6 7 2 1
BITMAP
FC
FC
78
78
30
30
20
ENDCHAR
STARTCHAR 25BD
ENCODING 9661
SWIDTH 600 0
DWIDTH 10 0
BBX 6 7 2 1
BITMAP
FC
84
88
48
50
30
20
ENDCHAR
STARTCHAR 25C0
ENCODING 9664
SWIDTH 600 0
DWIDTH 10 0
BBX 7 7 1 1
BITMAP
02
0E
3E
FE
3E
0E
02
ENDCHAR
STARTCHAR 25C1
ENCODING 9665
SWIDTH 600 0
DWIDTH 10 0
BBX 7 7 1 1
BITMAP
02
0E
32
C2
62
1A
06
ENDCHAR
STARTCHAR 25C6
ENCODING 9670
SWIDTH 600 0
DWIDTH 10 0
BBX 10 9 0 0
BITMAP
0C00
1E00
3F00
7F80
FFC0
7F80
3F00
1E00
0C00
ENDCHAR
STARTCHAR 25C7
ENCODING 9671
SWIDTH 600 0
DWIDTH 10 0
BBX 10 9 0 0
BITMAP
0C00
1200
2100
4080
80C0
4180
3300
1E00
0C00
ENDCHAR
STARTCHAR 25CA
ENCODING 9674
SWIDTH 480 0
DWIDTH 8 0
BBX 6 10 1 0
BITMAP
10
30
48
44
84
84
48
48
30
20
ENDCHAR
STARTCHAR 27E8
ENCODING 10216
SWIDTH 300 0
DWIDTH 5 0
BBX 3 17 1 -4
BITMAP
20
20
20
40
40
40
80
80
80
80
80
40
40
40
20
20
20
ENDCHAR
STARTCHAR 27E9
ENCODING 10217
SWIDTH 300 0
DWIDTH 5 0
BBX 4 17 1 -4
BITMAP
80
80
40
40
40
20
20
20
30
20
20
20
40
40
40
80
80
ENDCHAR
STARTCHAR A78B
ENCODING 42891
SWIDTH 240 0
DWIDTH 4 0
BBX 2 7 1 5
BITMAP
C0
C0
C0
C0
C0
C0
80
ENDCHAR
STARTCHAR A78C
ENCODING 42892
SWIDTH 240 0
DWIDTH 4 0
BBX 2 6 1 5
BITMAP
C0
C0
C0
C0
80
80
ENDCHAR
STARTCHAR FB01
ENCODING 64257
SWIDTH 660 0
DWIDTH 11 0
BBX 10 13 0 0
BITMAP
1CC0
2040
2000
2000
FC40
2040
2040
2040
2040
2040
2040
2040
2040
ENDCHAR
STARTCHAR FB02
ENCODING 64258
SWIDTH 600 0
DWIDTH 10 0
BBX 8 13 0 0
BITMAP
1D
21
21
21
FD
21
21
21
21
21
21
21
21
ENDCHAR
ENDFONT
